<?xml version="1.0" encoding="UTF-8" standalone="no"?>
<svg
   xmlns:dc="http://purl.org/dc/elements/1.1/"
   xmlns:cc="http://creativecommons.org/ns#"
   xmlns:rdf="http://www.w3.org/1999/02/22-rdf-syntax-ns#"
   xmlns:svg="http://www.w3.org/2000/svg"
   xmlns="http://www.w3.org/2000/svg"
   viewBox="0 0 816 476.728"
   height="476.728"
   width="816"
   xml:space="preserve"
   id="svg2"
   version="1.1"><metadata
     id="metadata8"><rdf:RDF><cc:Work
         rdf:about=""><dc:format>image/svg+xml</dc:format><dc:type
           rdf:resource="http://purl.org/dc/dcmitype/StillImage" /></cc:Work></rdf:RDF></metadata><defs
     id="defs6"><clipPath
       id="clipPath18"
       clipPathUnits="userSpaceOnUse"><path
         id="path16"
         d="M 0,357.546 H 612 V 0 H 0 Z" /></clipPath></defs><g
     transform="matrix(1.3333333,0,0,-1.3333333,0,476.728)"
     id="g10"><g
       id="g12"><g
         clip-path="url(#clipPath18)"
         id="g14"><g
           transform="translate(269.4327,236.5834)"
           id="g20"><path
             id="path22"
             style="fill:#231f20;fill-opacity:1;fill-rule:nonzero;stroke:none"
             d="m 0,0 c 0.249,-2.586 0.381,-5.314 0.381,-8.203 0,-14.889 -3.53,-25.632 -10.581,-32.233 -7.054,-6.601 -15.084,-9.897 -24.091,-9.897 -11.389,0 -19.631,3.603 -24.73,10.818 -3.537,5.005 -5.844,11.638 -6.928,19.894 L -90.436,1.07 c -4.959,4.191 -6.709,8.407 -5.201,12.528 0.841,2.296 3.424,6.149 11.283,6.149 5.057,0 12.065,-1.608 16.315,-5.2 l 4.069,-3.438 c 1.61,4.754 3.933,8.721 6.99,11.878 6.458,6.677 14.359,10.018 23.709,10.018 4.407,0 8.374,-0.538 11.916,-1.598 6.975,10.173 14.371,20.096 22.169,29.74 -9.134,3.094 -19.393,4.652 -30.791,4.652 -22.679,0 -41.759,-7.072 -57.245,-21.215 -15.485,-14.145 -23.226,-32.601 -23.226,-55.369 0,-23.197 6.254,-41.086 18.768,-53.674 12.513,-12.587 30.969,-18.882 55.368,-18.882 23.147,0 42.347,7.108 57.598,21.323 15.249,14.214 22.874,32.775 22.874,55.688 0,20.595 -4.785,36.667 -14.317,48.247 C 19.124,28.585 9.162,14.588 0,0" /></g><g
           transform="translate(116.7081,268.3905)"
           id="g24"><path
             id="path26"
             style="fill:#231f20;fill-opacity:1;fill-rule:nonzero;stroke:none"
             d="M 0,0 V -23.157 H 23.314 V -55.662 H 0 v -59.486 H -44.913 V 33.993 H 42.276 L 42.276,0 Z" /></g><g
           transform="translate(374.297,269.8773)"
           id="g28"><path
             id="path30"
             style="fill:#231f20;fill-opacity:1;fill-rule:nonzero;stroke:none"
             d="m 0,0 h -7.436 v -30.805 l 6.586,-0.849 c 5.665,0 10.124,1.413 13.384,4.249 3.256,2.832 4.887,6.868 4.887,12.11 0,4.673 -1.38,8.391 -4.144,11.152 C 10.516,-1.381 6.089,0 0,0 m 23.556,-116.634 -29.505,57.149 h -1.487 v -57.149 h -43.402 v 148.29 c 5.664,0 18.334,0.139 30.232,0.425 11.895,0.281 19.472,0.424 22.73,0.424 18.696,0 32.858,-3.571 42.489,-10.712 9.631,-7.143 14.449,-18.492 14.449,-34.047 0,-8.771 -2.305,-16.762 -6.906,-23.975 -4.604,-7.213 -11.013,-12.306 -19.225,-15.272 l 10.408,-16.546 28.583,-48.587 z" /></g><g
           transform="translate(512.9572,268.3905)"
           id="g32"><path
             id="path34"
             style="fill:#231f20;fill-opacity:1;fill-rule:nonzero;stroke:none"
             d="M 0,0 V -115.148 H -39.516 V 0 H -70.534 V 33.993 H 31.017 L 31.017,0 Z" /></g><g
           transform="translate(294.0548,315.4799)"
           id="g36"><path
             id="path38"
             style="fill:#3a9fcf;fill-opacity:1;fill-rule:nonzero;stroke:none"
             d="m 0,0 c -26.322,-28.751 -48.695,-60.208 -66.978,-94.532 -9.955,8.411 -19.91,16.823 -29.864,25.236 -5.941,5.02 -25.164,5.822 -14.035,-3.583 14.289,-12.074 28.577,-24.147 42.864,-36.221 2.957,-2.499 14.409,-8.434 17.261,-2.81 18.604,36.694 41.57,70.14 69.368,100.503 C 24.218,-5.287 4.604,5.026 0,0" /></g><g
           transform="translate(77.879,125.7372)"
           id="g40"><path
             id="path42"
             style="fill:#231f20;fill-opacity:1;fill-rule:nonzero;stroke:none"
             d="m 0,0 c 2.193,0 3.889,0.912 3.889,3.107 0,2.347 -1.825,2.912 -3.802,2.912 H -4.606 V 0 Z M -4.606,-1.26 V -8.365 H -6.084 V 7.279 h 6.127 c 3.434,0 5.323,-1.217 5.323,-4.106 0,-1.978 -0.739,-3.021 -2.542,-3.824 1.848,-0.63 1.955,-2.586 1.999,-4.237 0.066,-2.368 0.26,-3.019 0.651,-3.324 V -8.365 H 3.844 C 3.236,-7.3 3.389,-4.367 3.149,-3.172 2.802,-1.478 1.521,-1.26 0.043,-1.26 Z" /></g><g
           transform="translate(90.5831,127.7587)"
           id="g44"><path
             id="path46"
             style="fill:#231f20;fill-opacity:1;fill-rule:nonzero;stroke:none"
             d="m 0,0 c -2.738,0 -3.823,-2.326 -3.823,-4.757 0,-2.804 1.325,-4.76 3.823,-4.76 2.737,0 3.824,2.347 3.824,4.76 C 3.802,-2.109 2.759,0 0,0 m -5.215,-4.757 c 0,3.28 1.739,5.929 5.215,5.929 3.521,0 5.214,-2.628 5.214,-5.929 0,-3.565 -2.064,-5.933 -5.214,-5.933 -2.867,0.044 -5.215,1.999 -5.215,5.933" /></g><g
           transform="translate(105.8087,128.6273)"
           id="g48"><path
             id="path50"
             style="fill:#231f20;fill-opacity:1;fill-rule:nonzero;stroke:none"
             d="M 0,0 H 1.305 V -11.254 H 0 v 1.565 c -0.694,-0.782 -1.651,-1.87 -3.629,-1.87 -2.997,0 -3.996,1.804 -3.996,4.15 V 0 h 1.303 v -7.387 c 0,-1.934 0.847,-2.997 2.889,-2.997 2.152,0 3.433,1.781 3.433,4.258 z" /></g><g
           transform="translate(114.213,117.3295)"
           id="g52"><path
             id="path54"
             style="fill:#231f20;fill-opacity:1;fill-rule:nonzero;stroke:none"
             d="m 0,0 c -0.306,-0.065 -0.869,-0.261 -1.5,-0.261 -1.281,0 -1.998,0.565 -1.998,2.237 v 8.235 h -1.587 v 1.087 h 1.587 v 3.129 h 1.303 v -3.129 h 2.107 V 10.211 H -2.195 V 2.499 c 0,-1.108 0.044,-1.586 1.13,-1.586 0.347,0 0.717,0.065 1.065,0.152 z" /></g><path
           id="path56"
           style="fill:#231f20;fill-opacity:1;fill-rule:nonzero;stroke:none"
           d="m 116.491,128.627 h 1.305 v -11.254 h -1.305 z m -0.065,4.39 h 1.435 v -1.934 h -1.435 z" /><g
           transform="translate(122.42,117.3729)"
           id="g58"><path
             id="path60"
             style="fill:#231f20;fill-opacity:1;fill-rule:nonzero;stroke:none"
             d="M 0,0 H -1.303 V 11.254 H 0 V 9.689 c 1.042,1.109 2.064,1.87 3.629,1.87 1.369,0 2.628,-0.434 3.433,-1.608 C 7.605,9.147 7.627,8.3 7.627,7.365 V 0 H 6.324 v 7.343 c 0,2.021 -0.827,3.042 -2.913,3.042 C 1.804,10.385 0.695,9.342 0.283,8.19 0.022,7.474 0,6.844 0,6.062 Z" /></g><g
           transform="translate(138.0802,127.7587)"
           id="g62"><path
             id="path64"
             style="fill:#231f20;fill-opacity:1;fill-rule:nonzero;stroke:none"
             d="M 0,0 C -2.193,0 -3.823,-1.586 -3.845,-4.41 -3.954,-7.234 -2.694,-9.517 0,-9.517 c 2.368,0 3.802,2.174 3.802,4.715 C 3.802,-2.086 2.455,0 0,0 M 3.802,0.869 H 5.105 V -9.298 c 0,-3.021 -0.998,-5.694 -5.279,-5.694 -3.302,0 -4.671,1.89 -4.758,3.237 h 1.391 c 0.392,-1.694 1.826,-2.064 3.367,-2.064 3.564,0 4.041,2.651 3.976,5.236 -0.825,-1.369 -2.433,-2.107 -4.018,-2.107 -3.434,0 -5.019,2.803 -5.019,5.953 0,3.324 1.456,5.909 5.083,5.909 1.434,0 3.151,-0.803 3.912,-2.28 h 0.042 z" /></g><g
           transform="translate(151.2843,133.016)"
           id="g66"><path
             id="path68"
             style="fill:#231f20;fill-opacity:1;fill-rule:nonzero;stroke:none"
             d="M 0,0 H 11.383 V -1.259 H 6.431 V -15.643 H 4.952 v 14.384 l -4.952,0 z" /></g><g
           transform="translate(170.3116,123.7826)"
           id="g70"><path
             id="path72"
             style="fill:#231f20;fill-opacity:1;fill-rule:nonzero;stroke:none"
             d="m 0,0 c 0,2.194 -1.216,3.976 -3.563,3.976 -2.302,0 -3.52,-1.848 -3.78,-3.976 z m -7.343,-1.086 c -0.022,-2.434 1.282,-4.455 3.78,-4.455 1.695,0 3.02,0.935 3.411,2.586 h 1.457 c -0.654,-2.129 -1.999,-3.759 -4.868,-3.759 -3.606,0 -5.17,2.564 -5.17,5.888 0,3.281 1.955,5.974 5.17,5.974 3.085,0 4.975,-2.193 4.954,-6.234 z" /></g><g
           transform="translate(182.214,125.0858)"
           id="g74"><path
             id="path76"
             style="fill:#231f20;fill-opacity:1;fill-rule:nonzero;stroke:none"
             d="m 0,0 c -0.456,1.672 -1.607,2.673 -3.346,2.673 -2.673,0 -3.781,-2.433 -3.781,-4.781 0,-2.368 1.088,-4.736 3.781,-4.736 1.934,0 3.151,1.151 3.454,3.021 h 1.391 c -0.456,-2.499 -2.02,-4.194 -4.845,-4.194 -3.585,0 -5.17,2.585 -5.17,5.909 0,3.129 1.803,5.953 5.17,5.953 2.586,0 4.28,-1.238 4.671,-3.845 z" /></g><g
           transform="translate(186.3165,117.3729)"
           id="g78"><path
             id="path80"
             style="fill:#231f20;fill-opacity:1;fill-rule:nonzero;stroke:none"
             d="M 0,0 V 15.643 H 1.303 V 9.689 c 1.043,1.109 2.064,1.87 3.629,1.87 1.368,0 2.628,-0.434 3.432,-1.608 C 8.906,9.147 8.93,8.3 8.93,7.365 V 0 H 7.626 V 7.343 C 7.626,9.364 6.8,10.385 4.714,10.385 3.105,10.385 1.998,9.342 1.586,8.19 1.324,7.474 1.303,6.844 1.303,6.062 V 0 Z" /></g><g
           transform="translate(199.6945,117.3729)"
           id="g82"><path
             id="path84"
             style="fill:#231f20;fill-opacity:1;fill-rule:nonzero;stroke:none"
             d="M 0,0 H -1.303 V 11.254 H 0 V 9.689 c 1.043,1.109 2.064,1.87 3.629,1.87 1.368,0 2.628,-0.434 3.433,-1.608 C 7.604,9.147 7.627,8.3 7.627,7.365 V 0 H 6.323 v 7.343 c 0,2.021 -0.826,3.042 -2.912,3.042 C 1.803,10.385 0.696,9.342 0.283,8.19 0.021,7.474 0,6.844 0,6.062 Z" /></g><g
           transform="translate(214.9425,127.7587)"
           id="g86"><path
             id="path88"
             style="fill:#231f20;fill-opacity:1;fill-rule:nonzero;stroke:none"
             d="m 0,0 c -2.738,0 -3.825,-2.326 -3.825,-4.757 0,-2.804 1.326,-4.76 3.825,-4.76 2.737,0 3.823,2.347 3.823,4.76 C 3.802,-2.109 2.759,0 0,0 m -5.215,-4.757 c 0,3.28 1.738,5.929 5.215,5.929 3.52,0 5.214,-2.628 5.214,-5.929 0,-3.565 -2.065,-5.933 -5.214,-5.933 -2.868,0.044 -5.215,1.999 -5.215,5.933" /></g><path
           id="path90"
           style="fill:#231f20;fill-opacity:1;fill-rule:nonzero;stroke:none"
           d="m 222.737,133.017 h 1.304 v -15.643 h -1.304 z" /><g
           transform="translate(231.839,127.7587)"
           id="g92"><path
             id="path94"
             style="fill:#231f20;fill-opacity:1;fill-rule:nonzero;stroke:none"
             d="m 0,0 c -2.738,0 -3.825,-2.326 -3.825,-4.757 0,-2.804 1.326,-4.76 3.825,-4.76 2.736,0 3.823,2.347 3.823,4.76 C 3.802,-2.109 2.759,0 0,0 m -5.215,-4.757 c 0,3.28 1.738,5.929 5.215,5.929 3.52,0 5.214,-2.628 5.214,-5.929 0,-3.565 -2.065,-5.933 -5.214,-5.933 -2.868,0.044 -5.215,1.999 -5.215,5.933" /></g><g
           transform="translate(244.3273,127.7587)"
           id="g96"><path
             id="path98"
             style="fill:#231f20;fill-opacity:1;fill-rule:nonzero;stroke:none"
             d="M 0,0 C -2.194,0 -3.824,-1.586 -3.846,-4.41 -3.954,-7.234 -2.693,-9.517 0,-9.517 c 2.369,0 3.802,2.174 3.802,4.715 C 3.802,-2.086 2.456,0 0,0 M 3.802,0.869 H 5.105 V -9.298 c 0,-3.021 -0.999,-5.694 -5.28,-5.694 -3.302,0 -4.67,1.89 -4.758,3.237 h 1.391 c 0.393,-1.694 1.826,-2.064 3.367,-2.064 3.565,0 4.043,2.651 3.977,5.236 -0.825,-1.369 -2.434,-2.107 -4.019,-2.107 -3.433,0 -5.019,2.803 -5.019,5.953 0,3.324 1.456,5.909 5.084,5.909 1.433,0 3.15,-0.803 3.911,-2.28 h 0.043 z" /></g><g
           transform="translate(252.6222,114.3099)"
           id="g100"><path
             id="path102"
             style="fill:#231f20;fill-opacity:1;fill-rule:nonzero;stroke:none"
             d="m 0,0 c 0.347,-0.065 0.716,-0.131 1.086,-0.131 1.477,0 1.694,2.13 2.194,3.107 L -1.087,14.317 H 0.369 L 3.976,4.648 7.581,14.317 H 8.993 L 4.801,3.216 C 3.737,0.391 3.042,-1.369 1.237,-1.369 0.781,-1.369 0.347,-1.305 0,-1.217 Z" /></g><g
           transform="translate(268.4757,127.5409)"
           id="g104"><path
             id="path106"
             style="fill:#231f20;fill-opacity:1;fill-rule:nonzero;stroke:none"
             d="m 0,0 v 1.087 h 1.673 v 1.781 c 0,1.781 0.651,2.911 2.389,2.911 0.391,0 0.74,-0.022 1.087,-0.087 V 4.498 C 4.888,4.563 4.606,4.606 4.366,4.606 3.02,4.606 2.977,3.498 2.977,2.477 V 1.087 H 5.149 V 0 H 2.977 V -10.168 H 1.673 L 1.673,0 Z" /></g><g
           transform="translate(280.1193,127.7587)"
           id="g108"><path
             id="path110"
             style="fill:#231f20;fill-opacity:1;fill-rule:nonzero;stroke:none"
             d="m 0,0 c -2.738,0 -3.824,-2.326 -3.824,-4.757 0,-2.804 1.325,-4.76 3.824,-4.76 2.736,0 3.823,2.347 3.823,4.76 C 3.801,-2.109 2.758,0 0,0 m -5.214,-4.757 c 0,3.28 1.737,5.929 5.214,5.929 3.52,0 5.213,-2.628 5.213,-5.929 0,-3.565 -2.063,-5.933 -5.213,-5.933 -2.868,0.044 -5.214,1.999 -5.214,5.933" /></g><g
           transform="translate(289.087,117.3729)"
           id="g112"><path
             id="path114"
             style="fill:#231f20;fill-opacity:1;fill-rule:nonzero;stroke:none"
             d="M 0,0 H -1.304 V 11.254 H 0 V 9.147 h 0.044 c 0.717,1.803 1.781,2.412 3.671,2.412 V 10.146 C 0.782,10.211 0,8.039 0,5.519 Z" /></g><g
           transform="translate(308.3536,123.2826)"
           id="g116"><path
             id="path118"
             style="fill:#231f20;fill-opacity:1;fill-rule:nonzero;stroke:none"
             d="m 0,0 c -1.108,-0.456 -2.239,-0.543 -3.368,-0.63 -1.977,-0.151 -3.172,-0.869 -3.172,-2.39 0,-1.368 1.195,-2.021 2.433,-2.021 2.064,0 4.107,1 4.107,3.281 z m -2.194,0.651 c 0.478,0.044 1.281,0.174 1.715,0.37 C -0.044,1.217 0,1.803 0,2.194 0,3.52 -0.782,4.476 -2.803,4.476 c -1.802,0 -3.042,-0.587 -3.281,-2.542 h -1.325 c 0.196,2.651 2.173,3.714 4.628,3.714 2.281,0 4.084,-0.89 4.084,-3.498 v -6.127 c 0,-1.02 0.259,-1.258 1.368,-0.868 v -1.022 c -0.194,-0.064 -0.65,-0.216 -1.02,-0.216 -0.216,0 -0.392,0.021 -0.587,0.065 -0.869,0.13 -1.021,0.892 -1.043,1.673 -1.086,-1.217 -2.564,-1.869 -4.192,-1.869 -1.977,0 -3.76,1.065 -3.76,3.237 0,1.891 1.303,3.042 3.933,3.39 z" /></g><g
           transform="translate(319.1456,117.3729)"
           id="g120"><path
             id="path122"
             style="fill:#231f20;fill-opacity:1;fill-rule:nonzero;stroke:none"
             d="m 0,0 v 15.643 h 10.08 v -1.26 H 1.477 V 8.733 H 9.298 V 7.474 H 1.477 L 1.477,0 Z" /></g><g
           transform="translate(332.545,117.3729)"
           id="g124"><path
             id="path126"
             style="fill:#231f20;fill-opacity:1;fill-rule:nonzero;stroke:none"
             d="M 0,0 H -1.303 V 11.254 H 0 V 9.147 h 0.043 c 0.719,1.803 1.782,2.412 3.672,2.412 V 10.146 C 0.782,10.211 0,8.039 0,5.519 Z" /></g><g
           transform="translate(346.1652,123.7826)"
           id="g128"><path
             id="path130"
             style="fill:#231f20;fill-opacity:1;fill-rule:nonzero;stroke:none"
             d="M 0,0 C 0,2.194 -1.217,3.976 -3.563,3.976 -5.865,3.976 -7.081,2.128 -7.343,0 Z m -7.343,-1.086 c -0.021,-2.434 1.281,-4.455 3.78,-4.455 1.696,0 3.021,0.935 3.412,2.586 h 1.457 c -0.653,-2.129 -2.001,-3.759 -4.869,-3.759 -3.607,0 -5.169,2.564 -5.169,5.888 0,3.281 1.954,5.974 5.169,5.974 3.085,0 4.976,-2.193 4.954,-6.234 z" /></g><g
           transform="translate(358.2413,123.7826)"
           id="g132"><path
             id="path134"
             style="fill:#231f20;fill-opacity:1;fill-rule:nonzero;stroke:none"
             d="M 0,0 C 0,2.194 -1.218,3.976 -3.563,3.976 -5.866,3.976 -7.082,2.128 -7.344,0 Z m -7.344,-1.086 c -0.021,-2.434 1.282,-4.455 3.781,-4.455 1.695,0 3.019,0.935 3.411,2.586 h 1.457 c -0.653,-2.129 -2.001,-3.759 -4.868,-3.759 -3.608,0 -5.17,2.564 -5.17,5.888 0,3.281 1.954,5.974 5.17,5.974 3.084,0 4.975,-2.193 4.953,-6.234 z" /></g><g
           transform="translate(375.5704,123.2826)"
           id="g136"><path
             id="path138"
             style="fill:#231f20;fill-opacity:1;fill-rule:nonzero;stroke:none"
             d="m 0,0 c -1.107,-0.456 -2.236,-0.543 -3.367,-0.63 -1.976,-0.151 -3.173,-0.869 -3.173,-2.39 0,-1.368 1.197,-2.021 2.435,-2.021 2.063,0 4.105,1 4.105,3.281 z m -2.193,0.651 c 0.477,0.044 1.281,0.174 1.716,0.37 C -0.042,1.217 0,1.803 0,2.194 0,3.52 -0.78,4.476 -2.802,4.476 c -1.804,0 -3.042,-0.587 -3.28,-2.542 h -1.325 c 0.194,2.651 2.173,3.714 4.627,3.714 2.28,0 4.085,-0.89 4.085,-3.498 v -6.127 c 0,-1.02 0.259,-1.258 1.368,-0.868 V -5.867 C 2.479,-5.931 2.021,-6.083 1.651,-6.083 c -0.215,0 -0.39,0.021 -0.587,0.065 -0.868,0.13 -1.019,0.892 -1.041,1.673 -1.086,-1.217 -2.564,-1.869 -4.194,-1.869 -1.976,0 -3.758,1.065 -3.758,3.237 0,1.891 1.303,3.042 3.933,3.39 z" /></g><g
           transform="translate(381.5861,117.3729)"
           id="g140"><path
             id="path142"
             style="fill:#231f20;fill-opacity:1;fill-rule:nonzero;stroke:none"
             d="M 0,0 H -1.304 V 11.254 H 0 V 9.689 c 1.043,1.109 2.063,1.87 3.628,1.87 1.369,0 2.63,-0.434 3.433,-1.608 C 7.605,9.147 7.625,8.3 7.625,7.365 V 0 H 6.323 v 7.343 c 0,2.021 -0.825,3.042 -2.913,3.042 C 1.804,10.385 0.695,9.342 0.283,8.19 0.022,7.474 0,6.844 0,6.062 Z" /></g><g
           transform="translate(397.2462,127.7587)"
           id="g144"><path
             id="path146"
             style="fill:#231f20;fill-opacity:1;fill-rule:nonzero;stroke:none"
             d="M 0,0 C -2.695,0 -3.955,-2.282 -3.846,-5.106 -3.822,-7.93 -2.195,-9.517 0,-9.517 c 2.456,0 3.803,2.087 3.803,4.802 C 3.803,-2.173 2.369,0 0,0 M 3.803,5.257 H 5.105 V -10.385 H 3.803 v 1.977 H 3.759 c -0.761,-1.477 -2.477,-2.282 -3.91,-2.282 -3.629,0 -5.085,2.586 -5.085,5.909 0,3.151 1.587,5.953 5.019,5.953 1.585,0 3.194,-0.737 4.02,-2.106 z" /></g><g
           transform="translate(424.3527,125.1727)"
           id="g148"><path
             id="path150"
             style="fill:#231f20;fill-opacity:1;fill-rule:nonzero;stroke:none"
             d="m 0,0 c 0,4.345 -2.237,6.995 -5.846,6.995 -4.017,0 -5.777,-3.366 -5.777,-6.995 0,-3.694 1.736,-6.952 5.822,-6.952 C -1.737,-6.952 0,-3.65 0,0 m -5.888,8.256 c 4.889,0 7.365,-3.671 7.365,-8.256 0,-4.498 -2.476,-8.212 -7.3,-8.212 -4.823,0 -7.279,3.714 -7.279,8.212 -0.02,4.563 2.544,8.256 7.214,8.256" /></g><g
           transform="translate(433.8195,118.2425)"
           id="g152"><path
             id="path154"
             style="fill:#231f20;fill-opacity:1;fill-rule:nonzero;stroke:none"
             d="M 0,0 C 2.694,0 3.954,2.281 3.845,5.105 3.824,7.93 2.194,9.517 0,9.517 -2.455,9.517 -3.802,7.431 -3.802,4.714 -3.802,2.172 -2.368,0 0,0 m -3.802,-5.302 h -1.303 v 15.686 h 1.303 V 8.408 h 0.043 c 0.76,1.476 2.477,2.281 3.911,2.281 3.627,0 5.084,-2.586 5.084,-5.91 0,-3.151 -1.586,-5.953 -5.02,-5.953 -1.585,0 -3.192,0.738 -4.018,2.108 z" /></g><g
           transform="translate(449.9786,123.7826)"
           id="g156"><path
             id="path158"
             style="fill:#231f20;fill-opacity:1;fill-rule:nonzero;stroke:none"
             d="M 0,0 C 0,2.194 -1.216,3.976 -3.563,3.976 -5.866,3.976 -7.082,2.128 -7.344,0 Z m -7.344,-1.086 c -0.021,-2.434 1.283,-4.455 3.781,-4.455 1.695,0 3.02,0.935 3.411,2.586 h 1.457 c -0.653,-2.129 -1.999,-3.759 -4.868,-3.759 -3.608,0 -5.17,2.564 -5.17,5.888 0,3.281 1.955,5.974 5.17,5.974 3.084,0 4.976,-2.193 4.953,-6.234 z" /></g><g
           transform="translate(455.2101,117.3729)"
           id="g160"><path
             id="path162"
             style="fill:#231f20;fill-opacity:1;fill-rule:nonzero;stroke:none"
             d="M 0,0 H -1.305 V 11.254 H 0 V 9.689 c 1.043,1.109 2.063,1.87 3.628,1.87 1.369,0 2.63,-0.434 3.433,-1.608 C 7.604,9.147 7.625,8.3 7.625,7.365 V 0 H 6.323 v 7.343 c 0,2.021 -0.826,3.042 -2.912,3.042 C 1.803,10.385 0.696,9.342 0.282,8.19 0.021,7.474 0,6.844 0,6.062 Z" /></g><path
           id="path164"
           style="fill:#231f20;fill-opacity:1;fill-rule:nonzero;stroke:none"
           d="m 472.737,133.017 h 1.477 v -15.643 h -1.477 z" /><g
           transform="translate(479.3615,117.3729)"
           id="g166"><path
             id="path168"
             style="fill:#231f20;fill-opacity:1;fill-rule:nonzero;stroke:none"
             d="M 0,0 H -1.303 V 11.254 H 0 V 9.689 c 1.043,1.109 2.063,1.87 3.629,1.87 1.368,0 2.63,-0.434 3.433,-1.608 C 7.605,9.147 7.626,8.3 7.626,7.365 V 0 H 6.323 v 7.343 c 0,2.021 -0.826,3.042 -2.912,3.042 C 1.803,10.385 0.696,9.342 0.283,8.19 0.023,7.474 0,6.844 0,6.062 Z" /></g><g
           transform="translate(494.088,117.3295)"
           id="g170"><path
             id="path172"
             style="fill:#231f20;fill-opacity:1;fill-rule:nonzero;stroke:none"
             d="m 0,0 c -0.305,-0.065 -0.869,-0.261 -1.499,-0.261 -1.282,0 -1.997,0.565 -1.997,2.237 v 8.235 h -1.588 v 1.087 h 1.588 v 3.129 h 1.302 v -3.129 h 2.107 V 10.211 H -2.194 V 2.499 c 0,-1.108 0.042,-1.586 1.13,-1.586 0.347,0 0.717,0.065 1.064,0.152 z" /></g><g
           transform="translate(504.3175,123.7826)"
           id="g174"><path
             id="path176"
             style="fill:#231f20;fill-opacity:1;fill-rule:nonzero;stroke:none"
             d="M 0,0 C 0,2.194 -1.216,3.976 -3.563,3.976 -5.865,3.976 -7.082,2.128 -7.343,0 Z m -7.343,-1.086 c -0.022,-2.434 1.282,-4.455 3.78,-4.455 1.695,0 3.02,0.935 3.413,2.586 h 1.455 c -0.653,-2.129 -1.999,-3.759 -4.868,-3.759 -3.607,0 -5.17,2.564 -5.17,5.888 0,3.281 1.955,5.974 5.17,5.974 3.085,0 4.977,-2.193 4.954,-6.234 z" /></g><g
           transform="translate(509.6144,117.3729)"
           id="g178"><path
             id="path180"
             style="fill:#231f20;fill-opacity:1;fill-rule:nonzero;stroke:none"
             d="M 0,0 H -1.303 V 11.254 H 0 V 9.147 h 0.042 c 0.72,1.803 1.783,2.412 3.673,2.412 V 10.146 C 0.782,10.211 0,8.039 0,5.519 Z" /></g><g
           transform="translate(517.173,117.3729)"
           id="g182"><path
             id="path184"
             style="fill:#231f20;fill-opacity:1;fill-rule:nonzero;stroke:none"
             d="M 0,0 H -1.304 V 11.254 H 0 V 9.689 c 1.043,1.109 2.063,1.87 3.628,1.87 1.369,0 2.63,-0.434 3.434,-1.608 C 7.605,9.147 7.626,8.3 7.626,7.365 V 0 H 6.323 v 7.343 c 0,2.021 -0.825,3.042 -2.913,3.042 C 1.804,10.385 0.695,9.342 0.283,8.19 0.022,7.474 0,6.844 0,6.062 Z" /></g><g
           transform="translate(536.0919,123.7826)"
           id="g186"><path
             id="path188"
             style="fill:#231f20;fill-opacity:1;fill-rule:nonzero;stroke:none"
             d="M 0,0 C 0,2.194 -1.217,3.976 -3.563,3.976 -5.865,3.976 -7.082,2.128 -7.343,0 Z m -7.343,-1.086 c -0.022,-2.434 1.281,-4.455 3.78,-4.455 1.695,0 3.02,0.935 3.411,2.586 h 1.457 c -0.653,-2.129 -1.999,-3.759 -4.868,-3.759 -3.607,0 -5.17,2.564 -5.17,5.888 0,3.281 1.955,5.974 5.17,5.974 3.085,0 4.977,-2.193 4.954,-6.234 z" /></g><g
           transform="translate(543.9747,117.3295)"
           id="g190"><path
             id="path192"
             style="fill:#231f20;fill-opacity:1;fill-rule:nonzero;stroke:none"
             d="m 0,0 c -0.304,-0.065 -0.87,-0.261 -1.5,-0.261 -1.281,0 -1.997,0.565 -1.997,2.237 v 8.235 h -1.588 v 1.087 h 1.588 v 3.129 h 1.302 v -3.129 h 2.107 V 10.211 H -2.195 V 2.499 c 0,-1.108 0.044,-1.586 1.13,-1.586 0.348,0 0.717,0.065 1.065,0.152 z" /></g><g
           transform="translate(194.6993,71.8373)"
           id="g194"><path
             id="path196"
             style="fill:#00adef;fill-opacity:1;fill-rule:nonzero;stroke:none"
             d="m 0,0 c 0,0 5.758,-0.567 10.862,-6.538 0,0 3.201,-3.201 3.981,-9.343 0.778,-6.145 3.98,-14.97 8.219,-15.314 4.239,-0.347 9.032,2.884 10.986,6.142 2.337,3.893 -2.074,11.421 -6.661,16.699 0,0 -11.94,16.352 -22.495,12.285 C 4.892,3.931 1.078,1.951 0,0" /></g><g
           transform="translate(222.4513,66.2123)"
           id="g198"><path
             id="path200"
             style="fill:#00adef;fill-opacity:1;fill-rule:nonzero;stroke:none"
             d="m 0,0 c -1.632,6.342 -0.972,10.2 -0.165,12.286 -1.307,0.582 -2.723,0.966 -4.261,1.099 l -2.048,0.174 C -8.171,12.006 -9.322,10.45 -10.09,9.138 -5.548,6.312 -1.835,2.222 0,0" /></g><g
           transform="translate(218.1925,81.5653)"
           id="g202"><path
             id="path204"
             style="fill:#00adef;fill-opacity:1;fill-rule:nonzero;stroke:none"
             d="m 0,0 c 0,0 7.199,5.787 17.91,2.337 7.788,-2.508 17.823,-9.086 24.89,-24.874 0,0 -3.646,-15.078 -22.185,-7.216 0,0 -3.396,28.283 -20.615,29.753" /></g><g
           transform="translate(267.6193,71.0961)"
           id="g206"><path
             id="path208"
             style="fill:#231f20;fill-opacity:1;fill-rule:nonzero;stroke:none"
             d="m 0,0 -0.498,0.637 v 0.156 c 0.258,0.06 1.248,0.158 1.534,0.158 0.144,0 0.33,-0.114 0.506,-0.347 0.686,-0.833 2.748,-3.713 4.824,-6.531 1.033,-1.425 1.876,-2.573 2.416,-3.597 -0.11,2.056 -0.12,3.239 -0.12,4.253 v 5.569 c 0,0.463 0.114,0.544 0.367,0.574 0.59,0.074 0.774,0.079 1.157,0.079 -0.041,-0.863 -0.062,-2.03 -0.062,-3.699 v -8.891 c -0.127,-0.085 -0.813,-0.289 -1.171,-0.289 -0.139,0 -0.305,0.117 -0.316,0.139 -1.355,1.817 -3.319,4.516 -5.089,6.955 -0.704,1.062 -1.414,2.116 -2.19,3.4 0.094,-2.418 0.106,-3.484 0.106,-4.51 v -5.168 c 0,-0.482 -0.121,-0.543 -0.408,-0.603 C 0.75,-11.777 0.28,-11.804 -0.062,-11.796 -0.021,-10.992 0,-9.825 0,-8.136 Z" /></g><g
           transform="translate(280.3458,69.3475)"
           id="g210"><path
             id="path212"
             style="fill:#231f20;fill-opacity:1;fill-rule:nonzero;stroke:none"
             d="M 0,0 C 0,1.348 -0.027,2.172 -0.068,2.542 0.203,2.601 1.071,2.7 1.41,2.7 1.692,2.7 1.726,2.558 1.726,1.663 v -9.088 c 0,-1.396 0.041,-2.058 0.061,-2.461 C 1.48,-9.988 0.646,-10.048 0.318,-10.048 0.1,-10.048 0,-9.988 0,-9.671 Z" /></g><g
           transform="translate(294.3019,60.9095)"
           id="g214"><path
             id="path216"
             style="fill:#231f20;fill-opacity:1;fill-rule:nonzero;stroke:none"
             d="m 0,0 c -0.075,-0.529 -0.296,-0.932 -0.61,-1.201 -0.434,-0.295 -1.502,-0.589 -2.866,-0.589 -4.507,0 -6.934,2.709 -6.934,6.496 0,1.702 0.555,3.579 2.126,4.972 1.384,1.233 3.03,1.703 4.871,1.703 1.858,0 3.25,-0.662 3.599,-1.053 C 0.166,9.98 0.053,9.678 -0.11,9.52 -0.269,9.352 -0.548,9.399 -0.879,9.548 c -0.635,0.337 -1.533,0.575 -2.643,0.575 -2.67,0 -5.019,-1.866 -5.019,-5.304 0,-3.054 1.878,-5.321 5.399,-5.321 1.199,0 2.499,0.314 3.061,0.556 z" /></g><g
           transform="translate(301.2081,71.2977)"
           id="g218"><path
             id="path220"
             style="fill:#231f20;fill-opacity:1;fill-rule:nonzero;stroke:none"
             d="M 0,0 -0.138,0.531 C 0.226,0.626 0.812,0.75 1.395,0.75 1.641,0.452 1.893,-0.127 2.43,-1.499 l 2.84,-7.486 c 1.366,3.378 2.958,7.102 3.824,9.153 L 9.075,0.531 c 0.228,0.126 1.071,0.219 1.401,0.219 0.156,0 0.259,-0.106 0.326,-0.521 l 1.276,-7.48 c 0.364,-2.112 0.648,-3.601 0.86,-4.564 -0.295,-0.102 -1.041,-0.183 -1.357,-0.183 -0.24,0 -0.389,0.101 -0.429,0.402 -0.211,1.127 -0.347,2.032 -0.594,3.863 L 9.616,-1.636 C 8.847,-3.64 7.305,-7.543 5.921,-11.211 c -0.103,-0.286 -0.209,-0.447 -0.51,-0.534 -0.239,-0.068 -0.6,-0.123 -0.853,-0.123 -0.62,1.931 -2.496,7.051 -3.599,10.122 -0.434,-2.9 -1.32,-7.937 -1.643,-9.937 -0.066,-0.234 -0.152,-0.315 -0.339,-0.315 -0.294,0 -0.954,0 -1.263,0.183 C -1.887,-9.838 -0.904,-4.517 0,0" /></g><g
           transform="translate(322.0763,74.3837)"
           id="g222"><path
             id="path224"
             style="fill:#231f20;fill-opacity:1;fill-rule:nonzero;stroke:none"
             d="m 0,0 c 0.072,-0.203 -0.055,-0.318 -0.266,-0.367 -1.266,-0.369 -2.706,-0.925 -3.495,-1.21 -0.108,0.092 -0.211,0.239 -0.288,0.404 -0.099,0.208 -0.076,0.338 0.15,0.497 0.771,0.555 2.62,1.612 3.124,1.638 C -0.416,0.864 -0.075,0.3 0,0 m -6.081,-5.211 c 0,0.95 0,1.776 -0.053,2.534 0.386,0.114 0.977,0.235 1.519,0.282 H 0.314 C 0.239,-2.914 0.024,-3.287 -0.216,-3.516 -0.467,-3.648 -0.835,-3.648 -1.717,-3.648 H -4.353 V -7.871 H 0.159 C -0.092,-9.042 -0.433,-9.128 -1.1,-9.124 h -3.253 v -4.546 c 0.414,-0.12 1.378,-0.16 2.352,-0.16 0.912,0 2.118,0.013 2.889,0.094 l 0.04,-0.041 c -0.159,-0.581 -0.489,-1.056 -0.937,-1.22 -0.259,-0.046 -0.912,-0.087 -2.315,-0.087 -1.658,0 -2.966,0.087 -3.45,0.202 l -0.307,0.403 z" /></g><g
           transform="translate(323.5685,71.7591)"
           id="g226"><path
             id="path228"
             style="fill:#231f20;fill-opacity:1;fill-rule:nonzero;stroke:none"
             d="m 0,0 c 0.5,0.122 1.04,0.288 1.393,0.288 0.183,0 0.339,-0.18 0.67,-0.67 1.129,-1.669 1.777,-2.594 2.967,-4.274 1.217,1.649 2.272,3.208 3.173,4.503 0.23,0.315 0.349,0.441 0.535,0.441 0.247,0 0.857,-0.123 1.202,-0.3 l 0.061,-0.13 C 9.354,-1.065 7.649,-3.35 5.854,-5.789 c 2.577,-3.769 3.79,-5.459 4.436,-6.349 v -0.128 c -0.275,-0.115 -0.883,-0.242 -1.519,-0.242 -0.197,0 -0.399,0.066 -0.627,0.396 -0.821,1.178 -1.754,2.628 -3.358,4.968 -1.214,-1.778 -2.897,-4.162 -3.49,-5.042 -0.115,-0.187 -0.315,-0.273 -0.49,-0.273 -0.327,0 -1.011,0.074 -1.286,0.19 l -0.021,0.16 c 0.982,1.345 2.772,3.824 4.443,6.125 -1.211,1.835 -3.288,4.75 -4.043,5.791 z" /></g><g
           transform="translate(335.1388,69.3475)"
           id="g230"><path
             id="path232"
             style="fill:#231f20;fill-opacity:1;fill-rule:nonzero;stroke:none"
             d="M 0,0 C 0,1.348 -0.025,2.172 -0.065,2.542 0.207,2.601 1.073,2.7 1.413,2.7 1.692,2.7 1.729,2.558 1.729,1.663 v -9.088 c 0,-1.396 0.04,-2.058 0.058,-2.461 -0.305,-0.102 -1.139,-0.162 -1.467,-0.162 -0.217,0 -0.32,0.06 -0.32,0.377 z" /></g><g
           transform="translate(349.0978,60.9095)"
           id="g234"><path
             id="path236"
             style="fill:#231f20;fill-opacity:1;fill-rule:nonzero;stroke:none"
             d="m 0,0 c -0.077,-0.529 -0.298,-0.932 -0.609,-1.201 -0.436,-0.295 -1.503,-0.589 -2.867,-0.589 -4.507,0 -6.934,2.709 -6.934,6.496 0,1.702 0.553,3.579 2.126,4.972 1.383,1.233 3.031,1.703 4.873,1.703 1.855,0 3.246,-0.662 3.597,-1.053 C 0.167,9.98 0.053,9.678 -0.11,9.52 -0.271,9.352 -0.55,9.399 -0.881,9.548 c -0.633,0.337 -1.532,0.575 -2.642,0.575 -2.669,0 -5.019,-1.866 -5.019,-5.304 0,-3.054 1.879,-5.321 5.401,-5.321 1.198,0 2.498,0.314 3.058,0.556 z" /></g><g
           transform="translate(355.8116,71.1058)"
           id="g238"><path
             id="path240"
             style="fill:#231f20;fill-opacity:1;fill-rule:nonzero;stroke:none"
             d="m 0,0 c -2.487,-0.015 -4.5,-1.905 -4.5,-5.383 0,-3.524 2.321,-5.419 4.685,-5.419 2.542,0 4.494,1.807 4.494,5.419 C 4.679,-1.669 2.214,0 0.021,0 Z m 0.12,1.185 c 4.29,0 6.418,-3.311 6.418,-6.477 0,-3.458 -2.184,-6.694 -6.449,-6.694 -4.668,0 -6.468,3.701 -6.468,6.425 0,3.862 2.454,6.746 6.481,6.746 z" /></g><g
           transform="translate(460.4865,56.6649)"
           id="g242"><path
             id="path244"
             style="fill:#918f90;fill-opacity:1;fill-rule:nonzero;stroke:none"
             d="m 0,0 v 8.488 c 0,3.107 0.296,4.591 -2.94,4.591 -4.03,0 -3.734,-2.774 -3.734,-5.582 V 0 h -3.73 V 16.118 H -7.17 V 14.83 c 0.927,0.825 2.38,1.551 4.657,1.551 6.509,0 6.243,-4.096 6.243,-7.594 L 3.73,0 Z" /></g><g
           transform="translate(422.0421,59.4715)"
           id="g246"><path
             id="path248"
             style="fill:#918f90;fill-opacity:1;fill-rule:nonzero;stroke:none"
             d="m 0,0 c -2.543,0 -3.139,0.76 -3.139,2.146 0,1.72 0.729,2.114 3.007,2.114 H 4.195 C 4.195,1.454 3.832,0 0,0 m 0.925,13.575 c -2.687,0 -6.881,-0.883 -7.123,-3.743 -0.141,-0.693 0.163,-1.305 0.912,-1.739 0.988,-0.567 1.859,-0.313 2.416,0.65 0.049,0.084 0.088,0.165 0.125,0.247 0.927,1.466 2.109,1.414 3.471,1.414 3.27,0 3.403,-0.959 3.403,-3.104 L 0,7.3 c -3.436,0 -6.87,-0.529 -6.87,-5.218 0,-3.931 2.443,-5.152 6.275,-5.152 2.312,0 3.995,0.693 5.021,1.585 V -2.807 H 7.76 V 7.694 c 0,4.163 -2.508,5.881 -6.835,5.881" /></g><g
           transform="translate(481.0529,59.7045)"
           id="g250"><path
             id="path252"
             style="fill:#918f90;fill-opacity:1;fill-rule:nonzero;stroke:none"
             d="m 0,0 c -3.369,0 -3.766,1.319 -3.766,5.017 0,3.701 0.397,5.023 3.766,5.023 1.321,0 3.204,0 3.236,-1.784 h 0.006 c 0.005,-1.101 0.631,-1.75 1.767,-1.75 1.14,0 1.765,0.656 1.765,1.768 0,0.087 -0.003,0.169 -0.01,0.253 -0.161,4.116 -3.953,4.815 -6.864,4.815 -6.706,0 -7.398,-3.699 -7.398,-8.258 0,-4.557 0.692,-8.387 7.398,-8.387 2.974,0 6.871,0.725 6.871,5.085 H 3.236 C 3.204,0 1.321,0 0,0" /></g><path
           id="path254"
           style="fill:#918f90;fill-opacity:1;fill-rule:nonzero;stroke:none"
           d="m 467.001,72.971 h 3.784 V 56.623 h -3.784 z" /><g
           transform="translate(440.4015,59.7045)"
           id="g256"><path
             id="path258"
             style="fill:#918f90;fill-opacity:1;fill-rule:nonzero;stroke:none"
             d="m 0,0 c -3.368,0 -3.764,1.319 -3.764,5.017 0,3.701 0.396,5.023 3.764,5.023 1.322,0 3.204,0 3.237,-1.784 h 0.005 c 0.006,-1.101 0.633,-1.75 1.767,-1.75 1.14,0 1.767,0.656 1.767,1.768 0,0.087 -0.005,0.169 -0.011,0.253 -0.159,4.116 -3.952,4.815 -6.864,4.815 -6.705,0 -7.398,-3.699 -7.398,-8.258 0,-4.557 0.693,-8.387 7.398,-8.387 2.972,0 6.87,0.725 6.87,5.085 H 3.237 C 3.204,0 1.322,0 0,0" /></g><g
           transform="translate(410.712,61.4779)"
           id="g260"><path
             id="path262"
             style="fill:#918f90;fill-opacity:1;fill-rule:nonzero;stroke:none"
             d="M 0,0 0.012,17.107 H -3.722 L -3.724,1.06 c 0,-3.097 1.33,-4.872 3.724,-5.611 0.703,-0.219 1.502,-0.344 2.386,-0.388 v 3.257 C 0.564,-1.543 0.165,-0.964 0,0" /></g><g
           transform="translate(501.9806,63.9857)"
           id="g264"><path
             id="path266"
             style="fill:#c62624;fill-opacity:1;fill-rule:nonzero;stroke:none"
             d="m 0,0 c -5.816,0 -9.017,3.346 -9.017,9.018 0,5.819 3.348,8.875 9.017,8.875 5.674,0 9.018,-3.056 9.018,-8.875 C 9.018,3.346 5.818,0 0,0" /></g><g
           transform="translate(503.882,69.558)"
           id="g268"><path
             id="path270"
             style="fill:#f89c0e;fill-opacity:1;fill-rule:nonzero;stroke:none"
             d="m 0,0 c -3.491,0 -5.411,2.005 -5.411,5.41 0,3.491 2.007,5.324 5.411,5.324 3.403,0 5.409,-1.833 5.409,-5.324 C 5.409,2.005 3.49,0 0,0" /></g><g
           transform="translate(505.0206,72.2831)"
           id="g272"><path
             id="path274"
             style="fill:#3a9fcf;fill-opacity:1;fill-rule:nonzero;stroke:none"
             d="m 0,0 c -2.092,0 -3.244,1.204 -3.244,3.246 0,2.095 1.205,3.195 3.244,3.195 2.044,0 3.247,-1.1 3.247,-3.195 C 3.247,1.204 2.096,0 0,0" /></g><g
           transform="translate(499.587,51.058)"
           id="g276"><path
             id="path278"
             style="fill:#3a9fcf;fill-opacity:1;fill-rule:nonzero;stroke:none"
             d="m 0,0 c -3.492,0 -5.411,2.006 -5.411,5.409 0,3.492 2.008,5.324 5.411,5.324 3.404,0 5.409,-1.832 5.409,-5.324 C 5.409,2.006 3.489,0 0,0" /></g><g
           transform="translate(498.6954,52.37)"
           id="g280"><path
             id="path282"
             style="fill:#fde064;fill-opacity:1;fill-rule:nonzero;stroke:none"
             d="m 0,0 c -2.095,0 -3.246,1.203 -3.246,3.244 0,2.097 1.204,3.197 3.246,3.197 2.043,0 3.247,-1.1 3.247,-3.197 C 3.247,1.203 2.093,0 0,0" /></g><g
           transform="translate(498.3273,53.4422)"
           id="g284"><path
             id="path286"
             style="fill:#f89c0e;fill-opacity:1;fill-rule:nonzero;stroke:none"
             d="m 0,0 c -1.257,0 -1.949,0.721 -1.949,1.947 0,1.257 0.723,1.915 1.949,1.915 1.226,0 1.946,-0.658 1.946,-1.915 C 1.946,0.721 1.258,0 0,0" /></g><g
           transform="translate(491.129,81.2479)"
           id="g288"><path
             id="path290"
             style="fill:#3a9fcf;fill-opacity:1;fill-rule:nonzero;stroke:none"
             d="m 0,0 c -3.49,0 -5.408,2.006 -5.408,5.411 0,3.49 2.007,5.323 5.408,5.323 3.406,0 5.412,-1.833 5.412,-5.323 C 5.412,2.006 3.491,0 0,0" /></g><g
           transform="translate(491.7169,82.2811)"
           id="g292"><path
             id="path294"
             style="fill:#c62624;fill-opacity:1;fill-rule:nonzero;stroke:none"
             d="m 0,0 c -2.092,0 -3.246,1.206 -3.246,3.247 0,2.095 1.204,3.194 3.246,3.194 2.044,0 3.247,-1.099 3.247,-3.194 C 3.247,1.206 2.095,0 0,0" /></g><g
           transform="translate(492.2032,83.1473)"
           id="g296"><path
             id="path298"
             style="fill:#f89c0e;fill-opacity:1;fill-rule:nonzero;stroke:none"
             d="m 0,0 c -1.257,0 -1.947,0.722 -1.947,1.948 0,1.257 0.722,1.917 1.947,1.917 1.224,0 1.946,-0.66 1.946,-1.917 C 1.946,0.722 1.256,0 0,0" /></g><g
           transform="translate(498.9132,91.9081)"
           id="g300"><path
             id="path302"
             style="fill:#c62624;fill-opacity:1;fill-rule:nonzero;stroke:none"
             d="M 0,0 C -2.095,0 -3.247,1.203 -3.247,3.246 -3.247,5.34 -2.041,6.44 0,6.44 2.042,6.44 3.247,5.34 3.247,3.246 3.247,1.203 2.094,0 0,0" /></g><g
           transform="translate(498.379,92.6942)"
           id="g304"><path
             id="path306"
             style="fill:#fde064;fill-opacity:1;fill-rule:nonzero;stroke:none"
             d="m 0,0 c -1.256,0 -1.948,0.722 -1.948,1.947 0,1.257 0.722,1.917 1.948,1.917 1.225,0 1.947,-0.66 1.947,-1.917 C 1.947,0.722 1.256,0 0,0" /></g><g
           transform="translate(497.3917,42.4833)"
           id="g308"><path
             id="path310"
             style="fill:#f89c0e;fill-opacity:1;fill-rule:nonzero;stroke:none"
             d="m 0,0 c -2.098,0 -3.248,1.205 -3.248,3.247 0,2.096 1.205,3.196 3.248,3.196 2.04,0 3.244,-1.1 3.244,-3.196 C 3.244,1.205 2.092,0 0,0" /></g><g
           transform="translate(496.8556,43.2694)"
           id="g312"><path
             id="path314"
             style="fill:#c62624;fill-opacity:1;fill-rule:nonzero;stroke:none"
             d="m 0,0 c -1.256,0 -1.948,0.724 -1.948,1.949 0,1.259 0.723,1.917 1.948,1.917 1.227,0 1.946,-0.658 1.946,-1.917 C 1.946,0.724 1.256,0 0,0" /></g><g
           transform="translate(103.9923,63.9759)"
           id="g316"><path
             id="path318"
             style="fill:#231f20;fill-opacity:1;fill-rule:nonzero;stroke:none"
             d="M 0,0 C 1.588,0 2.382,0.695 2.382,2.067 2.382,3.44 1.588,4.119 0,4.119 H -3.093 V 0 Z m 0.066,5.524 c 2.58,0 3.92,-1.174 3.92,-3.457 0,-2.282 -1.34,-3.473 -3.92,-3.473 H -3.093 V -5.458 H -4.681 V 5.524 Z" /></g><g
           transform="translate(110.3077,62.388)"
           id="g320"><path
             id="path322"
             style="fill:#231f20;fill-opacity:1;fill-rule:nonzero;stroke:none"
             d="m 0,0 c 0,-1.638 1.092,-2.779 2.68,-2.779 1.571,0 2.679,1.141 2.679,2.779 0,1.637 -1.108,2.779 -2.679,2.779 C 1.092,2.779 0,1.637 0,0 m 6.782,0 c 0,-2.365 -1.704,-4.036 -4.102,-4.036 -2.399,0 -4.102,1.671 -4.102,4.036 0,2.365 1.703,4.036 4.102,4.036 2.398,0 4.102,-1.671 4.102,-4.036" /></g><g
           transform="translate(125.7716,58.5174)"
           id="g324"><path
             id="path326"
             style="fill:#231f20;fill-opacity:1;fill-rule:nonzero;stroke:none"
             d="M 0,0 -2.002,5.673 H -2.035 L -4.053,0 h -1.373 l -2.729,7.741 h 1.506 L -4.714,1.77 h 0.032 l 2.118,5.971 h 1.141 L 0.694,1.786 H 0.728 L 2.68,7.741 H 4.102 L 1.372,0 Z" /></g><g
           transform="translate(131.8214,63.099)"
           id="g328"><path
             id="path330"
             style="fill:#231f20;fill-opacity:1;fill-rule:nonzero;stroke:none"
             d="M 0,0 H 5.228 C 5.028,1.257 4.036,2.068 2.63,2.068 1.307,2.068 0.265,1.241 0,0 m 0,-1.174 c 0.199,-1.439 1.356,-2.316 3.11,-2.316 1.141,0 2.134,0.364 2.862,1.059 H 6.038 V -3.854 C 5.343,-4.416 4.284,-4.747 3.077,-4.747 c -2.729,0 -4.499,1.604 -4.499,4.036 0,2.365 1.67,4.036 4.035,4.036 2.383,0 3.921,-1.472 3.921,-3.722 v -0.777 z" /></g><g
           transform="translate(144.9025,66.1258)"
           id="g332"><path
             id="path334"
             style="fill:#231f20;fill-opacity:1;fill-rule:nonzero;stroke:none"
             d="m 0,0 v -1.406 h -0.065 c -0.331,0.232 -0.745,0.364 -1.208,0.364 -1.489,0 -2.2,-1.025 -2.2,-3.043 v -3.523 h -1.406 v 7.741 h 1.191 l 0.033,-1.241 h 0.033 c 0.463,0.926 1.273,1.406 2.448,1.406 C -0.661,0.298 -0.265,0.166 0,0" /></g><g
           transform="translate(146.9347,63.099)"
           id="g336"><path
             id="path338"
             style="fill:#231f20;fill-opacity:1;fill-rule:nonzero;stroke:none"
             d="M 0,0 H 5.228 C 5.028,1.257 4.036,2.068 2.63,2.068 1.307,2.068 0.265,1.241 0,0 m 0,-1.174 c 0.199,-1.439 1.356,-2.316 3.11,-2.316 1.141,0 2.134,0.364 2.862,1.059 H 6.038 V -3.854 C 5.343,-4.416 4.284,-4.747 3.077,-4.747 c -2.729,0 -4.499,1.604 -4.499,4.036 0,2.365 1.67,4.036 4.035,4.036 2.383,0 3.921,-1.472 3.921,-3.722 v -0.777 z" /></g><g
           transform="translate(161.422,62.388)"
           id="g340"><path
             id="path342"
             style="fill:#231f20;fill-opacity:1;fill-rule:nonzero;stroke:none"
             d="m 0,0 c 0,1.637 -1.108,2.779 -2.68,2.779 -1.588,0 -2.679,-1.142 -2.679,-2.779 0,-1.638 1.091,-2.779 2.679,-2.779 C -1.108,-2.779 0,-1.638 0,0 M 0.165,-3.871 0.116,-2.646 H 0.083 c -0.579,-0.861 -1.638,-1.39 -2.994,-1.39 -2.249,0 -3.87,1.687 -3.87,4.036 0,2.349 1.621,4.036 3.87,4.036 1.257,0 2.217,-0.43 2.828,-1.175 H -0.05 V 7.708 H 1.356 V -3.871 Z" /></g><g
           transform="translate(175.3116,62.388)"
           id="g344"><path
             id="path346"
             style="fill:#231f20;fill-opacity:1;fill-rule:nonzero;stroke:none"
             d="m 0,0 c 0,1.637 -1.107,2.779 -2.679,2.779 -1.588,0 -2.679,-1.142 -2.679,-2.779 0,-1.638 1.091,-2.779 2.679,-2.779 C -1.107,-2.779 0,-1.638 0,0 m 1.423,0 c 0,-2.349 -1.638,-4.036 -3.887,-4.036 -1.356,0 -2.398,0.513 -2.994,1.39 H -5.491 L -5.524,-3.871 H -6.715 V 7.708 h 1.406 v -4.83 h 0.033 c 0.612,0.728 1.571,1.158 2.812,1.158 2.249,0 3.887,-1.687 3.887,-4.036" /></g><g
           transform="translate(178.8654,55.3749)"
           id="g348"><path
             id="path350"
             style="fill:#231f20;fill-opacity:1;fill-rule:nonzero;stroke:none"
             d="m 0,0 1.571,3.424 -3.242,7.46 h 1.523 L 2.315,4.896 H 2.349 L 4.83,10.884 H 6.285 L 1.456,0 Z" /></g><g
           transform="translate(376.0656,62.869)"
           id="g352"><path
             id="path354"
             style="fill:#231f20;fill-opacity:1;fill-rule:nonzero;stroke:none"
             d="m 0,0 c 0,1.637 -1.108,2.779 -2.68,2.779 -1.588,0 -2.679,-1.142 -2.679,-2.779 0,-1.638 1.091,-2.779 2.679,-2.779 C -1.108,-2.779 0,-1.638 0,0 m 0.166,-3.871 -0.05,1.225 H 0.083 c -0.579,-0.861 -1.638,-1.39 -2.994,-1.39 -2.249,0 -3.87,1.687 -3.87,4.036 0,2.349 1.621,4.036 3.87,4.036 1.356,0 2.415,-0.53 2.994,-1.406 h 0.033 l 0.05,1.24 h 1.19 v -7.741 z" /></g><g
           transform="translate(386.8146,63.4974)"
           id="g356"><path
             id="path358"
             style="fill:#231f20;fill-opacity:1;fill-rule:nonzero;stroke:none"
             d="m 0,0 v -4.499 h -1.406 v 4.333 c 0,1.456 -0.794,2.316 -2.101,2.316 -1.439,0 -2.299,-0.992 -2.299,-2.629 v -4.02 h -1.406 v 7.741 h 1.191 l 0.033,-1.224 h 0.033 c 0.529,0.877 1.473,1.389 2.779,1.389 C -1.208,3.407 0,2.117 0,0" /></g><g
           transform="translate(395.0822,62.869)"
           id="g360"><path
             id="path362"
             style="fill:#231f20;fill-opacity:1;fill-rule:nonzero;stroke:none"
             d="m 0,0 c 0,1.637 -1.108,2.779 -2.68,2.779 -1.588,0 -2.679,-1.142 -2.679,-2.779 0,-1.638 1.091,-2.779 2.679,-2.779 C -1.108,-2.779 0,-1.638 0,0 M 0.165,-3.871 0.116,-2.646 H 0.083 c -0.579,-0.861 -1.638,-1.39 -2.994,-1.39 -2.249,0 -3.87,1.687 -3.87,4.036 0,2.349 1.621,4.036 3.87,4.036 1.257,0 2.217,-0.431 2.828,-1.175 H -0.05 V 7.708 H 1.356 V -3.871 Z" /></g></g></g></g></svg>