<?xml version="1.0" encoding="utf-8"?>
<svg version="1.1" xmlns="http://www.w3.org/2000/svg" x="0px" y="0px"
     viewBox="0 0 170 185" style="enable-background:new 0 0 170 185;" xml:space="preserve">
	<path fill="#66d394"
          d="M85,182L85,182c48.8-18.3,81.2-64.9,81.2-117.1V33.3c-16.7,0-30.3-13.6-30.3-30.3H85H34.1 c0,16.7-13.6,30.3-30.3,30.3v31.6C3.8,117.1,36.2,163.7,85,182L85,182z"/>
    <path fill="#5cc487"
          d="M85,182L85,182c48.8-18.3,81.2-64.9,81.2-117.1V33.3c-16.7,0-30.3-13.6-30.3-30.3H85C85,3,85,142.1,85,182 L85,182z"/>
    <polygon fill="white" points="73.7,124.1 46.8,97.1 61.6,82.3 73.7,94.4 108.4,59.7 123.2,74.5"/>
    <polygon fill="white" points="85,112.8 85,83.1 108.4,59.7 123.2,74.5"/>
</svg>
