<?xml version="1.0" encoding="UTF-8" standalone="no"?>
<svg
        xmlns:dc="http://purl.org/dc/elements/1.1/"
        xmlns:cc="http://creativecommons.org/ns#"
        xmlns:rdf="http://www.w3.org/1999/02/22-rdf-syntax-ns#"
        xmlns="http://www.w3.org/2000/svg"
        viewBox="130 340 555 85"
        style="enable-background:new 130 340 555 85;"

        xml:space="preserve"
        id="svg2"
        version="1.1"><metadata
     id="metadata8"><rdf:RDF><cc:Work
         rdf:about=""><dc:format>image/svg+xml</dc:format><dc:type
           rdf:resource="http://purl.org/dc/dcmitype/StillImage" /></cc:Work></rdf:RDF></metadata><defs
     id="defs6"><clipPath
       id="clipPath18"
       clipPathUnits="userSpaceOnUse"><path
         id="path16"
         d="M 0,357.546 H 612 V 0 H 0 Z" /></clipPath></defs><g
     transform="matrix(1.3333333,0,0,-1.3333333,0,476.728)"
     id="g10"><g
       id="g12"><g
         clip-path="url(#clipPath18)"
         id="g14"><g
           transform="translate(194.6993,71.8373)"
           id="g194"><path
             id="path196"
             style="fill:#898989;fill-opacity:1;fill-rule:nonzero;stroke:none"
             d="m 0,0 c 0,0 5.758,-0.567 10.862,-6.538 0,0 3.201,-3.201 3.981,-9.343 0.778,-6.145 3.98,-14.97 8.219,-15.314 4.239,-0.347 9.032,2.884 10.986,6.142 2.337,3.893 -2.074,11.421 -6.661,16.699 0,0 -11.94,16.352 -22.495,12.285 C 4.892,3.931 1.078,1.951 0,0" /></g><g
           transform="translate(222.4513,66.2123)"
           id="g198"><path
             id="path200"
             style="fill:#898989;fill-opacity:1;fill-rule:nonzero;stroke:none"
             d="m 0,0 c -1.632,6.342 -0.972,10.2 -0.165,12.286 -1.307,0.582 -2.723,0.966 -4.261,1.099 l -2.048,0.174 C -8.171,12.006 -9.322,10.45 -10.09,9.138 -5.548,6.312 -1.835,2.222 0,0" /></g><g
           transform="translate(218.1925,81.5653)"
           id="g202"><path
             id="path204"
             style="fill:#898989;fill-opacity:1;fill-rule:nonzero;stroke:none"
             d="m 0,0 c 0,0 7.199,5.787 17.91,2.337 7.788,-2.508 17.823,-9.086 24.89,-24.874 0,0 -3.646,-15.078 -22.185,-7.216 0,0 -3.396,28.283 -20.615,29.753" /></g><g
           transform="translate(267.6193,71.0961)"
           id="g206"><path
             id="path208"
             style="fill:#ffffff;fill-opacity:1;fill-rule:nonzero;stroke:none"
             d="m 0,0 -0.498,0.637 v 0.156 c 0.258,0.06 1.248,0.158 1.534,0.158 0.144,0 0.33,-0.114 0.506,-0.347 0.686,-0.833 2.748,-3.713 4.824,-6.531 1.033,-1.425 1.876,-2.573 2.416,-3.597 -0.11,2.056 -0.12,3.239 -0.12,4.253 v 5.569 c 0,0.463 0.114,0.544 0.367,0.574 0.59,0.074 0.774,0.079 1.157,0.079 -0.041,-0.863 -0.062,-2.03 -0.062,-3.699 v -8.891 c -0.127,-0.085 -0.813,-0.289 -1.171,-0.289 -0.139,0 -0.305,0.117 -0.316,0.139 -1.355,1.817 -3.319,4.516 -5.089,6.955 -0.704,1.062 -1.414,2.116 -2.19,3.4 0.094,-2.418 0.106,-3.484 0.106,-4.51 v -5.168 c 0,-0.482 -0.121,-0.543 -0.408,-0.603 C 0.75,-11.777 0.28,-11.804 -0.062,-11.796 -0.021,-10.992 0,-9.825 0,-8.136 Z" /></g><g
           transform="translate(280.3458,69.3475)"
           id="g210"><path
             id="path212"
             style="fill:#ffffff;fill-opacity:1;fill-rule:nonzero;stroke:none"
             d="M 0,0 C 0,1.348 -0.027,2.172 -0.068,2.542 0.203,2.601 1.071,2.7 1.41,2.7 1.692,2.7 1.726,2.558 1.726,1.663 v -9.088 c 0,-1.396 0.041,-2.058 0.061,-2.461 C 1.48,-9.988 0.646,-10.048 0.318,-10.048 0.1,-10.048 0,-9.988 0,-9.671 Z" /></g><g
           transform="translate(294.3019,60.9095)"
           id="g214"><path
             id="path216"
             style="fill:#ffffff;fill-opacity:1;fill-rule:nonzero;stroke:none"
             d="m 0,0 c -0.075,-0.529 -0.296,-0.932 -0.61,-1.201 -0.434,-0.295 -1.502,-0.589 -2.866,-0.589 -4.507,0 -6.934,2.709 -6.934,6.496 0,1.702 0.555,3.579 2.126,4.972 1.384,1.233 3.03,1.703 4.871,1.703 1.858,0 3.25,-0.662 3.599,-1.053 C 0.166,9.98 0.053,9.678 -0.11,9.52 -0.269,9.352 -0.548,9.399 -0.879,9.548 c -0.635,0.337 -1.533,0.575 -2.643,0.575 -2.67,0 -5.019,-1.866 -5.019,-5.304 0,-3.054 1.878,-5.321 5.399,-5.321 1.199,0 2.499,0.314 3.061,0.556 z" /></g><g
           transform="translate(301.2081,71.2977)"
           id="g218"><path
             id="path220"
             style="fill:#ffffff;fill-opacity:1;fill-rule:nonzero;stroke:none"
             d="M 0,0 -0.138,0.531 C 0.226,0.626 0.812,0.75 1.395,0.75 1.641,0.452 1.893,-0.127 2.43,-1.499 l 2.84,-7.486 c 1.366,3.378 2.958,7.102 3.824,9.153 L 9.075,0.531 c 0.228,0.126 1.071,0.219 1.401,0.219 0.156,0 0.259,-0.106 0.326,-0.521 l 1.276,-7.48 c 0.364,-2.112 0.648,-3.601 0.86,-4.564 -0.295,-0.102 -1.041,-0.183 -1.357,-0.183 -0.24,0 -0.389,0.101 -0.429,0.402 -0.211,1.127 -0.347,2.032 -0.594,3.863 L 9.616,-1.636 C 8.847,-3.64 7.305,-7.543 5.921,-11.211 c -0.103,-0.286 -0.209,-0.447 -0.51,-0.534 -0.239,-0.068 -0.6,-0.123 -0.853,-0.123 -0.62,1.931 -2.496,7.051 -3.599,10.122 -0.434,-2.9 -1.32,-7.937 -1.643,-9.937 -0.066,-0.234 -0.152,-0.315 -0.339,-0.315 -0.294,0 -0.954,0 -1.263,0.183 C -1.887,-9.838 -0.904,-4.517 0,0" /></g><g
           transform="translate(322.0763,74.3837)"
           id="g222"><path
             id="path224"
             style="fill:#ffffff;fill-opacity:1;fill-rule:nonzero;stroke:none"
             d="m 0,0 c 0.072,-0.203 -0.055,-0.318 -0.266,-0.367 -1.266,-0.369 -2.706,-0.925 -3.495,-1.21 -0.108,0.092 -0.211,0.239 -0.288,0.404 -0.099,0.208 -0.076,0.338 0.15,0.497 0.771,0.555 2.62,1.612 3.124,1.638 C -0.416,0.864 -0.075,0.3 0,0 m -6.081,-5.211 c 0,0.95 0,1.776 -0.053,2.534 0.386,0.114 0.977,0.235 1.519,0.282 H 0.314 C 0.239,-2.914 0.024,-3.287 -0.216,-3.516 -0.467,-3.648 -0.835,-3.648 -1.717,-3.648 H -4.353 V -7.871 H 0.159 C -0.092,-9.042 -0.433,-9.128 -1.1,-9.124 h -3.253 v -4.546 c 0.414,-0.12 1.378,-0.16 2.352,-0.16 0.912,0 2.118,0.013 2.889,0.094 l 0.04,-0.041 c -0.159,-0.581 -0.489,-1.056 -0.937,-1.22 -0.259,-0.046 -0.912,-0.087 -2.315,-0.087 -1.658,0 -2.966,0.087 -3.45,0.202 l -0.307,0.403 z" /></g><g
           transform="translate(323.5685,71.7591)"
           id="g226"><path
             id="path228"
             style="fill:#ffffff;fill-opacity:1;fill-rule:nonzero;stroke:none"
             d="m 0,0 c 0.5,0.122 1.04,0.288 1.393,0.288 0.183,0 0.339,-0.18 0.67,-0.67 1.129,-1.669 1.777,-2.594 2.967,-4.274 1.217,1.649 2.272,3.208 3.173,4.503 0.23,0.315 0.349,0.441 0.535,0.441 0.247,0 0.857,-0.123 1.202,-0.3 l 0.061,-0.13 C 9.354,-1.065 7.649,-3.35 5.854,-5.789 c 2.577,-3.769 3.79,-5.459 4.436,-6.349 v -0.128 c -0.275,-0.115 -0.883,-0.242 -1.519,-0.242 -0.197,0 -0.399,0.066 -0.627,0.396 -0.821,1.178 -1.754,2.628 -3.358,4.968 -1.214,-1.778 -2.897,-4.162 -3.49,-5.042 -0.115,-0.187 -0.315,-0.273 -0.49,-0.273 -0.327,0 -1.011,0.074 -1.286,0.19 l -0.021,0.16 c 0.982,1.345 2.772,3.824 4.443,6.125 -1.211,1.835 -3.288,4.75 -4.043,5.791 z" /></g><g
           transform="translate(335.1388,69.3475)"
           id="g230"><path
             id="path232"
             style="fill:#ffffff;fill-opacity:1;fill-rule:nonzero;stroke:none"
             d="M 0,0 C 0,1.348 -0.025,2.172 -0.065,2.542 0.207,2.601 1.073,2.7 1.413,2.7 1.692,2.7 1.729,2.558 1.729,1.663 v -9.088 c 0,-1.396 0.04,-2.058 0.058,-2.461 -0.305,-0.102 -1.139,-0.162 -1.467,-0.162 -0.217,0 -0.32,0.06 -0.32,0.377 z" /></g><g
           transform="translate(349.0978,60.9095)"
           id="g234"><path
             id="path236"
             style="fill:#ffffff;fill-opacity:1;fill-rule:nonzero;stroke:none"
             d="m 0,0 c -0.077,-0.529 -0.298,-0.932 -0.609,-1.201 -0.436,-0.295 -1.503,-0.589 -2.867,-0.589 -4.507,0 -6.934,2.709 -6.934,6.496 0,1.702 0.553,3.579 2.126,4.972 1.383,1.233 3.031,1.703 4.873,1.703 1.855,0 3.246,-0.662 3.597,-1.053 C 0.167,9.98 0.053,9.678 -0.11,9.52 -0.271,9.352 -0.55,9.399 -0.881,9.548 c -0.633,0.337 -1.532,0.575 -2.642,0.575 -2.669,0 -5.019,-1.866 -5.019,-5.304 0,-3.054 1.879,-5.321 5.401,-5.321 1.198,0 2.498,0.314 3.058,0.556 z" /></g><g
           transform="translate(355.8116,71.1058)"
           id="g238"><path
             id="path240"
             style="fill:#ffffff;fill-opacity:1;fill-rule:nonzero;stroke:none"
             d="m 0,0 c -2.487,-0.015 -4.5,-1.905 -4.5,-5.383 0,-3.524 2.321,-5.419 4.685,-5.419 2.542,0 4.494,1.807 4.494,5.419 C 4.679,-1.669 2.214,0 0.021,0 Z m 0.12,1.185 c 4.29,0 6.418,-3.311 6.418,-6.477 0,-3.458 -2.184,-6.694 -6.449,-6.694 -4.668,0 -6.468,3.701 -6.468,6.425 0,3.862 2.454,6.746 6.481,6.746 z" /></g><g
           transform="translate(460.4865,56.6649)"
           id="g242"><path
             id="path244"
             style="fill:#918f90;fill-opacity:1;fill-rule:nonzero;stroke:none"
             d="m 0,0 v 8.488 c 0,3.107 0.296,4.591 -2.94,4.591 -4.03,0 -3.734,-2.774 -3.734,-5.582 V 0 h -3.73 V 16.118 H -7.17 V 14.83 c 0.927,0.825 2.38,1.551 4.657,1.551 6.509,0 6.243,-4.096 6.243,-7.594 L 3.73,0 Z" /></g><g
           transform="translate(422.0421,59.4715)"
           id="g246"><path
             id="path248"
             style="fill:#918f90;fill-opacity:1;fill-rule:nonzero;stroke:none"
             d="m 0,0 c -2.543,0 -3.139,0.76 -3.139,2.146 0,1.72 0.729,2.114 3.007,2.114 H 4.195 C 4.195,1.454 3.832,0 0,0 m 0.925,13.575 c -2.687,0 -6.881,-0.883 -7.123,-3.743 -0.141,-0.693 0.163,-1.305 0.912,-1.739 0.988,-0.567 1.859,-0.313 2.416,0.65 0.049,0.084 0.088,0.165 0.125,0.247 0.927,1.466 2.109,1.414 3.471,1.414 3.27,0 3.403,-0.959 3.403,-3.104 L 0,7.3 c -3.436,0 -6.87,-0.529 -6.87,-5.218 0,-3.931 2.443,-5.152 6.275,-5.152 2.312,0 3.995,0.693 5.021,1.585 V -2.807 H 7.76 V 7.694 c 0,4.163 -2.508,5.881 -6.835,5.881" /></g><g
           transform="translate(481.0529,59.7045)"
           id="g250"><path
             id="path252"
             style="fill:#918f90;fill-opacity:1;fill-rule:nonzero;stroke:none"
             d="m 0,0 c -3.369,0 -3.766,1.319 -3.766,5.017 0,3.701 0.397,5.023 3.766,5.023 1.321,0 3.204,0 3.236,-1.784 h 0.006 c 0.005,-1.101 0.631,-1.75 1.767,-1.75 1.14,0 1.765,0.656 1.765,1.768 0,0.087 -0.003,0.169 -0.01,0.253 -0.161,4.116 -3.953,4.815 -6.864,4.815 -6.706,0 -7.398,-3.699 -7.398,-8.258 0,-4.557 0.692,-8.387 7.398,-8.387 2.974,0 6.871,0.725 6.871,5.085 H 3.236 C 3.204,0 1.321,0 0,0" /></g><path
           id="path254"
           style="fill:#918f90;fill-opacity:1;fill-rule:nonzero;stroke:none"
           d="m 467.001,72.971 h 3.784 V 56.623 h -3.784 z" /><g
           transform="translate(440.4015,59.7045)"
           id="g256"><path
             id="path258"
             style="fill:#918f90;fill-opacity:1;fill-rule:nonzero;stroke:none"
             d="m 0,0 c -3.368,0 -3.764,1.319 -3.764,5.017 0,3.701 0.396,5.023 3.764,5.023 1.322,0 3.204,0 3.237,-1.784 h 0.005 c 0.006,-1.101 0.633,-1.75 1.767,-1.75 1.14,0 1.767,0.656 1.767,1.768 0,0.087 -0.005,0.169 -0.011,0.253 -0.159,4.116 -3.952,4.815 -6.864,4.815 -6.705,0 -7.398,-3.699 -7.398,-8.258 0,-4.557 0.693,-8.387 7.398,-8.387 2.972,0 6.87,0.725 6.87,5.085 H 3.237 C 3.204,0 1.322,0 0,0" /></g><g
           transform="translate(410.712,61.4779)"
           id="g260"><path
             id="path262"
             style="fill:#918f90;fill-opacity:1;fill-rule:nonzero;stroke:none"
             d="M 0,0 0.012,17.107 H -3.722 L -3.724,1.06 c 0,-3.097 1.33,-4.872 3.724,-5.611 0.703,-0.219 1.502,-0.344 2.386,-0.388 v 3.257 C 0.564,-1.543 0.165,-0.964 0,0" /></g><g
           transform="translate(501.9806,63.9857)"
           id="g264"><path
             id="path266"
             style="fill:#5B5B5B;fill-opacity:1;fill-rule:nonzero;stroke:none"
             d="m 0,0 c -5.816,0 -9.017,3.346 -9.017,9.018 0,5.819 3.348,8.875 9.017,8.875 5.674,0 9.018,-3.056 9.018,-8.875 C 9.018,3.346 5.818,0 0,0" /></g><g
           transform="translate(503.882,69.558)"
           id="g268"><path
             id="path270"
             style="fill:#7D7D7D;fill-opacity:1;fill-rule:nonzero;stroke:none"
             d="m 0,0 c -3.491,0 -5.411,2.005 -5.411,5.41 0,3.491 2.007,5.324 5.411,5.324 3.403,0 5.409,-1.833 5.409,-5.324 C 5.409,2.005 3.49,0 0,0" /></g><g
           transform="translate(505.0206,72.2831)"
           id="g272"><path
             id="path274"
             style="fill:#8D8D8D;fill-opacity:1;fill-rule:nonzero;stroke:none"
             d="m 0,0 c -2.092,0 -3.244,1.204 -3.244,3.246 0,2.095 1.205,3.195 3.244,3.195 2.044,0 3.247,-1.1 3.247,-3.195 C 3.247,1.204 2.096,0 0,0" /></g><g
           transform="translate(499.587,51.058)"
           id="g276"><path
             id="path278"
             style="fill:#8D8D8D;fill-opacity:1;fill-rule:nonzero;stroke:none"
             d="m 0,0 c -3.492,0 -5.411,2.006 -5.411,5.409 0,3.492 2.008,5.324 5.411,5.324 3.404,0 5.409,-1.832 5.409,-5.324 C 5.409,2.006 3.489,0 0,0" /></g><g
           transform="translate(498.6954,52.37)"
           id="g280"><path
             id="path282"
             style="fill:#BFBFBF;fill-opacity:1;fill-rule:nonzero;stroke:none"
             d="m 0,0 c -2.095,0 -3.246,1.203 -3.246,3.244 0,2.097 1.204,3.197 3.246,3.197 2.043,0 3.247,-1.1 3.247,-3.197 C 3.247,1.203 2.093,0 0,0" /></g><g
           transform="translate(498.3273,53.4422)"
           id="g284"><path
             id="path286"
             style="fill:#7D7D7D;fill-opacity:1;fill-rule:nonzero;stroke:none"
             d="m 0,0 c -1.257,0 -1.949,0.721 -1.949,1.947 0,1.257 0.723,1.915 1.949,1.915 1.226,0 1.946,-0.658 1.946,-1.915 C 1.946,0.721 1.258,0 0,0" /></g><g
           transform="translate(491.129,81.2479)"
           id="g288"><path
             id="path290"
             style="fill:#8D8D8D;fill-opacity:1;fill-rule:nonzero;stroke:none"
             d="m 0,0 c -3.49,0 -5.408,2.006 -5.408,5.411 0,3.49 2.007,5.323 5.408,5.323 3.406,0 5.412,-1.833 5.412,-5.323 C 5.412,2.006 3.491,0 0,0" /></g><g
           transform="translate(491.7169,82.2811)"
           id="g292"><path
             id="path294"
             style="fill:#5B5B5B;fill-opacity:1;fill-rule:nonzero;stroke:none"
             d="m 0,0 c -2.092,0 -3.246,1.206 -3.246,3.247 0,2.095 1.204,3.194 3.246,3.194 2.044,0 3.247,-1.099 3.247,-3.194 C 3.247,1.206 2.095,0 0,0" /></g><g
           transform="translate(492.2032,83.1473)"
           id="g296"><path
             id="path298"
             style="fill:#7D7D7D;fill-opacity:1;fill-rule:nonzero;stroke:none"
             d="m 0,0 c -1.257,0 -1.947,0.722 -1.947,1.948 0,1.257 0.722,1.917 1.947,1.917 1.224,0 1.946,-0.66 1.946,-1.917 C 1.946,0.722 1.256,0 0,0" /></g><g
           transform="translate(498.9132,91.9081)"
           id="g300"><path
             id="path302"
             style="fill:#5B5B5B;fill-opacity:1;fill-rule:nonzero;stroke:none"
             d="M 0,0 C -2.095,0 -3.247,1.203 -3.247,3.246 -3.247,5.34 -2.041,6.44 0,6.44 2.042,6.44 3.247,5.34 3.247,3.246 3.247,1.203 2.094,0 0,0" /></g><g
           transform="translate(498.379,92.6942)"
           id="g304"><path
             id="path306"
             style="fill:#BFBFBF;fill-opacity:1;fill-rule:nonzero;stroke:none"
             d="m 0,0 c -1.256,0 -1.948,0.722 -1.948,1.947 0,1.257 0.722,1.917 1.948,1.917 1.225,0 1.947,-0.66 1.947,-1.917 C 1.947,0.722 1.256,0 0,0" /></g><g
           transform="translate(497.3917,42.4833)"
           id="g308"><path
             id="path310"
             style="fill:#7D7D7D;fill-opacity:1;fill-rule:nonzero;stroke:none"
             d="m 0,0 c -2.098,0 -3.248,1.205 -3.248,3.247 0,2.096 1.205,3.196 3.248,3.196 2.04,0 3.244,-1.1 3.244,-3.196 C 3.244,1.205 2.092,0 0,0" /></g><g
           transform="translate(496.8556,43.2694)"
           id="g312"><path
             id="path314"
             style="fill:#5B5B5B;fill-opacity:1;fill-rule:nonzero;stroke:none"
             d="m 0,0 c -1.256,0 -1.948,0.724 -1.948,1.949 0,1.259 0.723,1.917 1.948,1.917 1.227,0 1.946,-0.658 1.946,-1.917 C 1.946,0.724 1.256,0 0,0" /></g><g
           transform="translate(103.9923,63.9759)"
           id="g316"><path
             id="path318"
             style="fill:#ffffff;fill-opacity:1;fill-rule:nonzero;stroke:none"
             d="M 0,0 C 1.588,0 2.382,0.695 2.382,2.067 2.382,3.44 1.588,4.119 0,4.119 H -3.093 V 0 Z m 0.066,5.524 c 2.58,0 3.92,-1.174 3.92,-3.457 0,-2.282 -1.34,-3.473 -3.92,-3.473 H -3.093 V -5.458 H -4.681 V 5.524 Z" /></g><g
           transform="translate(110.3077,62.388)"
           id="g320"><path
             id="path322"
             style="fill:#ffffff;fill-opacity:1;fill-rule:nonzero;stroke:none"
             d="m 0,0 c 0,-1.638 1.092,-2.779 2.68,-2.779 1.571,0 2.679,1.141 2.679,2.779 0,1.637 -1.108,2.779 -2.679,2.779 C 1.092,2.779 0,1.637 0,0 m 6.782,0 c 0,-2.365 -1.704,-4.036 -4.102,-4.036 -2.399,0 -4.102,1.671 -4.102,4.036 0,2.365 1.703,4.036 4.102,4.036 2.398,0 4.102,-1.671 4.102,-4.036" /></g><g
           transform="translate(125.7716,58.5174)"
           id="g324"><path
             id="path326"
             style="fill:#ffffff;fill-opacity:1;fill-rule:nonzero;stroke:none"
             d="M 0,0 -2.002,5.673 H -2.035 L -4.053,0 h -1.373 l -2.729,7.741 h 1.506 L -4.714,1.77 h 0.032 l 2.118,5.971 h 1.141 L 0.694,1.786 H 0.728 L 2.68,7.741 H 4.102 L 1.372,0 Z" /></g><g
           transform="translate(131.8214,63.099)"
           id="g328"><path
             id="path330"
             style="fill:#ffffff;fill-opacity:1;fill-rule:nonzero;stroke:none"
             d="M 0,0 H 5.228 C 5.028,1.257 4.036,2.068 2.63,2.068 1.307,2.068 0.265,1.241 0,0 m 0,-1.174 c 0.199,-1.439 1.356,-2.316 3.11,-2.316 1.141,0 2.134,0.364 2.862,1.059 H 6.038 V -3.854 C 5.343,-4.416 4.284,-4.747 3.077,-4.747 c -2.729,0 -4.499,1.604 -4.499,4.036 0,2.365 1.67,4.036 4.035,4.036 2.383,0 3.921,-1.472 3.921,-3.722 v -0.777 z" /></g><g
           transform="translate(144.9025,66.1258)"
           id="g332"><path
             id="path334"
             style="fill:#ffffff;fill-opacity:1;fill-rule:nonzero;stroke:none"
             d="m 0,0 v -1.406 h -0.065 c -0.331,0.232 -0.745,0.364 -1.208,0.364 -1.489,0 -2.2,-1.025 -2.2,-3.043 v -3.523 h -1.406 v 7.741 h 1.191 l 0.033,-1.241 h 0.033 c 0.463,0.926 1.273,1.406 2.448,1.406 C -0.661,0.298 -0.265,0.166 0,0" /></g><g
           transform="translate(146.9347,63.099)"
           id="g336"><path
             id="path338"
             style="fill:#ffffff;fill-opacity:1;fill-rule:nonzero;stroke:none"
             d="M 0,0 H 5.228 C 5.028,1.257 4.036,2.068 2.63,2.068 1.307,2.068 0.265,1.241 0,0 m 0,-1.174 c 0.199,-1.439 1.356,-2.316 3.11,-2.316 1.141,0 2.134,0.364 2.862,1.059 H 6.038 V -3.854 C 5.343,-4.416 4.284,-4.747 3.077,-4.747 c -2.729,0 -4.499,1.604 -4.499,4.036 0,2.365 1.67,4.036 4.035,4.036 2.383,0 3.921,-1.472 3.921,-3.722 v -0.777 z" /></g><g
           transform="translate(161.422,62.388)"
           id="g340"><path
             id="path342"
             style="fill:#ffffff;fill-opacity:1;fill-rule:nonzero;stroke:none"
             d="m 0,0 c 0,1.637 -1.108,2.779 -2.68,2.779 -1.588,0 -2.679,-1.142 -2.679,-2.779 0,-1.638 1.091,-2.779 2.679,-2.779 C -1.108,-2.779 0,-1.638 0,0 M 0.165,-3.871 0.116,-2.646 H 0.083 c -0.579,-0.861 -1.638,-1.39 -2.994,-1.39 -2.249,0 -3.87,1.687 -3.87,4.036 0,2.349 1.621,4.036 3.87,4.036 1.257,0 2.217,-0.43 2.828,-1.175 H -0.05 V 7.708 H 1.356 V -3.871 Z" /></g><g
           transform="translate(175.3116,62.388)"
           id="g344"><path
             id="path346"
             style="fill:#ffffff;fill-opacity:1;fill-rule:nonzero;stroke:none"
             d="m 0,0 c 0,1.637 -1.107,2.779 -2.679,2.779 -1.588,0 -2.679,-1.142 -2.679,-2.779 0,-1.638 1.091,-2.779 2.679,-2.779 C -1.107,-2.779 0,-1.638 0,0 m 1.423,0 c 0,-2.349 -1.638,-4.036 -3.887,-4.036 -1.356,0 -2.398,0.513 -2.994,1.39 H -5.491 L -5.524,-3.871 H -6.715 V 7.708 h 1.406 v -4.83 h 0.033 c 0.612,0.728 1.571,1.158 2.812,1.158 2.249,0 3.887,-1.687 3.887,-4.036" /></g><g
           transform="translate(178.8654,55.3749)"
           id="g348"><path
             id="path350"
             style="fill:#ffffff;fill-opacity:1;fill-rule:nonzero;stroke:none"
             d="m 0,0 1.571,3.424 -3.242,7.46 h 1.523 L 2.315,4.896 H 2.349 L 4.83,10.884 H 6.285 L 1.456,0 Z" /></g><g
           transform="translate(376.0656,62.869)"
           id="g352"><path
             id="path354"
             style="fill:#ffffff;fill-opacity:1;fill-rule:nonzero;stroke:none"
             d="m 0,0 c 0,1.637 -1.108,2.779 -2.68,2.779 -1.588,0 -2.679,-1.142 -2.679,-2.779 0,-1.638 1.091,-2.779 2.679,-2.779 C -1.108,-2.779 0,-1.638 0,0 m 0.166,-3.871 -0.05,1.225 H 0.083 c -0.579,-0.861 -1.638,-1.39 -2.994,-1.39 -2.249,0 -3.87,1.687 -3.87,4.036 0,2.349 1.621,4.036 3.87,4.036 1.356,0 2.415,-0.53 2.994,-1.406 h 0.033 l 0.05,1.24 h 1.19 v -7.741 z" /></g><g
           transform="translate(386.8146,63.4974)"
           id="g356"><path
             id="path358"
             style="fill:#ffffff;fill-opacity:1;fill-rule:nonzero;stroke:none"
             d="m 0,0 v -4.499 h -1.406 v 4.333 c 0,1.456 -0.794,2.316 -2.101,2.316 -1.439,0 -2.299,-0.992 -2.299,-2.629 v -4.02 h -1.406 v 7.741 h 1.191 l 0.033,-1.224 h 0.033 c 0.529,0.877 1.473,1.389 2.779,1.389 C -1.208,3.407 0,2.117 0,0" /></g><g
           transform="translate(395.0822,62.869)"
           id="g360"><path
             id="path362"
             style="fill:#ffffff;fill-opacity:1;fill-rule:nonzero;stroke:none"
             d="m 0,0 c 0,1.637 -1.108,2.779 -2.68,2.779 -1.588,0 -2.679,-1.142 -2.679,-2.779 0,-1.638 1.091,-2.779 2.679,-2.779 C -1.108,-2.779 0,-1.638 0,0 M 0.165,-3.871 0.116,-2.646 H 0.083 c -0.579,-0.861 -1.638,-1.39 -2.994,-1.39 -2.249,0 -3.87,1.687 -3.87,4.036 0,2.349 1.621,4.036 3.87,4.036 1.257,0 2.217,-0.431 2.828,-1.175 H -0.05 V 7.708 H 1.356 V -3.871 Z" /></g></g></g></g></svg>