<?xml version="1.0" encoding="utf-8"?>
<!-- Generator: Adobe Illustrator 23.0.2, SVG Export Plug-In . SVG Version: 6.00 Build 0)  -->
<svg version="1.1" id="Capa_1" xmlns="http://www.w3.org/2000/svg" x="0px"
     y="0px"
     viewBox="0 0 126 54" style="enable-background:new 0 0 126 54;" xml:space="preserve">
<style type="text/css">
	.st0{fill:#FFFFFF;}
	.st1{fill:#44C8F5;}
</style>
    <g>
	<g>
		<g>
			<path class="st0" d="M53.3,21.5c0.1,0.7,0.1,1.3,0.1,2.1c0,3.8-0.9,6.5-2.7,8.1c-1.8,1.7-3.8,2.5-6.1,2.5c-2.9,0-4.9-0.9-6.2-2.7
				c-0.9-1.3-1.5-2.9-1.7-5l-6.2-5.2c-1.2-1.1-1.7-2.1-1.3-3.2c0.2-0.6,0.9-1.5,2.8-1.5c1.3,0,3,0.4,4.1,1.3l1,0.9
				c0.4-1.2,1-2.2,1.8-3c1.6-1.7,3.6-2.5,6-2.5c1.1,0,2.1,0.1,3,0.4c1.8-2.6,3.6-5.1,5.6-7.5C51.2,5.4,48.6,5,45.7,5
				C40,5,35.2,6.8,31.3,10.3c-3.9,3.6-5.9,8.2-5.9,14s1.6,10.4,4.7,13.5c3.2,3.2,7.8,4.8,14,4.8c5.8,0,10.7-1.8,14.5-5.4
				s5.8-8.3,5.8-14c0-5.2-1.2-9.2-3.6-12.2C58.1,14.3,55.6,17.8,53.3,21.5"/>
            <polygon class="st0" points="14.8,13.5 14.8,19.3 20.7,19.3 20.7,27.5 14.8,27.5 14.8,42.5 3.5,42.5 3.5,4.9 25.5,4.9 25.5,13.5
							"/>
            <path class="st0" d="M85.7,42.5l-7.4-14.4h-0.4v14.4H67V5.1c1.4,0,4.6,0,7.6-0.1s4.9-0.1,5.7-0.1c4.7,0,8.3,0.9,10.7,2.7
				c2.4,1.8,3.6,4.7,3.6,8.6c0,2.2-0.6,4.2-1.7,6c-1.2,1.8-2.8,3.1-4.8,3.8l2.6,4.2l7.2,12.2L85.7,42.5L85.7,42.5z M79.7,13.1h-1.9
				v7.8l1.7,0.2c1.4,0,2.6-0.4,3.4-1.1c0.8-0.7,1.2-1.7,1.2-3.1c0-1.2-0.3-2.1-1-2.8C82.4,13.5,81.3,13.1,79.7,13.1"/>
            <polygon class="st0"
                     points="114.7,13.5 114.7,42.5 104.7,42.5 104.7,13.5 96.9,13.5 96.9,4.9 122.5,4.9 122.5,13.5 			"/>
            <path class="st1" d="M59.5,1.6c-6.6,7.2-12.3,15.2-16.9,23.8c-2.5-2.1-5-4.2-7.5-6.4c-1.5-1.3-6.3-1.5-3.5,0.9
				c3.6,3,7.2,6.1,10.8,9.1c0.7,0.6,3.6,2.1,4.4,0.7C51.5,20.5,57.3,12,64.3,4.4C65.6,2.9,60.7,0.3,59.5,1.6"/>
            <path class="st0" d="M3.9,49.7v1.8H3.5v-3.9H5c0.9,0,1.3,0.3,1.3,1c0,0.5-0.2,0.8-0.6,1c0.5,0.2,0.5,0.7,0.5,1.1
				c0,0.6,0.1,0.8,0.2,0.8l0,0H6c-0.2-0.3-0.1-1-0.2-1.3c-0.1-0.4-0.4-0.5-0.8-0.5H3.9z M5,49.4c0.6,0,1-0.2,1-0.8
				c0-0.6-0.5-0.7-1-0.7H3.8v1.5H5z"/>
            <path class="st0" d="M6.9,50.1c0-0.8,0.4-1.5,1.3-1.5c0.9,0,1.3,0.7,1.3,1.5c0,0.9-0.5,1.5-1.3,1.5C7.5,51.6,6.9,51.1,6.9,50.1
				 M8.2,48.9c-0.7,0-1,0.6-1,1.2c0,0.7,0.3,1.2,1,1.2s1-0.6,1-1.2C9.2,49.5,8.9,48.9,8.2,48.9"/>
            <path class="st0" d="M12.1,48.7h0.3v2.8h-0.3v-0.4c-0.2,0.2-0.4,0.5-0.9,0.5c-0.8,0-1-0.5-1-1v-1.9h0.3v1.9
				c0,0.5,0.2,0.8,0.7,0.8s0.9-0.4,0.9-1.1V48.7z"/>
            <path class="st0" d="M14.2,51.6c-0.1,0-0.2,0.1-0.4,0.1c-0.3,0-0.5-0.1-0.5-0.6V49h-0.4v-0.3h0.4v-0.8h0.3v0.8h0.5V49h-0.5v1.9
				c0,0.3,0,0.4,0.3,0.4c0.1,0,0.2,0,0.3,0L14.2,51.6L14.2,51.6z"/>
            <path class="st0" d="M14.7,47.6h0.4v0.5h-0.4V47.6z M14.8,48.7h0.3v2.8h-0.3V48.7z"/>
            <path class="st0" d="M16.3,51.5H16v-2.8h0.3v0.4c0.3-0.3,0.5-0.5,0.9-0.5c0.3,0,0.7,0.1,0.9,0.4c0.1,0.2,0.1,0.4,0.1,0.7v1.9
				h-0.3v-1.9c0-0.5-0.2-0.8-0.7-0.8c-0.4,0-0.7,0.3-0.8,0.6c-0.1,0.2-0.1,0.3-0.1,0.5L16.3,51.5L16.3,51.5z"/>
            <path class="st0" d="M21.2,48.7h0.3v2.6c0,0.8-0.3,1.4-1.3,1.4c-0.8,0-1.2-0.5-1.2-0.8h0.4c0.1,0.4,0.5,0.5,0.8,0.5
				c0.9,0,1-0.7,1-1.3c-0.2,0.3-0.6,0.5-1,0.5c-0.9,0-1.3-0.7-1.3-1.5s0.4-1.5,1.3-1.5c0.4,0,0.8,0.2,1,0.6l0,0V48.7z M20.2,48.9
				c-0.6,0-1,0.4-1,1.1s0.3,1.3,1,1.3c0.6,0,1-0.5,1-1.2C21.2,49.4,20.8,48.9,20.2,48.9"/>
            <polygon class="st0"
                     points="23.5,47.6 26.4,47.6 26.4,47.9 25.2,47.9 25.2,51.5 24.8,51.5 24.8,47.9 23.5,47.9 			"/>
            <path class="st0" d="M26.5,50.2c0,0.6,0.3,1.1,1,1.1c0.4,0,0.8-0.2,0.9-0.7h0.4c-0.2,0.5-0.5,0.9-1.2,0.9c-0.9,0-1.3-0.6-1.3-1.5
				c0-0.8,0.5-1.5,1.3-1.5s1.3,0.6,1.2,1.6h-2.3V50.2z M28.3,49.9c0-0.6-0.3-1-0.9-1c-0.6,0-0.9,0.5-1,1H28.3z"/>
            <path class="st0" d="M31.3,49.6c-0.1-0.4-0.4-0.7-0.8-0.7c-0.7,0-1,0.6-1,1.2s0.3,1.2,1,1.2c0.5,0,0.8-0.3,0.9-0.8h0.4
				c-0.1,0.6-0.5,1.1-1.2,1.1c-0.9,0-1.3-0.7-1.3-1.5s0.5-1.5,1.3-1.5c0.7,0,1.1,0.3,1.2,1L31.3,49.6L31.3,49.6z"/>
            <path class="st0" d="M32.4,51.5v-3.9h0.3v1.5c0.3-0.3,0.5-0.5,0.9-0.5c0.3,0,0.7,0.1,0.9,0.4c0.1,0.2,0.1,0.4,0.1,0.7v1.9h-0.3
				v-1.9c0-0.5-0.2-0.8-0.7-0.8c-0.4,0-0.7,0.3-0.8,0.6c-0.1,0.2-0.1,0.3-0.1,0.5v1.5L32.4,51.5L32.4,51.5z"/>
            <path class="st0" d="M35.7,51.5h-0.3v-2.8h0.3v0.4c0.3-0.3,0.5-0.5,0.9-0.5c0.3,0,0.7,0.1,0.9,0.4c0.1,0.2,0.1,0.4,0.1,0.7v1.9
				h-0.3v-1.9c0-0.5-0.2-0.8-0.7-0.8c-0.4,0-0.7,0.3-0.8,0.6c-0.1,0.2-0.1,0.3-0.1,0.5L35.7,51.5L35.7,51.5z"/>
            <path class="st0" d="M38.3,50.1c0-0.8,0.4-1.5,1.3-1.5c0.9,0,1.3,0.7,1.3,1.5c0,0.9-0.5,1.5-1.3,1.5
				C38.9,51.6,38.3,51.1,38.3,50.1 M39.6,48.9c-0.7,0-1,0.6-1,1.2c0,0.7,0.3,1.2,1,1.2s1-0.6,1-1.2C40.5,49.5,40.3,48.9,39.6,48.9"
            />
            <rect x="41.5" y="47.6" class="st0" width="0.3" height="3.9"/>
            <path class="st0" d="M42.5,50.1c0-0.8,0.4-1.5,1.3-1.5c0.9,0,1.3,0.7,1.3,1.5c0,0.9-0.5,1.5-1.3,1.5
				C43.1,51.6,42.5,51.1,42.5,50.1 M43.8,48.9c-0.7,0-1,0.6-1,1.2c0,0.7,0.3,1.2,1,1.2s1-0.6,1-1.2C44.8,49.5,44.5,48.9,43.8,48.9"
            />
            <path class="st0" d="M47.9,48.7h0.3v2.6c0,0.8-0.3,1.4-1.3,1.4c-0.8,0-1.2-0.5-1.2-0.8h0.4c0.1,0.4,0.5,0.5,0.8,0.5
				c0.9,0,1-0.7,1-1.3c-0.2,0.3-0.6,0.5-1,0.5c-0.9,0-1.3-0.7-1.3-1.5s0.4-1.5,1.3-1.5c0.4,0,0.8,0.2,1,0.6l0,0V48.7z M47,48.9
				c-0.6,0-1,0.4-1,1.1s0.3,1.3,1,1.3c0.6,0,1-0.5,1-1.2C47.9,49.4,47.6,48.9,47,48.9"/>
            <path class="st0" d="M49.1,52.3c0.1,0,0.2,0,0.3,0c0.4,0,0.4-0.5,0.6-0.8l-1.1-2.9h0.4l0.9,2.4l0.9-2.4h0.4l-1.1,2.8
				c-0.3,0.7-0.4,1.2-0.9,1.2c-0.1,0-0.2,0-0.3,0L49.1,52.3L49.1,52.3z"/>
            <path class="st0" d="M53.1,49v-0.3h0.4v-0.4c0-0.4,0.2-0.7,0.6-0.7c0.1,0,0.2,0,0.3,0v0.3c-0.1,0-0.1,0-0.2,0
				c-0.3,0-0.4,0.3-0.4,0.5v0.4h0.5v0.3h-0.5v2.6h-0.3v-2.6L53.1,49L53.1,49z"/>
            <path class="st0" d="M54.7,50.1c0-0.8,0.4-1.5,1.3-1.5c0.9,0,1.3,0.7,1.3,1.5c0,0.9-0.5,1.5-1.3,1.5
				C55.3,51.6,54.7,51.1,54.7,50.1 M56,48.9c-0.7,0-1,0.6-1,1.2c0,0.7,0.3,1.2,1,1.2s1-0.6,1-1.2C57,49.5,56.7,48.9,56,48.9"/>
            <path class="st0"
                  d="M58.3,51.5H58v-2.8h0.3v0.5l0,0c0.2-0.5,0.4-0.6,0.9-0.6V49c-0.7,0-0.9,0.5-0.9,1.2V51.5z"/>
            <path class="st0" d="M62.6,49.9c0.1,0,0.3,0,0.4-0.1c0.1,0,0.1-0.2,0.1-0.3c0-0.3-0.2-0.6-0.7-0.6s-0.8,0.1-0.8,0.6h-0.3
				c0-0.7,0.5-0.9,1.2-0.9c0.6,0,1,0.2,1,0.9V51c0,0.3,0.1,0.3,0.3,0.2v0.3c0,0-0.2,0.1-0.3,0.1s-0.1,0-0.1,0
				c-0.2,0-0.3-0.2-0.3-0.4c-0.3,0.3-0.6,0.5-1.1,0.5s-0.9-0.3-0.9-0.8s0.3-0.8,1-0.9L62.6,49.9z M63.1,50c-0.3,0.1-0.6,0.1-0.8,0.2
				c-0.5,0-0.8,0.2-0.8,0.6c0,0.3,0.3,0.5,0.6,0.5c0.5,0,1-0.3,1-0.8V50z"/>
            <polygon class="st0" points="65.8,51.5 65.8,47.6 68.4,47.6 68.4,47.9 66.2,47.9 66.2,49.3 68.2,49.3 68.2,49.7 66.2,49.7
				66.2,51.5 			"/>
            <path class="st0"
                  d="M69.2,51.5h-0.3v-2.8h0.3v0.5l0,0c0.2-0.5,0.4-0.6,0.9-0.6V49c-0.7,0-0.9,0.5-0.9,1.2V51.5z"/>
            <path class="st0" d="M70.8,50.2c0,0.6,0.3,1.1,1,1.1c0.4,0,0.8-0.2,0.9-0.7h0.4c-0.2,0.5-0.5,0.9-1.2,0.9c-0.9,0-1.3-0.6-1.3-1.5
				c0-0.8,0.5-1.5,1.3-1.5s1.3,0.6,1.2,1.6h-2.3V50.2z M72.6,49.9c0-0.6-0.3-1-0.9-1c-0.6,0-0.9,0.5-1,1H72.6z"/>
            <path class="st0" d="M73.8,50.2c0,0.6,0.3,1.1,1,1.1c0.4,0,0.8-0.2,0.9-0.7h0.4c-0.2,0.5-0.5,0.9-1.2,0.9c-0.9,0-1.3-0.6-1.3-1.5
				c0-0.8,0.5-1.5,1.3-1.5s1.3,0.6,1.2,1.6h-2.3V50.2z M75.7,49.9c0-0.6-0.3-1-0.9-1c-0.6,0-0.9,0.5-1,1H75.7z"/>
            <path class="st0" d="M79.5,49.9c0.1,0,0.3,0,0.4-0.1c0.1,0,0.1-0.2,0.1-0.3c0-0.3-0.2-0.6-0.7-0.6s-0.8,0.1-0.8,0.6h-0.3
				c0-0.7,0.5-0.9,1.2-0.9c0.6,0,1,0.2,1,0.9V51c0,0.3,0.1,0.3,0.3,0.2v0.3c0,0-0.2,0.1-0.3,0.1s-0.1,0-0.1,0
				c-0.2,0-0.3-0.2-0.3-0.4c-0.3,0.3-0.6,0.5-1.1,0.5S78,51.4,78,50.9s0.3-0.8,1-0.9L79.5,49.9z M80.1,50c-0.3,0.1-0.6,0.1-0.8,0.2
				c-0.5,0-0.8,0.2-0.8,0.6c0,0.3,0.3,0.5,0.6,0.5c0.5,0,1-0.3,1-0.8V50z"/>
            <path class="st0" d="M81.6,51.5h-0.3v-2.8h0.3v0.4c0.3-0.3,0.5-0.5,0.9-0.5c0.3,0,0.7,0.1,0.9,0.4c0.1,0.2,0.1,0.4,0.1,0.7v1.9
				h-0.3v-1.9c0-0.5-0.2-0.8-0.7-0.8c-0.4,0-0.7,0.3-0.8,0.6c-0.1,0.2-0.1,0.3-0.1,0.5L81.6,51.5L81.6,51.5z"/>
            <path class="st0" d="M86.5,47.6h0.3v3.9h-0.3V51l0,0c-0.2,0.4-0.6,0.6-1,0.6c-0.9,0-1.3-0.7-1.3-1.5s0.4-1.5,1.3-1.5
				c0.4,0,0.8,0.2,1,0.5V47.6z M85.5,48.9c-0.7,0-1,0.6-1,1.3c0,0.7,0.4,1.1,1,1.1s1-0.5,1-1.2C86.5,49.5,86.1,48.9,85.5,48.9"/>
            <path class="st0" d="M90.9,47.5c1.2,0,1.9,0.9,1.9,2.1c0,1.1-0.6,2.1-1.8,2.1s-1.8-0.9-1.8-2.1C89,48.4,89.7,47.5,90.9,47.5
				 M92.4,49.6c0-1.1-0.6-1.8-1.5-1.8c-1,0-1.5,0.8-1.5,1.8c0,0.9,0.4,1.8,1.5,1.8C91.9,51.3,92.4,50.5,92.4,49.6"/>
            <path class="st0" d="M93.8,52.7h-0.3v-4h0.3v0.5l0,0c0.2-0.4,0.6-0.6,1-0.6c0.9,0,1.3,0.7,1.3,1.5s-0.4,1.5-1.3,1.5
				c-0.4,0-0.8-0.2-1-0.5V52.7z M94.7,51.3c0.7,0,1-0.6,1-1.3c0-0.7-0.4-1.1-1-1.1s-1,0.5-1,1.2C93.8,50.8,94.1,51.3,94.7,51.3"/>
            <path class="st0" d="M97,50.2c0,0.6,0.3,1.1,1,1.1c0.4,0,0.8-0.2,0.9-0.7h0.4c-0.2,0.5-0.5,0.9-1.2,0.9c-0.9,0-1.3-0.6-1.3-1.5
				c0-0.8,0.5-1.5,1.3-1.5s1.3,0.6,1.2,1.6H97V50.2z M98.8,49.9c0-0.6-0.3-1-0.9-1c-0.6,0-0.9,0.5-1,1H98.8z"/>
            <path class="st0" d="M100.1,51.5h-0.3v-2.8h0.3v0.4c0.3-0.3,0.5-0.5,0.9-0.5c0.3,0,0.7,0.1,0.9,0.4c0.1,0.2,0.1,0.4,0.1,0.7v1.9
				h-0.3v-1.9c0-0.5-0.2-0.8-0.7-0.8c-0.4,0-0.7,0.3-0.8,0.6c-0.1,0.2-0.1,0.3-0.1,0.5L100.1,51.5L100.1,51.5z"/>
            <rect x="104.5" y="47.6" class="st0" width="0.4" height="3.9"/>
            <path class="st0" d="M106.2,51.5h-0.3v-2.8h0.3v0.4c0.3-0.3,0.5-0.5,0.9-0.5c0.3,0,0.7,0.1,0.9,0.4c0.1,0.2,0.1,0.4,0.1,0.7v1.9
				h-0.3v-1.9c0-0.5-0.2-0.8-0.7-0.8c-0.4,0-0.7,0.3-0.8,0.6c-0.1,0.2-0.1,0.3-0.1,0.5L106.2,51.5L106.2,51.5z"/>
            <path class="st0" d="M109.9,51.6c-0.1,0-0.2,0.1-0.4,0.1c-0.3,0-0.5-0.1-0.5-0.6V49h-0.4v-0.3h0.4v-0.8h0.3v0.8h0.5V49h-0.5v1.9
				c0,0.3,0,0.4,0.3,0.4c0.1,0,0.2,0,0.3,0L109.9,51.6L109.9,51.6z"/>
            <path class="st0" d="M110.7,50.2c0,0.6,0.3,1.1,1,1.1c0.4,0,0.8-0.2,0.9-0.7h0.4c-0.2,0.5-0.5,0.9-1.2,0.9
				c-0.9,0-1.3-0.6-1.3-1.5c0-0.8,0.5-1.5,1.3-1.5s1.3,0.6,1.2,1.6h-2.3V50.2z M112.5,49.9c0-0.6-0.3-1-0.9-1c-0.6,0-0.9,0.5-1,1
				H112.5z"/>
            <path class="st0"
                  d="M113.8,51.5h-0.3v-2.8h0.3v0.5l0,0c0.2-0.5,0.4-0.6,0.9-0.6V49c-0.7,0-0.9,0.5-0.9,1.2V51.5z"/>
            <path class="st0" d="M115.7,51.5h-0.3v-2.8h0.3v0.4c0.3-0.3,0.5-0.5,0.9-0.5c0.3,0,0.7,0.1,0.9,0.4c0.1,0.2,0.1,0.4,0.1,0.7v1.9
				h-0.3v-1.9c0-0.5-0.2-0.8-0.7-0.8c-0.4,0-0.7,0.3-0.8,0.6c-0.1,0.2-0.1,0.3-0.1,0.5L115.7,51.5L115.7,51.5z"/>
            <path class="st0" d="M118.7,50.2c0,0.6,0.3,1.1,1,1.1c0.4,0,0.8-0.2,0.9-0.7h0.4c-0.2,0.5-0.5,0.9-1.2,0.9
				c-0.9,0-1.3-0.6-1.3-1.5c0-0.8,0.5-1.5,1.3-1.5s1.3,0.6,1.2,1.6h-2.3V50.2z M120.5,49.9c0-0.6-0.3-1-0.9-1c-0.6,0-0.9,0.5-1,1
				H120.5z"/>
            <path class="st0" d="M122.5,51.6c-0.1,0-0.2,0.1-0.4,0.1c-0.3,0-0.5-0.1-0.5-0.6V49h-0.4v-0.3h0.4v-0.8h0.3v0.8h0.5V49h-0.5v1.9
				c0,0.3,0,0.4,0.3,0.4c0.1,0,0.2,0,0.3,0L122.5,51.6L122.5,51.6z"/>
		</g>
	</g>
</g>
</svg>
