<?xml version="1.0" encoding="utf-8"?>
<!-- Generator: Adobe Illustrator 23.0.2, SVG Export Plug-In . SVG Version: 6.00 Build 0)  -->
<svg version="1.1" id="Capa_1" xmlns="http://www.w3.org/2000/svg" xmlns:xlink="http://www.w3.org/1999/xlink" x="0px" y="0px"
	 viewBox="0 0 126 45.5" style="enable-background:new 0 0 126 45.5;" xml:space="preserve">
<style type="text/css">
	.st0{fill:#FFFFFF;}
	.st1{fill:#44C8F5;}
</style>
<path class="st0" d="M53.3,21.5c0.1,0.7,0.1,1.3,0.1,2.1c0,3.8-0.9,6.5-2.7,8.1c-1.8,1.7-3.8,2.5-6.1,2.5c-2.9,0-4.9-0.9-6.2-2.7
	c-0.9-1.3-1.5-2.9-1.7-5l-6.2-5.2c-1.2-1.1-1.7-2.1-1.3-3.2c0.2-0.6,0.9-1.5,2.8-1.5c1.3,0,3,0.4,4.1,1.3l1,0.9c0.4-1.2,1-2.2,1.8-3
	c1.6-1.7,3.6-2.5,6-2.5c1.1,0,2.1,0.1,3,0.4c1.8-2.6,3.6-5.1,5.6-7.5C51.2,5.4,48.6,5,45.7,5C40,5,35.2,6.8,31.3,10.3
	c-3.9,3.6-5.9,8.2-5.9,14s1.6,10.4,4.7,13.5c3.2,3.2,7.8,4.8,14,4.8c5.8,0,10.7-1.8,14.5-5.4s5.8-8.3,5.8-14c0-5.2-1.2-9.2-3.6-12.2
	C58.1,14.3,55.6,17.8,53.3,21.5"/>
<polygon class="st0" points="14.8,13.5 14.8,19.3 20.7,19.3 20.7,27.5 14.8,27.5 14.8,42.5 3.5,42.5 3.5,4.9 25.5,4.9 25.5,13.5 "/>
<path class="st0" d="M85.7,42.5l-7.4-14.4h-0.4v14.4H67V5.1c1.4,0,4.6,0,7.6-0.1s4.9-0.1,5.7-0.1c4.7,0,8.3,0.9,10.7,2.7
	c2.4,1.8,3.6,4.7,3.6,8.6c0,2.2-0.6,4.2-1.7,6c-1.2,1.8-2.8,3.1-4.8,3.8l2.6,4.2l7.2,12.2L85.7,42.5L85.7,42.5z M79.7,13.1h-1.9v7.8
	l1.7,0.2c1.4,0,2.6-0.4,3.4-1.1s1.2-1.7,1.2-3.1c0-1.2-0.3-2.1-1-2.8C82.4,13.5,81.3,13.1,79.7,13.1"/>
<polygon class="st0" points="114.7,13.5 114.7,42.5 104.7,42.5 104.7,13.5 96.9,13.5 96.9,4.9 122.5,4.9 122.5,13.5 "/>
<path class="st1" d="M59.5,1.6c-6.6,7.2-12.3,15.2-16.9,23.8c-2.5-2.1-5-4.2-7.5-6.4c-1.5-1.3-6.3-1.5-3.5,0.9
	c3.6,3,7.2,6.1,10.8,9.1c0.7,0.6,3.6,2.1,4.4,0.7C51.5,20.5,57.3,12,64.3,4.4C65.6,2.9,60.7,0.3,59.5,1.6"/>
</svg>
