<?xml version="1.0" encoding="utf-8"?>
<!-- Generator: Adobe Illustrator 21.1.0, SVG Export Plug-In . SVG Version: 6.00 Build 0)  -->
<svg version="1.1" id="Layer_1" xmlns="http://www.w3.org/2000/svg" x="0px" y="0px"
     viewBox="-150 340 750 175" style="enable-background:new -150 340 750 175;" xml:space="preserve">
<style type="text/css">
	.st0{fill:#FFFFFF;}
	.st1{fill:#009DCA;}
</style>
<g>
	<g>
		<g>
			<path class="st0" d="M7.9,421c0.2,2,0.3,4.1,0.3,6.4c0,11.6-2.8,20-8.3,25.2c-5.5,5.2-11.8,7.7-18.8,7.7
				c-8.9,0-15.3-2.8-19.3-8.4c-2.8-3.9-4.6-9.1-5.4-15.5l-19.1-16.1c-3.9-3.3-5.2-6.6-4.1-9.8c0.7-1.8,2.7-4.8,8.8-4.8
				c3.9,0,9.4,1.3,12.7,4.1l3.2,2.7c1.3-3.7,3.1-6.8,5.5-9.3c5-5.2,11.2-7.8,18.5-7.8c3.4,0,6.5,0.4,9.3,1.2
				c5.4-7.9,11.2-15.7,17.3-23.2c-7.1-2.4-15.1-3.6-24-3.6c-17.7,0-32.6,5.5-44.7,16.6c-12.1,11-18.1,25.4-18.1,43.2
				c0,18.1,4.9,32.1,14.6,41.9c9.8,9.8,24.2,14.7,43.2,14.7c18.1,0,33-5.5,45-16.6c11.9-11.1,17.9-25.6,17.9-43.5
				c0-16.1-3.7-28.6-11.2-37.7C22.9,398.7,15.1,409.6,7.9,421z"/>
			<path class="st0" d="M-111.3,396.1v18.1h18.2v25.4h-18.2V486h-35.1V369.6h68v26.5H-111.3z"/>
			<path class="st0" d="M108.2,486l-23-44.6H84V486H50.1V370.3c4.4,0,14.3-0.1,23.6-0.3c9.3-0.2,15.2-0.3,17.7-0.3
				c14.6,0,25.6,2.8,33.2,8.4c7.5,5.6,11.3,14.4,11.3,26.6c0,6.8-1.8,13.1-5.4,18.7c-3.6,5.6-8.6,9.6-15,11.9l8.1,12.9l22.3,37.9
				H108.2z M89.8,395H84v24l5.1,0.7c4.4,0,7.9-1.1,10.4-3.3c2.5-2.2,3.8-5.4,3.8-9.5c0-3.6-1.1-6.5-3.2-8.7
				C98,396.1,94.5,395,89.8,395z"/>
			<path class="st0" d="M198,396.1V486h-30.8v-89.9h-24.2v-26.5h79.3v26.5H198z"/>
		</g>
		<path class="st1" d="M27.1,359.4c-20.5,22.4-38,47-52.3,73.8c-7.8-6.6-15.5-13.1-23.3-19.7c-4.6-3.9-19.6-4.5-11,2.8
			c11.2,9.4,22.3,18.8,33.5,28.3c2.3,2,11.2,6.6,13.5,2.2C2.1,418.1,20,392,41.7,368.3C46,363.5,30.7,355.5,27.1,359.4z"/>
	</g>
</g>
<g>
	<path class="st0" d="M266,402.1v2.1h-9v23.6h-2.4v-23.6h-8.9v-2.1H266z"/>
	<path class="st0" d="M265.7,421.7c0.2,0.9,0.6,1.7,1.1,2.4c0.5,0.7,1.1,1.3,1.9,1.7c0.8,0.5,1.7,0.7,2.8,0.7c1.7,0,3-0.4,3.9-1.3
		c0.9-0.9,1.6-2,1.9-3.5h2.3c-0.5,2.1-1.4,3.7-2.6,4.9c-1.3,1.2-3.1,1.7-5.5,1.7c-1.5,0-2.7-0.3-3.8-0.8c-1.1-0.5-1.9-1.2-2.6-2.1
		s-1.2-1.9-1.5-3.1s-0.5-2.4-0.5-3.8c0-1.2,0.2-2.4,0.5-3.6c0.3-1.2,0.8-2.2,1.5-3.1c0.7-0.9,1.5-1.7,2.6-2.2
		c1.1-0.6,2.3-0.8,3.8-0.8c1.5,0,2.8,0.3,3.8,0.9c1.1,0.6,1.9,1.4,2.6,2.4c0.7,1,1.1,2.1,1.4,3.3c0.3,1.3,0.4,2.5,0.4,3.8h-14.3
		C265.3,419.9,265.4,420.8,265.7,421.7z M276.9,414.7c-0.3-0.8-0.7-1.5-1.2-2.1c-0.5-0.6-1.1-1.1-1.8-1.5c-0.7-0.4-1.5-0.6-2.4-0.6
		c-0.9,0-1.8,0.2-2.5,0.6s-1.3,0.9-1.8,1.5c-0.5,0.6-0.9,1.3-1.2,2.1c-0.3,0.8-0.5,1.6-0.6,2.5h12
		C277.3,416.4,277.2,415.5,276.9,414.7z"/>
	<path class="st0" d="M294,411.8c-0.8-0.8-2-1.2-3.5-1.2c-1.1,0-2,0.2-2.8,0.7c-0.8,0.5-1.5,1.1-2,1.8c-0.5,0.7-0.9,1.6-1.2,2.5
		c-0.3,0.9-0.4,1.9-0.4,2.9c0,1,0.1,2,0.4,2.9c0.3,0.9,0.7,1.8,1.2,2.5c0.5,0.7,1.2,1.3,2,1.8c0.8,0.5,1.8,0.7,2.8,0.7
		c0.7,0,1.4-0.1,2-0.4c0.6-0.3,1.2-0.6,1.7-1.1c0.5-0.5,0.9-1,1.2-1.7c0.3-0.6,0.5-1.4,0.6-2.1h2.3c-0.3,2.3-1.1,4-2.5,5.3
		c-1.3,1.3-3.1,1.9-5.2,1.9c-1.4,0-2.7-0.3-3.8-0.8c-1.1-0.5-2-1.2-2.8-2.1c-0.7-0.9-1.3-1.9-1.7-3.1c-0.4-1.2-0.6-2.5-0.6-3.8
		c0-1.3,0.2-2.6,0.6-3.8s0.9-2.2,1.7-3.1c0.7-0.9,1.7-1.6,2.8-2.1c1.1-0.5,2.3-0.8,3.8-0.8c2,0,3.7,0.5,5.1,1.6
		c1.4,1.1,2.2,2.7,2.5,4.8h-2.3C295.5,413.7,294.9,412.6,294,411.8z"/>
	<path class="st0" d="M303.6,409.2v3.2h0.1c0.4-1.1,1.2-2,2.3-2.7c1.1-0.7,2.3-1,3.6-1c1.3,0,2.4,0.2,3.3,0.5
		c0.9,0.3,1.6,0.8,2.1,1.4c0.5,0.6,0.9,1.4,1.1,2.2c0.2,0.9,0.3,1.9,0.3,3v12h-2.3v-11.6c0-0.8-0.1-1.5-0.2-2.2
		c-0.1-0.7-0.4-1.3-0.8-1.8c-0.4-0.5-0.8-0.9-1.5-1.2c-0.6-0.3-1.4-0.4-2.3-0.4s-1.7,0.2-2.4,0.5c-0.7,0.3-1.3,0.8-1.8,1.3
		c-0.5,0.6-0.9,1.2-1.2,2c-0.3,0.8-0.4,1.6-0.5,2.5v10.8h-2.3v-18.6H303.6z"/>
	<path class="st0" d="M332.3,409.5c1.1,0.5,2,1.2,2.8,2.1c0.7,0.9,1.3,1.9,1.7,3.1s0.6,2.5,0.6,3.8c0,1.3-0.2,2.6-0.6,3.8
		c-0.4,1.2-0.9,2.2-1.7,3.1c-0.7,0.9-1.7,1.6-2.8,2.1s-2.3,0.8-3.8,0.8s-2.7-0.3-3.8-0.8c-1.1-0.5-2-1.2-2.8-2.1
		c-0.7-0.9-1.3-1.9-1.7-3.1c-0.4-1.2-0.6-2.5-0.6-3.8c0-1.3,0.2-2.6,0.6-3.8s0.9-2.2,1.7-3.1c0.7-0.9,1.7-1.6,2.8-2.1
		c1.1-0.5,2.3-0.8,3.8-0.8S331.2,409,332.3,409.5z M325.7,411.3c-0.8,0.5-1.5,1.1-2,1.8c-0.5,0.7-0.9,1.6-1.2,2.5
		c-0.3,0.9-0.4,1.9-0.4,2.9c0,1,0.1,2,0.4,2.9c0.3,0.9,0.7,1.8,1.2,2.5c0.5,0.7,1.2,1.3,2,1.8c0.8,0.5,1.8,0.7,2.8,0.7
		s2-0.2,2.8-0.7c0.8-0.5,1.5-1.1,2-1.8c0.5-0.7,0.9-1.6,1.2-2.5c0.3-0.9,0.4-1.9,0.4-2.9c0-1-0.1-1.9-0.4-2.9
		c-0.3-0.9-0.7-1.8-1.2-2.5c-0.5-0.7-1.2-1.3-2-1.8c-0.8-0.5-1.8-0.7-2.8-0.7S326.5,410.8,325.7,411.3z"/>
	<path class="st0" d="M343,402.1v25.7h-2.3v-25.7H343z"/>
	<path class="st0" d="M359,409.5c1.1,0.5,2,1.2,2.8,2.1c0.7,0.9,1.3,1.9,1.7,3.1s0.6,2.5,0.6,3.8c0,1.3-0.2,2.6-0.6,3.8
		c-0.4,1.2-0.9,2.2-1.7,3.1c-0.7,0.9-1.7,1.6-2.8,2.1s-2.3,0.8-3.8,0.8s-2.7-0.3-3.8-0.8c-1.1-0.5-2-1.2-2.8-2.1
		c-0.7-0.9-1.3-1.9-1.7-3.1c-0.4-1.2-0.6-2.5-0.6-3.8c0-1.3,0.2-2.6,0.6-3.8s0.9-2.2,1.7-3.1c0.7-0.9,1.7-1.6,2.8-2.1
		c1.1-0.5,2.3-0.8,3.8-0.8S357.9,409,359,409.5z M352.4,411.3c-0.8,0.5-1.5,1.1-2,1.8c-0.5,0.7-0.9,1.6-1.2,2.5
		c-0.3,0.9-0.4,1.9-0.4,2.9c0,1,0.1,2,0.4,2.9c0.3,0.9,0.7,1.8,1.2,2.5c0.5,0.7,1.2,1.3,2,1.8c0.8,0.5,1.8,0.7,2.8,0.7
		s2-0.2,2.8-0.7c0.8-0.5,1.5-1.1,2-1.8c0.5-0.7,0.9-1.6,1.2-2.5c0.3-0.9,0.4-1.9,0.4-2.9c0-1-0.1-1.9-0.4-2.9
		c-0.3-0.9-0.7-1.8-1.2-2.5c-0.5-0.7-1.2-1.3-2-1.8c-0.8-0.5-1.8-0.7-2.8-0.7S353.2,410.8,352.4,411.3z"/>
	<path class="st0" d="M382.6,430c-0.3,1.1-0.8,2-1.4,2.8c-0.6,0.8-1.5,1.4-2.5,1.8c-1,0.4-2.3,0.6-3.8,0.6c-0.9,0-1.8-0.1-2.7-0.3
		c-0.9-0.2-1.7-0.6-2.4-1c-0.7-0.5-1.3-1-1.8-1.7s-0.7-1.6-0.8-2.5h2.3c0.1,0.7,0.4,1.3,0.7,1.7c0.3,0.5,0.8,0.8,1.3,1.1
		s1,0.5,1.6,0.6c0.6,0.1,1.2,0.2,1.8,0.2c2.1,0,3.6-0.6,4.6-1.8c0.9-1.2,1.4-2.9,1.4-5.2v-2.5h-0.1c-0.5,1.2-1.3,2.1-2.3,2.8
		c-1,0.7-2.2,1-3.6,1c-1.5,0-2.8-0.2-3.8-0.7c-1.1-0.5-1.9-1.2-2.6-2c-0.7-0.9-1.2-1.9-1.5-3c-0.3-1.2-0.5-2.4-0.5-3.7
		c0-1.3,0.2-2.5,0.6-3.6c0.4-1.1,0.9-2.1,1.6-3c0.7-0.9,1.6-1.5,2.6-2c1-0.5,2.2-0.7,3.6-0.7c0.7,0,1.3,0.1,2,0.3
		c0.6,0.2,1.2,0.5,1.7,0.8c0.5,0.3,1,0.8,1.3,1.2c0.4,0.5,0.7,0.9,0.9,1.4h0.1v-3.2h2.3v17.1C383.1,427.7,382.9,428.9,382.6,430z
		 M377.4,425.1c0.7-0.4,1.4-1,1.9-1.7s0.9-1.5,1.1-2.4c0.3-0.9,0.4-1.8,0.4-2.7c0-0.9-0.1-1.8-0.3-2.7c-0.2-0.9-0.6-1.7-1-2.5
		c-0.5-0.7-1.1-1.3-1.9-1.8c-0.8-0.5-1.7-0.7-2.8-0.7s-2,0.2-2.8,0.7c-0.8,0.4-1.4,1-1.9,1.7c-0.5,0.7-0.9,1.5-1.1,2.5
		c-0.2,0.9-0.3,1.9-0.3,2.8c0,0.9,0.1,1.8,0.4,2.7c0.2,0.9,0.6,1.7,1.1,2.4s1.1,1.2,1.9,1.7c0.8,0.4,1.7,0.6,2.7,0.6
		C375.8,425.7,376.7,425.5,377.4,425.1z"/>
	<path class="st0" d="M386.4,406.6l3.8-5.1h2.8l-4.8,5.1H386.4z M387.4,409.2h2.3v18.6h-2.3V409.2z"/>
	<path class="st0" d="M394.5,412.1c0.4-0.8,0.9-1.4,1.6-1.9c0.7-0.5,1.4-0.9,2.3-1.1c0.9-0.2,1.9-0.4,3-0.4c0.8,0,1.6,0.1,2.4,0.2
		c0.8,0.2,1.5,0.4,2.2,0.9c0.6,0.4,1.2,1,1.6,1.8c0.4,0.8,0.6,1.8,0.6,3v9.9c0,0.9,0.4,1.4,1.3,1.4c0.3,0,0.5,0,0.7-0.1v1.9
		c-0.3,0-0.5,0.1-0.7,0.1c-0.2,0-0.5,0-0.8,0c-0.6,0-1-0.1-1.4-0.2c-0.3-0.2-0.6-0.4-0.8-0.7c-0.2-0.3-0.3-0.6-0.4-1
		s-0.1-0.8-0.1-1.3H406c-0.4,0.6-0.8,1.1-1.2,1.6c-0.4,0.5-0.9,0.9-1.4,1.2c-0.5,0.3-1.1,0.6-1.8,0.7c-0.7,0.2-1.4,0.3-2.4,0.3
		c-0.9,0-1.7-0.1-2.4-0.3c-0.8-0.2-1.4-0.5-2-1c-0.6-0.4-1-1-1.3-1.7c-0.3-0.7-0.5-1.5-0.5-2.4c0-1.3,0.3-2.3,0.9-3
		c0.6-0.7,1.3-1.3,2.3-1.7s2-0.7,3.2-0.8c1.2-0.2,2.4-0.3,3.6-0.5c0.5,0,0.9-0.1,1.3-0.2c0.4-0.1,0.7-0.2,0.9-0.4
		c0.2-0.2,0.4-0.4,0.6-0.7c0.1-0.3,0.2-0.7,0.2-1.2c0-0.8-0.1-1.4-0.4-1.9c-0.3-0.5-0.6-0.9-1-1.2c-0.4-0.3-1-0.5-1.5-0.6
		c-0.6-0.1-1.2-0.2-1.9-0.2c-1.4,0-2.6,0.3-3.5,1c-0.9,0.7-1.4,1.8-1.4,3.3h-2.3C393.9,413.8,394.1,412.9,394.5,412.1z M405.9,417.7
		c-0.1,0.3-0.4,0.5-0.8,0.6c-0.4,0.1-0.8,0.2-1.1,0.3c-1,0.2-2,0.3-3,0.5c-1,0.1-2,0.3-2.8,0.6s-1.5,0.6-2.1,1.1
		c-0.5,0.5-0.8,1.2-0.8,2.1c0,0.6,0.1,1.1,0.3,1.5c0.2,0.4,0.5,0.8,0.9,1.2c0.4,0.3,0.8,0.6,1.3,0.7c0.5,0.2,1,0.3,1.5,0.3
		c0.9,0,1.7-0.1,2.5-0.4c0.8-0.3,1.5-0.6,2.1-1.2c0.6-0.5,1.1-1.1,1.4-1.8c0.3-0.7,0.5-1.5,0.5-2.4L405.9,417.7L405.9,417.7z"/>
	<path class="st0" d="M423.4,412.9c-0.3-0.5-0.6-0.9-1.1-1.3c-0.4-0.3-1-0.6-1.5-0.7c-0.6-0.2-1.2-0.2-1.8-0.2c-0.5,0-1,0.1-1.5,0.2
		c-0.5,0.1-1,0.3-1.4,0.5c-0.4,0.3-0.8,0.6-1,1c-0.3,0.4-0.4,0.9-0.4,1.5c0,0.5,0.1,0.9,0.4,1.3c0.3,0.3,0.6,0.6,1,0.9
		c0.4,0.2,0.8,0.4,1.3,0.6c0.5,0.2,0.9,0.3,1.3,0.4l3,0.7c0.6,0.1,1.3,0.3,1.9,0.5s1.2,0.6,1.7,1c0.5,0.4,0.9,0.9,1.2,1.5
		c0.3,0.6,0.5,1.3,0.5,2.1c0,1-0.2,1.9-0.7,2.6s-1,1.3-1.7,1.7c-0.7,0.4-1.5,0.8-2.4,1c-0.9,0.2-1.8,0.3-2.6,0.3
		c-2.2,0-4-0.5-5.3-1.5c-1.4-1-2.1-2.7-2.3-5h2.3c0.1,1.5,0.7,2.7,1.7,3.5c1,0.8,2.3,1.2,3.8,1.2c0.6,0,1.1-0.1,1.7-0.2
		c0.6-0.1,1.1-0.3,1.6-0.6s0.9-0.7,1.2-1.1c0.3-0.4,0.5-1,0.5-1.6c0-0.6-0.1-1-0.3-1.4c-0.2-0.4-0.5-0.7-0.9-0.9
		c-0.4-0.3-0.8-0.5-1.3-0.6c-0.5-0.2-1-0.3-1.5-0.4l-2.9-0.6c-0.7-0.2-1.4-0.4-2.1-0.7c-0.6-0.3-1.2-0.6-1.6-0.9s-0.8-0.8-1.1-1.4
		c-0.3-0.5-0.4-1.2-0.4-2c0-0.9,0.2-1.7,0.6-2.4c0.4-0.7,1-1.2,1.6-1.6c0.7-0.4,1.4-0.7,2.2-0.9c0.8-0.2,1.6-0.3,2.5-0.3
		c0.9,0,1.8,0.1,2.6,0.4c0.8,0.2,1.5,0.6,2.1,1.1c0.6,0.5,1.1,1.1,1.5,1.9c0.4,0.7,0.6,1.6,0.6,2.6h-2.3
		C423.8,414,423.7,413.4,423.4,412.9z"/>
	<path class="st0" d="M454.3,427.8v-3.5h-0.1c-0.2,0.6-0.6,1.2-1.1,1.7s-1,0.9-1.6,1.3c-0.6,0.3-1.2,0.6-1.9,0.8
		c-0.7,0.2-1.4,0.3-2,0.3c-1.4,0-2.6-0.3-3.7-0.8s-1.9-1.2-2.6-2.1s-1.2-1.9-1.5-3.1c-0.3-1.2-0.5-2.4-0.5-3.8
		c0-1.3,0.2-2.6,0.5-3.8c0.3-1.2,0.9-2.2,1.5-3.1s1.6-1.6,2.6-2.1c1-0.5,2.3-0.8,3.7-0.8c0.7,0,1.4,0.1,2,0.3s1.3,0.4,1.9,0.8
		c0.6,0.3,1.1,0.8,1.5,1.3s0.8,1.1,1,1.8h0.1v-10.7h2.3v25.7H454.3z M441.9,421.4c0.2,0.9,0.6,1.8,1.1,2.5c0.5,0.7,1.1,1.4,1.9,1.8
		c0.8,0.5,1.7,0.7,2.8,0.7c1.2,0,2.2-0.2,3-0.7c0.8-0.5,1.5-1.1,2-1.8c0.5-0.7,0.9-1.6,1.1-2.5c0.2-0.9,0.3-1.9,0.3-2.9
		c0-1-0.1-1.9-0.3-2.9c-0.2-0.9-0.6-1.8-1.1-2.5c-0.5-0.7-1.2-1.4-2-1.8c-0.8-0.5-1.8-0.7-3-0.7c-1.1,0-2,0.2-2.8,0.7
		c-0.8,0.5-1.4,1.1-1.9,1.8c-0.5,0.7-0.9,1.6-1.1,2.5c-0.2,0.9-0.3,1.9-0.3,2.9C441.5,419.5,441.6,420.4,441.9,421.4z"/>
	<path class="st0" d="M462.4,421.7c0.2,0.9,0.6,1.7,1.1,2.4c0.5,0.7,1.1,1.3,1.9,1.7c0.8,0.5,1.7,0.7,2.8,0.7c1.7,0,3-0.4,3.9-1.3
		c0.9-0.9,1.6-2,1.9-3.5h2.3c-0.5,2.1-1.4,3.7-2.6,4.9c-1.3,1.2-3.1,1.7-5.5,1.7c-1.5,0-2.7-0.3-3.8-0.8c-1.1-0.5-1.9-1.2-2.6-2.1
		s-1.2-1.9-1.5-3.1s-0.5-2.4-0.5-3.8c0-1.2,0.2-2.4,0.5-3.6c0.3-1.2,0.8-2.2,1.5-3.1c0.7-0.9,1.5-1.7,2.6-2.2
		c1.1-0.6,2.3-0.8,3.8-0.8c1.5,0,2.8,0.3,3.8,0.9c1.1,0.6,1.9,1.4,2.6,2.4c0.7,1,1.1,2.1,1.4,3.3c0.3,1.3,0.4,2.5,0.4,3.8H462
		C462,419.9,462.2,420.8,462.4,421.7z M473.6,414.7c-0.3-0.8-0.7-1.5-1.2-2.1c-0.5-0.6-1.1-1.1-1.8-1.5c-0.7-0.4-1.5-0.6-2.4-0.6
		c-0.9,0-1.8,0.2-2.5,0.6s-1.3,0.9-1.8,1.5c-0.5,0.6-0.9,1.3-1.2,2.1c-0.3,0.8-0.5,1.6-0.6,2.5h12
		C474,416.4,473.9,415.5,473.6,414.7z"/>
	<path class="st0" d="M501.6,402.1c1.1,0,2.1,0.1,3,0.4c0.9,0.3,1.8,0.7,2.5,1.2s1.3,1.2,1.7,2.1c0.4,0.9,0.6,1.9,0.6,3
		c0,1.6-0.4,3-1.3,4.2c-0.8,1.2-2.1,2-3.7,2.3v0.1c0.8,0.1,1.5,0.3,2.1,0.7c0.6,0.3,1,0.7,1.4,1.2c0.3,0.5,0.6,1.1,0.8,1.7
		c0.2,0.7,0.3,1.4,0.3,2.1c0,0.4,0,1,0.1,1.6c0,0.6,0.1,1.3,0.1,1.9c0.1,0.6,0.2,1.2,0.3,1.8c0.2,0.6,0.4,1,0.6,1.3h-2.7
		c-0.1-0.2-0.3-0.5-0.3-0.9c-0.1-0.3-0.1-0.7-0.2-1.1s-0.1-0.7-0.1-1.1c0-0.4,0-0.7-0.1-0.9c0-0.9-0.1-1.8-0.2-2.7
		c-0.1-0.9-0.3-1.7-0.7-2.4c-0.3-0.7-0.9-1.3-1.5-1.7s-1.6-0.6-2.7-0.6h-9.3v11.4h-2.4v-25.7H501.6z M501.4,414.3
		c0.7,0,1.5-0.1,2.1-0.3s1.3-0.6,1.8-1s0.9-1,1.2-1.6c0.3-0.6,0.4-1.3,0.4-2.1c0-1.6-0.5-2.8-1.4-3.7c-0.9-0.9-2.3-1.4-4.2-1.4h-9.1
		v10.1H501.4z"/>
	<path class="st0" d="M526.4,427.8v-3.3h-0.1c-0.6,1.2-1.5,2.2-2.6,2.9c-1.1,0.7-2.4,1-3.8,1c-1.2,0-2.2-0.2-3-0.5
		c-0.8-0.3-1.5-0.8-2-1.4c-0.5-0.6-0.9-1.3-1.1-2.2c-0.2-0.9-0.4-1.8-0.4-3v-12.1h2.3v12.1c0,1.7,0.4,3,1.2,3.8
		c0.7,0.9,2,1.3,3.8,1.3c1,0,1.8-0.2,2.5-0.6c0.7-0.4,1.3-1,1.7-1.7c0.5-0.7,0.8-1.5,1-2.4s0.3-1.8,0.3-2.8v-9.8h2.3v18.6H526.4z"/>
	<path class="st0" d="M540.1,409.2v1.9h-3.8v12.5c0,0.7,0.1,1.3,0.3,1.7c0.2,0.4,0.7,0.7,1.5,0.7c0.6,0,1.3,0,1.9-0.1v1.9
		c-0.3,0-0.7,0-1,0c-0.3,0-0.7,0-1,0c-1.5,0-2.6-0.3-3.2-0.9c-0.6-0.6-0.9-1.7-0.9-3.3v-12.7h-3.2v-1.9h3.2v-5.6h2.3v5.6H540.1z"/>
	<path class="st0" d="M545.1,421.7c0.2,0.9,0.6,1.7,1.1,2.4c0.5,0.7,1.1,1.3,1.9,1.7c0.8,0.5,1.7,0.7,2.8,0.7c1.7,0,3-0.4,3.9-1.3
		c0.9-0.9,1.6-2,1.9-3.5h2.3c-0.5,2.1-1.4,3.7-2.6,4.9c-1.3,1.2-3.1,1.7-5.5,1.7c-1.5,0-2.7-0.3-3.8-0.8c-1.1-0.5-1.9-1.2-2.6-2.1
		s-1.2-1.9-1.5-3.1s-0.5-2.4-0.5-3.8c0-1.2,0.2-2.4,0.5-3.6c0.3-1.2,0.8-2.2,1.5-3.1c0.7-0.9,1.5-1.7,2.6-2.2
		c1.1-0.6,2.3-0.8,3.8-0.8c1.5,0,2.8,0.3,3.8,0.9c1.1,0.6,1.9,1.4,2.6,2.4c0.7,1,1.1,2.1,1.4,3.3c0.3,1.3,0.4,2.5,0.4,3.8h-14.3
		C544.7,419.9,544.9,420.8,545.1,421.7z M556.3,414.7c-0.3-0.8-0.7-1.5-1.2-2.1c-0.5-0.6-1.1-1.1-1.8-1.5c-0.7-0.4-1.5-0.6-2.4-0.6
		c-0.9,0-1.8,0.2-2.5,0.6s-1.3,0.9-1.8,1.5c-0.5,0.6-0.9,1.3-1.2,2.1c-0.3,0.8-0.5,1.6-0.6,2.5h12
		C556.7,416.4,556.6,415.5,556.3,414.7z"/>
	<path class="st0" d="M573.7,409.5c1.1,0.5,2,1.2,2.8,2.1c0.7,0.9,1.3,1.9,1.7,3.1s0.6,2.5,0.6,3.8c0,1.3-0.2,2.6-0.6,3.8
		c-0.4,1.2-0.9,2.2-1.7,3.1c-0.7,0.9-1.7,1.6-2.8,2.1s-2.3,0.8-3.8,0.8s-2.7-0.3-3.8-0.8c-1.1-0.5-2-1.2-2.8-2.1
		c-0.7-0.9-1.3-1.9-1.7-3.1c-0.4-1.2-0.6-2.5-0.6-3.8c0-1.3,0.2-2.6,0.6-3.8s0.9-2.2,1.7-3.1c0.7-0.9,1.7-1.6,2.8-2.1
		c1.1-0.5,2.3-0.8,3.8-0.8S572.6,409,573.7,409.5z M567.1,411.3c-0.8,0.5-1.5,1.1-2,1.8c-0.5,0.7-0.9,1.6-1.2,2.5
		c-0.3,0.9-0.4,1.9-0.4,2.9c0,1,0.1,2,0.4,2.9c0.3,0.9,0.7,1.8,1.2,2.5c0.5,0.7,1.2,1.3,2,1.8c0.8,0.5,1.8,0.7,2.8,0.7
		s2-0.2,2.8-0.7c0.8-0.5,1.5-1.1,2-1.8c0.5-0.7,0.9-1.6,1.2-2.5c0.3-0.9,0.4-1.9,0.4-2.9c0-1-0.1-1.9-0.4-2.9
		c-0.3-0.9-0.7-1.8-1.2-2.5c-0.5-0.7-1.2-1.3-2-1.8c-0.8-0.5-1.8-0.7-2.8-0.7S567.9,410.8,567.1,411.3z"/>
	<path class="st0" d="M250,443.2v3.5h0.1c0.5-1.3,1.4-2.3,2.6-3c1.2-0.7,2.5-1.1,4.1-1.1c1.4,0,2.6,0.3,3.7,0.8
		c1,0.5,1.9,1.2,2.6,2.1c0.7,0.9,1.2,1.9,1.5,3.1s0.5,2.4,0.5,3.8c0,1.3-0.2,2.6-0.5,3.8s-0.9,2.2-1.5,3.1c-0.7,0.9-1.6,1.6-2.6,2.1
		s-2.3,0.8-3.7,0.8c-0.7,0-1.3-0.1-2-0.3c-0.7-0.2-1.3-0.4-1.9-0.8c-0.6-0.3-1.1-0.8-1.5-1.3c-0.4-0.5-0.8-1.1-1-1.8h-0.1v10.4H248
		v-25.4H250z M262.5,449.7c-0.2-0.9-0.6-1.8-1.1-2.5c-0.5-0.7-1.1-1.4-1.9-1.8c-0.8-0.5-1.7-0.7-2.8-0.7c-1.2,0-2.3,0.2-3.1,0.6
		s-1.5,1-2,1.7c-0.5,0.7-0.9,1.6-1.1,2.5c-0.2,1-0.3,2-0.3,3c0,1,0.1,1.9,0.3,2.9c0.2,0.9,0.6,1.8,1.1,2.5c0.5,0.7,1.2,1.4,2,1.8
		c0.8,0.5,1.8,0.7,3,0.7c1.1,0,2-0.2,2.8-0.7c0.8-0.5,1.4-1.1,1.9-1.8c0.5-0.7,0.9-1.6,1.1-2.5c0.2-0.9,0.3-1.9,0.3-2.9
		C262.8,451.6,262.7,450.6,262.5,449.7z"/>
	<path class="st0" d="M269.1,446.1c0.4-0.8,0.9-1.4,1.6-1.9c0.7-0.5,1.4-0.9,2.3-1.1c0.9-0.2,1.9-0.4,3-0.4c0.8,0,1.6,0.1,2.4,0.2
		c0.8,0.2,1.5,0.4,2.2,0.9c0.6,0.4,1.2,1,1.6,1.8c0.4,0.8,0.6,1.8,0.6,3v9.9c0,0.9,0.4,1.4,1.3,1.4c0.3,0,0.5,0,0.7-0.1v1.9
		c-0.3,0-0.5,0.1-0.7,0.1c-0.2,0-0.5,0-0.8,0c-0.6,0-1-0.1-1.4-0.2c-0.3-0.2-0.6-0.4-0.8-0.7c-0.2-0.3-0.3-0.6-0.4-1
		s-0.1-0.8-0.1-1.3h-0.1c-0.4,0.6-0.8,1.1-1.2,1.6c-0.4,0.5-0.9,0.9-1.4,1.2c-0.5,0.3-1.1,0.6-1.8,0.7c-0.7,0.2-1.4,0.3-2.4,0.3
		c-0.9,0-1.7-0.1-2.4-0.3c-0.8-0.2-1.4-0.5-2-1c-0.6-0.4-1-1-1.3-1.7c-0.3-0.7-0.5-1.5-0.5-2.4c0-1.3,0.3-2.3,0.9-3
		c0.6-0.7,1.3-1.3,2.3-1.7s2-0.7,3.2-0.8c1.2-0.2,2.4-0.3,3.6-0.5c0.5,0,0.9-0.1,1.3-0.2c0.4-0.1,0.7-0.2,0.9-0.4
		c0.2-0.2,0.4-0.4,0.6-0.7c0.1-0.3,0.2-0.7,0.2-1.2c0-0.8-0.1-1.4-0.4-1.9c-0.3-0.5-0.6-0.9-1-1.2c-0.4-0.3-1-0.5-1.5-0.6
		c-0.6-0.1-1.2-0.2-1.9-0.2c-1.4,0-2.6,0.3-3.5,1c-0.9,0.7-1.4,1.8-1.4,3.3h-2.3C268.5,447.9,268.7,446.9,269.1,446.1z M280.4,451.7
		c-0.1,0.3-0.4,0.5-0.8,0.6c-0.4,0.1-0.8,0.2-1.1,0.3c-1,0.2-2,0.3-3,0.5c-1,0.1-2,0.3-2.8,0.6s-1.5,0.6-2.1,1.1
		c-0.5,0.5-0.8,1.2-0.8,2.1c0,0.6,0.1,1.1,0.3,1.5c0.2,0.4,0.5,0.8,0.9,1.2c0.4,0.3,0.8,0.6,1.3,0.7c0.5,0.2,1,0.3,1.5,0.3
		c0.9,0,1.7-0.1,2.5-0.4c0.8-0.3,1.5-0.6,2.1-1.2c0.6-0.5,1.1-1.1,1.4-1.8c0.3-0.7,0.5-1.5,0.5-2.4L280.4,451.7L280.4,451.7z"/>
	<path class="st0" d="M289.4,443.2v4.4h0.1c0.6-1.5,1.5-2.7,2.7-3.5s2.7-1.2,4.3-1.1v2.3c-1,0-2,0.1-2.8,0.4
		c-0.8,0.3-1.6,0.8-2.2,1.4c-0.6,0.6-1.1,1.3-1.4,2.1c-0.3,0.8-0.5,1.7-0.5,2.7v9.9h-2.3v-18.6H289.4z"/>
	<path class="st0" d="M299.1,446.1c0.4-0.8,0.9-1.4,1.6-1.9c0.7-0.5,1.4-0.9,2.3-1.1c0.9-0.2,1.9-0.4,3-0.4c0.8,0,1.6,0.1,2.4,0.2
		c0.8,0.2,1.5,0.4,2.2,0.9c0.6,0.4,1.2,1,1.6,1.8c0.4,0.8,0.6,1.8,0.6,3v9.9c0,0.9,0.4,1.4,1.3,1.4c0.3,0,0.5,0,0.7-0.1v1.9
		c-0.3,0-0.5,0.1-0.7,0.1c-0.2,0-0.5,0-0.8,0c-0.6,0-1-0.1-1.4-0.2c-0.3-0.2-0.6-0.4-0.8-0.7c-0.2-0.3-0.3-0.6-0.4-1
		s-0.1-0.8-0.1-1.3h-0.1c-0.4,0.6-0.8,1.1-1.2,1.6c-0.4,0.5-0.9,0.9-1.4,1.2c-0.5,0.3-1.1,0.6-1.8,0.7c-0.7,0.2-1.4,0.3-2.4,0.3
		c-0.9,0-1.7-0.1-2.4-0.3c-0.8-0.2-1.4-0.5-2-1c-0.6-0.4-1-1-1.3-1.7c-0.3-0.7-0.5-1.5-0.5-2.4c0-1.3,0.3-2.3,0.9-3
		c0.6-0.7,1.3-1.3,2.3-1.7s2-0.7,3.2-0.8c1.2-0.2,2.4-0.3,3.6-0.5c0.5,0,0.9-0.1,1.3-0.2c0.4-0.1,0.7-0.2,0.9-0.4
		c0.2-0.2,0.4-0.4,0.6-0.7c0.1-0.3,0.2-0.7,0.2-1.2c0-0.8-0.1-1.4-0.4-1.9c-0.3-0.5-0.6-0.9-1-1.2c-0.4-0.3-1-0.5-1.5-0.6
		c-0.6-0.1-1.2-0.2-1.9-0.2c-1.4,0-2.6,0.3-3.5,1c-0.9,0.7-1.4,1.8-1.4,3.3h-2.3C298.5,447.9,298.7,446.9,299.1,446.1z M310.5,451.7
		c-0.1,0.3-0.4,0.5-0.8,0.6c-0.4,0.1-0.8,0.2-1.1,0.3c-1,0.2-2,0.3-3,0.5c-1,0.1-2,0.3-2.8,0.6s-1.5,0.6-2.1,1.1
		c-0.5,0.5-0.8,1.2-0.8,2.1c0,0.6,0.1,1.1,0.3,1.5c0.2,0.4,0.5,0.8,0.9,1.2c0.4,0.3,0.8,0.6,1.3,0.7c0.5,0.2,1,0.3,1.5,0.3
		c0.9,0,1.7-0.1,2.5-0.4c0.8-0.3,1.5-0.6,2.1-1.2c0.6-0.5,1.1-1.1,1.4-1.8c0.3-0.7,0.5-1.5,0.5-2.4L310.5,451.7L310.5,451.7z"/>
	<path class="st0" d="M340.3,461.8v-3.3h-0.1c-0.6,1.2-1.5,2.2-2.6,2.9c-1.1,0.7-2.4,1-3.8,1c-1.2,0-2.2-0.2-3-0.5
		c-0.8-0.3-1.5-0.8-2-1.4c-0.5-0.6-0.9-1.3-1.1-2.2c-0.2-0.9-0.4-1.8-0.4-3v-12.1h2.3v12.1c0,1.7,0.4,3,1.2,3.8
		c0.7,0.9,2,1.3,3.8,1.3c1,0,1.8-0.2,2.5-0.6c0.7-0.4,1.3-1,1.7-1.7c0.5-0.7,0.8-1.5,1-2.4s0.3-1.8,0.3-2.8v-9.8h2.3v18.6H340.3z"/>
	<path class="st0" d="M348.9,443.2v3.2h0.1c0.4-1.1,1.2-2,2.3-2.7c1.1-0.7,2.3-1,3.6-1c1.3,0,2.4,0.2,3.3,0.5
		c0.9,0.3,1.6,0.8,2.1,1.4c0.5,0.6,0.9,1.4,1.1,2.2c0.2,0.9,0.3,1.9,0.3,3v12h-2.3v-11.6c0-0.8-0.1-1.5-0.2-2.2
		c-0.1-0.7-0.4-1.3-0.8-1.8c-0.4-0.5-0.8-0.9-1.5-1.2c-0.6-0.3-1.4-0.4-2.3-0.4s-1.7,0.2-2.4,0.5c-0.7,0.3-1.3,0.8-1.8,1.3
		c-0.5,0.6-0.9,1.2-1.2,2c-0.3,0.8-0.4,1.6-0.5,2.5v10.8h-2.3v-18.6H348.9z"/>
	<path class="st0" d="M366.5,446.1c0.4-0.8,0.9-1.4,1.6-1.9c0.7-0.5,1.4-0.9,2.3-1.1c0.9-0.2,1.9-0.4,3-0.4c0.8,0,1.6,0.1,2.4,0.2
		c0.8,0.2,1.5,0.4,2.2,0.9c0.6,0.4,1.2,1,1.6,1.8c0.4,0.8,0.6,1.8,0.6,3v9.9c0,0.9,0.4,1.4,1.3,1.4c0.3,0,0.5,0,0.7-0.1v1.9
		c-0.3,0-0.5,0.1-0.7,0.1c-0.2,0-0.5,0-0.8,0c-0.6,0-1-0.1-1.4-0.2c-0.3-0.2-0.6-0.4-0.8-0.7c-0.2-0.3-0.3-0.6-0.4-1
		s-0.1-0.8-0.1-1.3H378c-0.4,0.6-0.8,1.1-1.2,1.6c-0.4,0.5-0.9,0.9-1.4,1.2c-0.5,0.3-1.1,0.6-1.8,0.7c-0.7,0.2-1.4,0.3-2.4,0.3
		c-0.9,0-1.7-0.1-2.4-0.3c-0.8-0.2-1.4-0.5-2-1c-0.6-0.4-1-1-1.3-1.7c-0.3-0.7-0.5-1.5-0.5-2.4c0-1.3,0.3-2.3,0.9-3
		c0.6-0.7,1.3-1.3,2.3-1.7s2-0.7,3.2-0.8c1.2-0.2,2.4-0.3,3.6-0.5c0.5,0,0.9-0.1,1.3-0.2c0.4-0.1,0.7-0.2,0.9-0.4
		c0.2-0.2,0.4-0.4,0.6-0.7c0.1-0.3,0.2-0.7,0.2-1.2c0-0.8-0.1-1.4-0.4-1.9c-0.3-0.5-0.6-0.9-1-1.2c-0.4-0.3-1-0.5-1.5-0.6
		c-0.6-0.1-1.2-0.2-1.9-0.2c-1.4,0-2.6,0.3-3.5,1c-0.9,0.7-1.4,1.8-1.4,3.3h-2.3C365.9,447.9,366.1,446.9,366.5,446.1z M377.8,451.7
		c-0.1,0.3-0.4,0.5-0.8,0.6c-0.4,0.1-0.8,0.2-1.1,0.3c-1,0.2-2,0.3-3,0.5c-1,0.1-2,0.3-2.8,0.6s-1.5,0.6-2.1,1.1
		c-0.5,0.5-0.8,1.2-0.8,2.1c0,0.6,0.1,1.1,0.3,1.5c0.2,0.4,0.5,0.8,0.9,1.2c0.4,0.3,0.8,0.6,1.3,0.7c0.5,0.2,1,0.3,1.5,0.3
		c0.9,0,1.7-0.1,2.5-0.4c0.8-0.3,1.5-0.6,2.1-1.2c0.6-0.5,1.1-1.1,1.4-1.8c0.3-0.7,0.5-1.5,0.5-2.4L377.8,451.7L377.8,451.7z"/>
	<path class="st0" d="M397.8,436.1v25.7h-2.4v-25.7H397.8z"/>
	<path class="st0" d="M404.9,443.2v3.2h0.1c0.4-1.1,1.2-2,2.3-2.7c1.1-0.7,2.3-1,3.6-1c1.3,0,2.4,0.2,3.3,0.5
		c0.9,0.3,1.6,0.8,2.1,1.4c0.5,0.6,0.9,1.4,1.1,2.2c0.2,0.9,0.3,1.9,0.3,3v12h-2.3v-11.6c0-0.8-0.1-1.5-0.2-2.2
		c-0.1-0.7-0.4-1.3-0.8-1.8c-0.4-0.5-0.8-0.9-1.5-1.2c-0.6-0.3-1.4-0.4-2.3-0.4s-1.7,0.2-2.4,0.5c-0.7,0.3-1.3,0.8-1.8,1.3
		c-0.5,0.6-0.9,1.2-1.2,2c-0.3,0.8-0.4,1.6-0.5,2.5v10.8h-2.3v-18.6H404.9z"/>
	<path class="st0" d="M429.4,443.2v1.9h-3.8v12.5c0,0.7,0.1,1.3,0.3,1.7c0.2,0.4,0.7,0.7,1.5,0.7c0.6,0,1.3,0,1.9-0.1v1.9
		c-0.3,0-0.7,0-1,0c-0.3,0-0.7,0-1,0c-1.5,0-2.6-0.3-3.2-0.9c-0.6-0.6-0.9-1.7-0.9-3.3v-12.7h-3.2v-1.9h3.2v-5.6h2.3v5.6H429.4z"/>
	<path class="st0" d="M434.3,455.7c0.2,0.9,0.6,1.7,1.1,2.4c0.5,0.7,1.1,1.3,1.9,1.7c0.8,0.5,1.7,0.7,2.8,0.7c1.7,0,3-0.4,3.9-1.3
		c0.9-0.9,1.6-2,1.9-3.5h2.3c-0.5,2.1-1.4,3.7-2.6,4.9c-1.3,1.2-3.1,1.7-5.5,1.7c-1.5,0-2.7-0.3-3.8-0.8c-1.1-0.5-1.9-1.2-2.6-2.1
		s-1.2-1.9-1.5-3.1s-0.5-2.4-0.5-3.8c0-1.2,0.2-2.4,0.5-3.6c0.3-1.2,0.8-2.2,1.5-3.1c0.7-0.9,1.5-1.7,2.6-2.2
		c1.1-0.6,2.3-0.8,3.8-0.8c1.5,0,2.8,0.3,3.8,0.9c1.1,0.6,1.9,1.4,2.6,2.4c0.7,1,1.1,2.1,1.4,3.3c0.3,1.3,0.4,2.5,0.4,3.8H434
		C434,454,434.1,454.8,434.3,455.7z M445.6,448.8c-0.3-0.8-0.7-1.5-1.2-2.1c-0.5-0.6-1.1-1.1-1.8-1.5c-0.7-0.4-1.5-0.6-2.4-0.6
		c-0.9,0-1.8,0.2-2.5,0.6s-1.3,0.9-1.8,1.5c-0.5,0.6-0.9,1.3-1.2,2.1c-0.3,0.8-0.5,1.6-0.6,2.5h12
		C446,450.4,445.9,449.6,445.6,448.8z"/>
	<path class="st0" d="M453.4,443.2v4.4h0.1c0.6-1.5,1.5-2.7,2.7-3.5s2.7-1.2,4.3-1.1v2.3c-1,0-2,0.1-2.8,0.4
		c-0.8,0.3-1.6,0.8-2.2,1.4c-0.6,0.6-1.1,1.3-1.4,2.1c-0.3,0.8-0.5,1.7-0.5,2.7v9.9h-2.3v-18.6H453.4z"/>
	<path class="st0" d="M465.6,443.2v3.2h0.1c0.4-1.1,1.2-2,2.3-2.7c1.1-0.7,2.3-1,3.6-1c1.3,0,2.4,0.2,3.3,0.5
		c0.9,0.3,1.6,0.8,2.1,1.4c0.5,0.6,0.9,1.4,1.1,2.2c0.2,0.9,0.3,1.9,0.3,3v12h-2.3v-11.6c0-0.8-0.1-1.5-0.2-2.2
		c-0.1-0.7-0.4-1.3-0.8-1.8c-0.4-0.5-0.8-0.9-1.5-1.2c-0.6-0.3-1.4-0.4-2.3-0.4s-1.7,0.2-2.4,0.5c-0.7,0.3-1.3,0.8-1.8,1.3
		c-0.5,0.6-0.9,1.2-1.2,2c-0.3,0.8-0.4,1.6-0.5,2.5v10.8h-2.3v-18.6H465.6z"/>
	<path class="st0" d="M484.3,455.7c0.2,0.9,0.6,1.7,1.1,2.4c0.5,0.7,1.1,1.3,1.9,1.7c0.8,0.5,1.7,0.7,2.8,0.7c1.7,0,3-0.4,3.9-1.3
		c0.9-0.9,1.6-2,1.9-3.5h2.3c-0.5,2.1-1.4,3.7-2.6,4.9c-1.3,1.2-3.1,1.7-5.5,1.7c-1.5,0-2.7-0.3-3.8-0.8c-1.1-0.5-1.9-1.2-2.6-2.1
		s-1.2-1.9-1.5-3.1s-0.5-2.4-0.5-3.8c0-1.2,0.2-2.4,0.5-3.6c0.3-1.2,0.8-2.2,1.5-3.1c0.7-0.9,1.5-1.7,2.6-2.2
		c1.1-0.6,2.3-0.8,3.8-0.8c1.5,0,2.8,0.3,3.8,0.9c1.1,0.6,1.9,1.4,2.6,2.4c0.7,1,1.1,2.1,1.4,3.3c0.3,1.3,0.4,2.5,0.4,3.8H484
		C484,454,484.1,454.8,484.3,455.7z M495.6,448.8c-0.3-0.8-0.7-1.5-1.2-2.1c-0.5-0.6-1.1-1.1-1.8-1.5c-0.7-0.4-1.5-0.6-2.4-0.6
		c-0.9,0-1.8,0.2-2.5,0.6s-1.3,0.9-1.8,1.5c-0.5,0.6-0.9,1.3-1.2,2.1c-0.3,0.8-0.5,1.6-0.6,2.5h12
		C496,450.4,495.9,449.6,495.6,448.8z"/>
	<path class="st0" d="M508.7,443.2v1.9H505v12.5c0,0.7,0.1,1.3,0.3,1.7c0.2,0.4,0.7,0.7,1.5,0.7c0.6,0,1.3,0,1.9-0.1v1.9
		c-0.3,0-0.7,0-1,0c-0.3,0-0.7,0-1,0c-1.5,0-2.6-0.3-3.2-0.9c-0.6-0.6-0.9-1.7-0.9-3.3v-12.7h-3.2v-1.9h3.2v-5.6h2.3v5.6H508.7z"/>
	<path class="st0" d="M524.9,436.1v23.6h14.4v2.1h-16.8v-25.7H524.9z"/>
	<path class="st0" d="M543.7,436.1v3.6h-2.3v-3.6H543.7z M543.7,443.2v18.6h-2.3v-18.6H543.7z"/>
	<path class="st0" d="M550.3,436.1v10.7h0.1c0.2-0.7,0.6-1.3,1-1.8c0.4-0.5,1-0.9,1.5-1.3c0.6-0.3,1.2-0.6,1.9-0.8s1.3-0.3,2-0.3
		c1.4,0,2.6,0.3,3.7,0.8c1,0.5,1.9,1.2,2.6,2.1c0.7,0.9,1.2,1.9,1.5,3.1s0.5,2.4,0.5,3.8c0,1.3-0.2,2.6-0.5,3.8s-0.9,2.2-1.5,3.1
		c-0.7,0.9-1.6,1.6-2.6,2.1s-2.3,0.8-3.7,0.8c-1.5,0-2.9-0.3-4.1-1c-1.2-0.7-2-1.7-2.6-3h-0.1v3.5H548v-25.7H550.3z M562.5,449.7
		c-0.2-0.9-0.6-1.8-1.1-2.5c-0.5-0.7-1.1-1.4-1.9-1.8c-0.8-0.5-1.7-0.7-2.8-0.7c-1.2,0-2.2,0.2-3,0.7c-0.8,0.5-1.5,1.1-2,1.8
		c-0.5,0.7-0.9,1.6-1.1,2.5c-0.2,0.9-0.3,1.9-0.3,2.9c0,1,0.1,1.9,0.3,2.9c0.2,0.9,0.6,1.8,1.1,2.5c0.5,0.7,1.2,1.4,2,1.8
		c0.8,0.5,1.8,0.7,3,0.7c1.1,0,2-0.2,2.8-0.7c0.8-0.5,1.4-1.1,1.9-1.8c0.5-0.7,0.9-1.6,1.1-2.5c0.2-0.9,0.3-1.9,0.3-2.9
		C562.9,451.6,562.8,450.6,562.5,449.7z"/>
	<path class="st0" d="M570.8,443.2v4.4h0.1c0.6-1.5,1.5-2.7,2.7-3.5s2.7-1.2,4.3-1.1v2.3c-1,0-2,0.1-2.8,0.4
		c-0.8,0.3-1.6,0.8-2.2,1.4c-0.6,0.6-1.1,1.3-1.4,2.1c-0.3,0.8-0.5,1.7-0.5,2.7v9.9h-2.3v-18.6H570.8z"/>
	<path class="st0" d="M581,455.7c0.2,0.9,0.6,1.7,1.1,2.4c0.5,0.7,1.1,1.3,1.9,1.7c0.8,0.5,1.7,0.7,2.8,0.7c1.7,0,3-0.4,3.9-1.3
		c0.9-0.9,1.6-2,1.9-3.5h2.3c-0.5,2.1-1.4,3.7-2.6,4.9c-1.3,1.2-3.1,1.7-5.5,1.7c-1.5,0-2.7-0.3-3.8-0.8c-1.1-0.5-1.9-1.2-2.6-2.1
		s-1.2-1.9-1.5-3.1s-0.5-2.4-0.5-3.8c0-1.2,0.2-2.4,0.5-3.6c0.3-1.2,0.8-2.2,1.5-3.1c0.7-0.9,1.5-1.7,2.6-2.2
		c1.1-0.6,2.3-0.8,3.8-0.8c1.5,0,2.8,0.3,3.8,0.9c1.1,0.6,1.9,1.4,2.6,2.4c0.7,1,1.1,2.1,1.4,3.3c0.3,1.3,0.4,2.5,0.4,3.8h-14.3
		C580.7,454,580.8,454.8,581,455.7z M592.3,448.8c-0.3-0.8-0.7-1.5-1.2-2.1c-0.5-0.6-1.1-1.1-1.8-1.5c-0.7-0.4-1.5-0.6-2.4-0.6
		c-0.9,0-1.8,0.2-2.5,0.6s-1.3,0.9-1.8,1.5c-0.5,0.6-0.9,1.3-1.2,2.1c-0.3,0.8-0.5,1.6-0.6,2.5h12
		C592.7,450.4,592.5,449.6,592.3,448.8z"/>
	<path class="st0" d="M608.4,443.2l6.1,15.8l5.7-15.8h2.3l-8.1,21.4c-0.3,0.8-0.6,1.4-0.9,2c-0.3,0.5-0.6,0.9-1,1.2
		c-0.3,0.3-0.8,0.5-1.2,0.6c-0.5,0.1-1.1,0.2-1.8,0.2c-0.5,0-0.8,0-1.1-0.1c-0.3,0-0.5-0.1-0.7-0.1v-1.9c0.3,0,0.5,0.1,0.8,0.1
		s0.5,0.1,0.8,0.1c0.5,0,0.9-0.1,1.2-0.2s0.6-0.3,0.8-0.6c0.2-0.3,0.4-0.6,0.6-0.9c0.2-0.4,0.3-0.8,0.5-1.2l0.8-2.1l-7.4-18.5H608.4
		z"/>
	<path class="st0" d="M645.4,436.1l10.1,25.7h-2.6l-3.1-8H638l-3.1,8h-2.6l10.3-25.7H645.4z M648.9,451.7l-5-13.2l-5.1,13.2H648.9z"
		/>
	<path class="st0" d="M659.7,436.1v10.7h0.1c0.2-0.7,0.6-1.3,1-1.8c0.4-0.5,1-0.9,1.5-1.3c0.6-0.3,1.2-0.6,1.9-0.8s1.3-0.3,2-0.3
		c1.4,0,2.6,0.3,3.7,0.8c1,0.5,1.9,1.2,2.6,2.1c0.7,0.9,1.2,1.9,1.5,3.1s0.5,2.4,0.5,3.8c0,1.3-0.2,2.6-0.5,3.8s-0.9,2.2-1.5,3.1
		c-0.7,0.9-1.6,1.6-2.6,2.1s-2.3,0.8-3.7,0.8c-1.5,0-2.9-0.3-4.1-1c-1.2-0.7-2-1.7-2.6-3h-0.1v3.5h-2.1v-25.7H659.7z M671.9,449.7
		c-0.2-0.9-0.6-1.8-1.1-2.5c-0.5-0.7-1.1-1.4-1.9-1.8c-0.8-0.5-1.7-0.7-2.8-0.7c-1.2,0-2.2,0.2-3,0.7c-0.8,0.5-1.5,1.1-2,1.8
		c-0.5,0.7-0.9,1.6-1.1,2.5c-0.2,0.9-0.3,1.9-0.3,2.9c0,1,0.1,1.9,0.3,2.9c0.2,0.9,0.6,1.8,1.1,2.5c0.5,0.7,1.2,1.4,2,1.8
		c0.8,0.5,1.8,0.7,3,0.7c1.1,0,2-0.2,2.8-0.7c0.8-0.5,1.4-1.1,1.9-1.8c0.5-0.7,0.9-1.6,1.1-2.5c0.2-0.9,0.3-1.9,0.3-2.9
		C672.3,451.6,672.2,450.6,671.9,449.7z"/>
	<path class="st0" d="M680.4,436.1v3.6h-2.3v-3.6H680.4z M680.4,443.2v18.6h-2.3v-18.6H680.4z"/>
	<path class="st0" d="M686.4,455.7c0.2,0.9,0.6,1.7,1.1,2.4c0.5,0.7,1.1,1.3,1.9,1.7c0.8,0.5,1.7,0.7,2.8,0.7c1.7,0,3-0.4,3.9-1.3
		c0.9-0.9,1.6-2,1.9-3.5h2.3c-0.5,2.1-1.4,3.7-2.6,4.9c-1.3,1.2-3.1,1.7-5.5,1.7c-1.5,0-2.7-0.3-3.8-0.8c-1.1-0.5-1.9-1.2-2.6-2.1
		s-1.2-1.9-1.5-3.1s-0.5-2.4-0.5-3.8c0-1.2,0.2-2.4,0.5-3.6c0.3-1.2,0.8-2.2,1.5-3.1c0.7-0.9,1.5-1.7,2.6-2.2
		c1.1-0.6,2.3-0.8,3.8-0.8c1.5,0,2.8,0.3,3.8,0.9c1.1,0.6,1.9,1.4,2.6,2.4c0.7,1,1.1,2.1,1.4,3.3c0.3,1.3,0.4,2.5,0.4,3.8h-14.3
		C686.1,454,686.2,454.8,686.4,455.7z M697.6,448.8c-0.3-0.8-0.7-1.5-1.2-2.1c-0.5-0.6-1.1-1.1-1.8-1.5c-0.7-0.4-1.5-0.6-2.4-0.6
		c-0.9,0-1.8,0.2-2.5,0.6s-1.3,0.9-1.8,1.5c-0.5,0.6-0.9,1.3-1.2,2.1c-0.3,0.8-0.5,1.6-0.6,2.5h12
		C698.1,450.4,697.9,449.6,697.6,448.8z"/>
	<path class="st0" d="M705.5,443.2v4.4h0.1c0.6-1.5,1.5-2.7,2.7-3.5s2.7-1.2,4.3-1.1v2.3c-1,0-2,0.1-2.8,0.4
		c-0.8,0.3-1.6,0.8-2.2,1.4c-0.6,0.6-1.1,1.3-1.4,2.1c-0.3,0.8-0.5,1.7-0.5,2.7v9.9h-2.3v-18.6H705.5z"/>
	<path class="st0" d="M722.1,443.2v1.9h-3.8v12.5c0,0.7,0.1,1.3,0.3,1.7c0.2,0.4,0.7,0.7,1.5,0.7c0.6,0,1.3,0,1.9-0.1v1.9
		c-0.3,0-0.7,0-1,0c-0.3,0-0.7,0-1,0c-1.5,0-2.6-0.3-3.2-0.9c-0.6-0.6-0.9-1.7-0.9-3.3v-12.7h-3.2v-1.9h3.2v-5.6h2.3v5.6H722.1z"/>
	<path class="st0" d="M725.9,446.1c0.4-0.8,0.9-1.4,1.6-1.9c0.7-0.5,1.4-0.9,2.3-1.1c0.9-0.2,1.9-0.4,3-0.4c0.8,0,1.6,0.1,2.4,0.2
		c0.8,0.2,1.5,0.4,2.2,0.9c0.6,0.4,1.2,1,1.6,1.8c0.4,0.8,0.6,1.8,0.6,3v9.9c0,0.9,0.4,1.4,1.3,1.4c0.3,0,0.5,0,0.7-0.1v1.9
		c-0.3,0-0.5,0.1-0.7,0.1c-0.2,0-0.5,0-0.8,0c-0.6,0-1-0.1-1.4-0.2c-0.3-0.2-0.6-0.4-0.8-0.7c-0.2-0.3-0.3-0.6-0.4-1
		s-0.1-0.8-0.1-1.3h-0.1c-0.4,0.6-0.8,1.1-1.2,1.6c-0.4,0.5-0.9,0.9-1.4,1.2c-0.5,0.3-1.1,0.6-1.8,0.7c-0.7,0.2-1.4,0.3-2.4,0.3
		c-0.9,0-1.7-0.1-2.4-0.3c-0.8-0.2-1.4-0.5-2-1c-0.6-0.4-1-1-1.3-1.7c-0.3-0.7-0.5-1.5-0.5-2.4c0-1.3,0.3-2.3,0.9-3
		c0.6-0.7,1.3-1.3,2.3-1.7s2-0.7,3.2-0.8c1.2-0.2,2.4-0.3,3.6-0.5c0.5,0,0.9-0.1,1.3-0.2c0.4-0.1,0.7-0.2,0.9-0.4
		c0.2-0.2,0.4-0.4,0.6-0.7c0.1-0.3,0.2-0.7,0.2-1.2c0-0.8-0.1-1.4-0.4-1.9c-0.3-0.5-0.6-0.9-1-1.2c-0.4-0.3-1-0.5-1.5-0.6
		c-0.6-0.1-1.2-0.2-1.9-0.2c-1.4,0-2.6,0.3-3.5,1c-0.9,0.7-1.4,1.8-1.4,3.3h-2.3C725.3,447.9,725.5,446.9,725.9,446.1z M737.2,451.7
		c-0.1,0.3-0.4,0.5-0.8,0.6c-0.4,0.1-0.8,0.2-1.1,0.3c-1,0.2-2,0.3-3,0.5c-1,0.1-2,0.3-2.8,0.6s-1.5,0.6-2.1,1.1
		c-0.5,0.5-0.8,1.2-0.8,2.1c0,0.6,0.1,1.1,0.3,1.5c0.2,0.4,0.5,0.8,0.9,1.2c0.4,0.3,0.8,0.6,1.3,0.7c0.5,0.2,1,0.3,1.5,0.3
		c0.9,0,1.7-0.1,2.5-0.4c0.8-0.3,1.5-0.6,2.1-1.2c0.6-0.5,1.1-1.1,1.4-1.8c0.3-0.7,0.5-1.5,0.5-2.4L737.2,451.7L737.2,451.7z"/>
</g>
</svg>
