<?xml version="1.0" encoding="utf-8"?>
<!-- Generator: Adobe Illustrator 21.1.0, SVG Export Plug-In . SVG Version: 6.00 Build 0)  -->
<svg version="1.1" id="Layer_1" xmlns="http://www.w3.org/2000/svg" x="0px" y="0px"
	 viewBox="105 345 385 163" style="enable-background:new 105 345 385 163;" xml:space="preserve">
<style type="text/css">
	.st0{fill:#009DCA;}
	*{fill:#ffffff;}
</style>
<g>
	<g>
		<g>
			<g>
				<path d="M267.9,406c0.2,2,0.3,4.1,0.3,6.4c0,11.6-2.8,20-8.3,25.2c-5.5,5.2-11.8,7.7-18.8,7.7c-8.9,0-15.3-2.8-19.3-8.4
					c-2.8-3.9-4.6-9.1-5.4-15.5l-19.1-16.1c-3.9-3.3-5.2-6.6-4.1-9.8c0.7-1.8,2.7-4.8,8.8-4.8c3.9,0,9.4,1.3,12.7,4.1l3.2,2.7
					c1.3-3.7,3.1-6.8,5.5-9.3c5-5.2,11.2-7.8,18.5-7.8c3.4,0,6.5,0.4,9.3,1.2c5.4-7.9,11.2-15.7,17.3-23.2c-7.1-2.4-15.1-3.6-24-3.6
					c-17.7,0-32.6,5.5-44.7,16.6c-12.1,11-18.1,25.4-18.1,43.2c0,18.1,4.9,32.1,14.6,41.9c9.8,9.8,24.2,14.7,43.2,14.7
					c18.1,0,33-5.5,45-16.6c11.9-11.1,17.9-25.6,17.9-43.5c0-16.1-3.7-28.6-11.2-37.7C282.9,383.7,275.1,394.6,267.9,406z"/>
				<path d="M148.7,381.1v18.1h18.2v25.4h-18.2V471h-35.1V354.6h68v26.5H148.7z"/>
				<path d="M368.2,471l-23-44.6H344V471h-33.9V355.3c4.4,0,14.3-0.1,23.6-0.3c9.3-0.2,15.2-0.3,17.7-0.3c14.6,0,25.6,2.8,33.2,8.4
					c7.5,5.6,11.3,14.4,11.3,26.6c0,6.8-1.8,13.1-5.4,18.7c-3.6,5.6-8.6,9.6-15,11.9l8.1,12.9l22.3,37.9H368.2z M349.8,380H344v24
					l5.1,0.7c4.4,0,7.9-1.1,10.4-3.3c2.5-2.2,3.8-5.4,3.8-9.5c0-3.6-1.1-6.5-3.2-8.7C358,381.1,354.5,380,349.8,380z"/>
				<path d="M458,381.1V471h-30.8v-89.9h-24.2v-26.5h79.3v26.5H458z"/>
			</g>
			<path class="st0" d="M287.1,344.4c-20.5,22.4-38,47-52.3,73.8c-7.8-6.6-15.5-13.1-23.3-19.7c-4.6-3.9-19.6-4.5-11,2.8
				c11.2,9.4,22.3,18.8,33.5,28.3c2.3,2,11.2,6.6,13.5,2.2c14.5-28.6,32.4-54.7,54.1-78.4C306,348.5,290.7,340.5,287.1,344.4z"/>
		</g>
	</g>
	<g>
		<path d="M122.6,487.6v0.9h-3.9v10.4h-1.1v-10.4h-3.9v-0.9H122.6z"/>
		<path d="M122.5,496.2c0.1,0.4,0.3,0.7,0.5,1c0.2,0.3,0.5,0.6,0.8,0.8c0.3,0.2,0.7,0.3,1.2,0.3c0.7,0,1.3-0.2,1.7-0.6
			c0.4-0.4,0.7-0.9,0.9-1.5h1c-0.2,0.9-0.6,1.6-1.2,2.1c-0.6,0.5-1.4,0.8-2.4,0.8c-0.6,0-1.2-0.1-1.7-0.3c-0.5-0.2-0.9-0.5-1.1-0.9
			c-0.3-0.4-0.5-0.9-0.7-1.4c-0.1-0.5-0.2-1.1-0.2-1.7c0-0.5,0.1-1.1,0.2-1.6c0.1-0.5,0.4-1,0.7-1.4c0.3-0.4,0.7-0.7,1.1-1
			c0.5-0.2,1-0.4,1.7-0.4c0.7,0,1.2,0.1,1.7,0.4s0.8,0.6,1.1,1c0.3,0.4,0.5,0.9,0.6,1.5c0.1,0.6,0.2,1.1,0.2,1.7h-6.3
			C122.3,495.4,122.4,495.8,122.5,496.2z M127.4,493.1c-0.1-0.3-0.3-0.7-0.5-0.9c-0.2-0.3-0.5-0.5-0.8-0.6c-0.3-0.2-0.7-0.2-1.1-0.2
			c-0.4,0-0.8,0.1-1.1,0.2c-0.3,0.2-0.6,0.4-0.8,0.6c-0.2,0.3-0.4,0.6-0.5,0.9c-0.1,0.4-0.2,0.7-0.3,1.1h5.3
			C127.6,493.8,127.5,493.5,127.4,493.1z"/>
		<path d="M134.9,491.8c-0.4-0.3-0.9-0.5-1.5-0.5c-0.5,0-0.9,0.1-1.2,0.3c-0.4,0.2-0.7,0.5-0.9,0.8c-0.2,0.3-0.4,0.7-0.5,1.1
			c-0.1,0.4-0.2,0.8-0.2,1.3c0,0.4,0.1,0.9,0.2,1.3c0.1,0.4,0.3,0.8,0.5,1.1c0.2,0.3,0.5,0.6,0.9,0.8c0.4,0.2,0.8,0.3,1.2,0.3
			c0.3,0,0.6-0.1,0.9-0.2s0.5-0.3,0.7-0.5c0.2-0.2,0.4-0.5,0.5-0.7c0.1-0.3,0.2-0.6,0.3-0.9h1c-0.1,1-0.5,1.8-1.1,2.3
			c-0.6,0.6-1.3,0.8-2.3,0.8c-0.6,0-1.2-0.1-1.6-0.3c-0.5-0.2-0.9-0.5-1.2-0.9c-0.3-0.4-0.6-0.8-0.7-1.4c-0.2-0.5-0.3-1.1-0.3-1.7
			c0-0.6,0.1-1.1,0.3-1.7c0.2-0.5,0.4-1,0.7-1.4c0.3-0.4,0.7-0.7,1.2-0.9c0.5-0.2,1-0.3,1.6-0.3c0.9,0,1.6,0.2,2.2,0.7
			c0.6,0.5,1,1.2,1.1,2.1h-1C135.5,492.7,135.3,492.2,134.9,491.8z"/>
		<path d="M139.1,490.7v1.4h0c0.2-0.5,0.5-0.9,1-1.2c0.5-0.3,1-0.5,1.6-0.5c0.6,0,1,0.1,1.4,0.2c0.4,0.1,0.7,0.4,0.9,0.6
			c0.2,0.3,0.4,0.6,0.5,1c0.1,0.4,0.1,0.8,0.1,1.3v5.2h-1v-5.1c0-0.3,0-0.7-0.1-1c-0.1-0.3-0.2-0.6-0.3-0.8
			c-0.2-0.2-0.4-0.4-0.6-0.5c-0.3-0.1-0.6-0.2-1-0.2c-0.4,0-0.8,0.1-1.1,0.2c-0.3,0.1-0.6,0.3-0.8,0.6c-0.2,0.2-0.4,0.5-0.5,0.9
			c-0.1,0.3-0.2,0.7-0.2,1.1v4.8h-1v-8.1H139.1z"/>
		<path d="M151.7,490.8c0.5,0.2,0.9,0.5,1.2,0.9c0.3,0.4,0.6,0.8,0.7,1.4c0.2,0.5,0.3,1.1,0.3,1.7c0,0.6-0.1,1.1-0.3,1.7
			c-0.2,0.5-0.4,1-0.7,1.4c-0.3,0.4-0.7,0.7-1.2,0.9c-0.5,0.2-1,0.3-1.7,0.3s-1.2-0.1-1.6-0.3c-0.5-0.2-0.9-0.5-1.2-0.9
			c-0.3-0.4-0.6-0.8-0.7-1.4c-0.2-0.5-0.3-1.1-0.3-1.7c0-0.6,0.1-1.1,0.3-1.7c0.2-0.5,0.4-1,0.7-1.4c0.3-0.4,0.7-0.7,1.2-0.9
			c0.5-0.2,1-0.3,1.6-0.3S151.2,490.6,151.7,490.8z M148.8,491.6c-0.4,0.2-0.7,0.5-0.9,0.8c-0.2,0.3-0.4,0.7-0.5,1.1
			c-0.1,0.4-0.2,0.8-0.2,1.3c0,0.4,0.1,0.9,0.2,1.3c0.1,0.4,0.3,0.8,0.5,1.1c0.2,0.3,0.5,0.6,0.9,0.8c0.4,0.2,0.8,0.3,1.2,0.3
			c0.5,0,0.9-0.1,1.2-0.3c0.4-0.2,0.7-0.5,0.9-0.8c0.2-0.3,0.4-0.7,0.5-1.1c0.1-0.4,0.2-0.8,0.2-1.3c0-0.4-0.1-0.9-0.2-1.3
			c-0.1-0.4-0.3-0.8-0.5-1.1c-0.2-0.3-0.5-0.6-0.9-0.8c-0.4-0.2-0.8-0.3-1.2-0.3C149.6,491.3,149.1,491.4,148.8,491.6z"/>
		<path d="M156.4,487.6v11.3h-1v-11.3H156.4z"/>
		<path d="M163.4,490.8c0.5,0.2,0.9,0.5,1.2,0.9c0.3,0.4,0.6,0.8,0.7,1.4c0.2,0.5,0.3,1.1,0.3,1.7c0,0.6-0.1,1.1-0.3,1.7
			c-0.2,0.5-0.4,1-0.7,1.4c-0.3,0.4-0.7,0.7-1.2,0.9c-0.5,0.2-1,0.3-1.7,0.3c-0.6,0-1.2-0.1-1.6-0.3c-0.5-0.2-0.9-0.5-1.2-0.9
			c-0.3-0.4-0.6-0.8-0.7-1.4c-0.2-0.5-0.3-1.1-0.3-1.7c0-0.6,0.1-1.1,0.3-1.7c0.2-0.5,0.4-1,0.7-1.4c0.3-0.4,0.7-0.7,1.2-0.9
			c0.5-0.2,1-0.3,1.6-0.3C162.4,490.5,162.9,490.6,163.4,490.8z M160.5,491.6c-0.4,0.2-0.7,0.5-0.9,0.8c-0.2,0.3-0.4,0.7-0.5,1.1
			c-0.1,0.4-0.2,0.8-0.2,1.3c0,0.4,0.1,0.9,0.2,1.3c0.1,0.4,0.3,0.8,0.5,1.1c0.2,0.3,0.5,0.6,0.9,0.8c0.4,0.2,0.8,0.3,1.2,0.3
			c0.5,0,0.9-0.1,1.2-0.3c0.4-0.2,0.7-0.5,0.9-0.8c0.2-0.3,0.4-0.7,0.5-1.1c0.1-0.4,0.2-0.8,0.2-1.3c0-0.4-0.1-0.9-0.2-1.3
			c-0.1-0.4-0.3-0.8-0.5-1.1c-0.2-0.3-0.5-0.6-0.9-0.8c-0.4-0.2-0.8-0.3-1.2-0.3C161.3,491.3,160.8,491.4,160.5,491.6z"/>
		<path d="M173.8,499.8c-0.1,0.5-0.3,0.9-0.6,1.2c-0.3,0.3-0.7,0.6-1.1,0.8c-0.5,0.2-1,0.3-1.7,0.3c-0.4,0-0.8,0-1.2-0.1
			c-0.4-0.1-0.7-0.2-1.1-0.4c-0.3-0.2-0.6-0.5-0.8-0.8c-0.2-0.3-0.3-0.7-0.4-1.1h1c0.1,0.3,0.2,0.6,0.3,0.8c0.2,0.2,0.3,0.4,0.6,0.5
			c0.2,0.1,0.5,0.2,0.7,0.3c0.3,0.1,0.5,0.1,0.8,0.1c0.9,0,1.6-0.3,2-0.8c0.4-0.5,0.6-1.3,0.6-2.3v-1.1h0c-0.2,0.5-0.6,0.9-1,1.2
			c-0.4,0.3-1,0.5-1.6,0.5c-0.7,0-1.2-0.1-1.7-0.3c-0.5-0.2-0.8-0.5-1.1-0.9c-0.3-0.4-0.5-0.8-0.7-1.3c-0.1-0.5-0.2-1.1-0.2-1.6
			c0-0.6,0.1-1.1,0.2-1.6c0.2-0.5,0.4-0.9,0.7-1.3c0.3-0.4,0.7-0.7,1.2-0.9c0.5-0.2,1-0.3,1.6-0.3c0.3,0,0.6,0,0.9,0.1
			c0.3,0.1,0.5,0.2,0.7,0.4c0.2,0.2,0.4,0.3,0.6,0.5c0.2,0.2,0.3,0.4,0.4,0.6h0v-1.4h1v7.5C174,498.8,173.9,499.3,173.8,499.8z
			 M171.5,497.7c0.3-0.2,0.6-0.4,0.8-0.7c0.2-0.3,0.4-0.6,0.5-1c0.1-0.4,0.2-0.8,0.2-1.2c0-0.4,0-0.8-0.1-1.2
			c-0.1-0.4-0.2-0.8-0.5-1.1c-0.2-0.3-0.5-0.6-0.8-0.8c-0.3-0.2-0.7-0.3-1.2-0.3c-0.5,0-0.9,0.1-1.2,0.3c-0.3,0.2-0.6,0.4-0.8,0.8
			c-0.2,0.3-0.4,0.7-0.5,1.1c-0.1,0.4-0.1,0.8-0.1,1.2c0,0.4,0.1,0.8,0.2,1.2c0.1,0.4,0.3,0.7,0.5,1c0.2,0.3,0.5,0.5,0.8,0.7
			c0.3,0.2,0.7,0.3,1.2,0.3C170.8,497.9,171.2,497.8,171.5,497.7z"/>
		<path d="M175.4,489.6l1.7-2.2h1.2l-2.1,2.2H175.4z M175.9,490.7h1v8.1h-1V490.7z"/>
		<path d="M179,492c0.2-0.3,0.4-0.6,0.7-0.9c0.3-0.2,0.6-0.4,1-0.5c0.4-0.1,0.8-0.2,1.3-0.2c0.4,0,0.7,0,1.1,0.1
			c0.4,0.1,0.7,0.2,1,0.4c0.3,0.2,0.5,0.5,0.7,0.8c0.2,0.3,0.3,0.8,0.3,1.3v4.3c0,0.4,0.2,0.6,0.6,0.6c0.1,0,0.2,0,0.3-0.1v0.8
			c-0.1,0-0.2,0-0.3,0c-0.1,0-0.2,0-0.3,0c-0.3,0-0.5,0-0.6-0.1c-0.2-0.1-0.3-0.2-0.4-0.3c-0.1-0.1-0.1-0.3-0.2-0.4s0-0.4,0-0.6h0
			c-0.2,0.3-0.4,0.5-0.5,0.7c-0.2,0.2-0.4,0.4-0.6,0.5c-0.2,0.1-0.5,0.2-0.8,0.3c-0.3,0.1-0.6,0.1-1,0.1c-0.4,0-0.7,0-1.1-0.1
			c-0.3-0.1-0.6-0.2-0.9-0.4c-0.2-0.2-0.4-0.4-0.6-0.7c-0.1-0.3-0.2-0.7-0.2-1.1c0-0.6,0.1-1,0.4-1.3s0.6-0.6,1-0.7
			c0.4-0.2,0.9-0.3,1.4-0.4c0.5-0.1,1.1-0.1,1.6-0.2c0.2,0,0.4,0,0.6-0.1c0.2,0,0.3-0.1,0.4-0.2c0.1-0.1,0.2-0.2,0.2-0.3
			c0.1-0.1,0.1-0.3,0.1-0.5c0-0.3-0.1-0.6-0.2-0.8c-0.1-0.2-0.3-0.4-0.5-0.5c-0.2-0.1-0.4-0.2-0.7-0.3c-0.3,0-0.5-0.1-0.8-0.1
			c-0.6,0-1.1,0.2-1.5,0.4c-0.4,0.3-0.6,0.8-0.6,1.4h-1C178.7,492.7,178.8,492.3,179,492z M184,494.4c-0.1,0.1-0.2,0.2-0.4,0.3
			c-0.2,0.1-0.3,0.1-0.5,0.1c-0.4,0.1-0.9,0.1-1.3,0.2c-0.4,0.1-0.9,0.1-1.2,0.3c-0.4,0.1-0.7,0.3-0.9,0.5c-0.2,0.2-0.4,0.5-0.4,0.9
			c0,0.3,0.1,0.5,0.1,0.7c0.1,0.2,0.2,0.4,0.4,0.5c0.2,0.1,0.4,0.3,0.6,0.3c0.2,0.1,0.4,0.1,0.7,0.1c0.4,0,0.7-0.1,1.1-0.2
			s0.6-0.3,0.9-0.5c0.3-0.2,0.5-0.5,0.6-0.8c0.2-0.3,0.2-0.7,0.2-1.1L184,494.4L184,494.4z"/>
		<path d="M191.7,492.3c-0.1-0.2-0.3-0.4-0.5-0.6c-0.2-0.1-0.4-0.3-0.7-0.3c-0.3-0.1-0.5-0.1-0.8-0.1c-0.2,0-0.4,0-0.7,0.1
			c-0.2,0-0.4,0.1-0.6,0.2c-0.2,0.1-0.3,0.3-0.5,0.4c-0.1,0.2-0.2,0.4-0.2,0.7c0,0.2,0.1,0.4,0.2,0.6c0.1,0.2,0.3,0.3,0.4,0.4
			c0.2,0.1,0.4,0.2,0.6,0.3c0.2,0.1,0.4,0.1,0.6,0.2l1.3,0.3c0.3,0,0.6,0.1,0.8,0.2c0.3,0.1,0.5,0.3,0.7,0.4
			c0.2,0.2,0.4,0.4,0.5,0.7c0.1,0.3,0.2,0.6,0.2,0.9c0,0.4-0.1,0.8-0.3,1.1s-0.5,0.6-0.8,0.8c-0.3,0.2-0.7,0.3-1.1,0.4
			c-0.4,0.1-0.8,0.1-1.2,0.1c-1,0-1.7-0.2-2.3-0.7c-0.6-0.5-0.9-1.2-1-2.2h1c0,0.7,0.3,1.2,0.7,1.5c0.4,0.3,1,0.5,1.7,0.5
			c0.2,0,0.5,0,0.8-0.1c0.3-0.1,0.5-0.1,0.7-0.3c0.2-0.1,0.4-0.3,0.5-0.5s0.2-0.4,0.2-0.7c0-0.2-0.1-0.4-0.1-0.6
			c-0.1-0.2-0.2-0.3-0.4-0.4c-0.2-0.1-0.4-0.2-0.6-0.3c-0.2-0.1-0.4-0.1-0.7-0.2l-1.3-0.3c-0.3-0.1-0.6-0.2-0.9-0.3
			s-0.5-0.2-0.7-0.4c-0.2-0.2-0.4-0.4-0.5-0.6s-0.2-0.5-0.2-0.9c0-0.4,0.1-0.8,0.3-1.1c0.2-0.3,0.4-0.5,0.7-0.7
			c0.3-0.2,0.6-0.3,1-0.4c0.4-0.1,0.7-0.1,1.1-0.1c0.4,0,0.8,0.1,1.1,0.2c0.4,0.1,0.7,0.3,0.9,0.5c0.3,0.2,0.5,0.5,0.6,0.8
			c0.2,0.3,0.2,0.7,0.3,1.2h-1C191.8,492.8,191.8,492.5,191.7,492.3z"/>
		<path d="M205.2,498.9v-1.5h0c-0.1,0.3-0.3,0.5-0.5,0.7c-0.2,0.2-0.4,0.4-0.7,0.6c-0.3,0.2-0.5,0.3-0.8,0.4
			c-0.3,0.1-0.6,0.1-0.9,0.1c-0.6,0-1.2-0.1-1.6-0.3c-0.5-0.2-0.8-0.5-1.1-0.9c-0.3-0.4-0.5-0.9-0.7-1.4c-0.1-0.5-0.2-1.1-0.2-1.7
			c0-0.6,0.1-1.1,0.2-1.7c0.1-0.5,0.4-1,0.7-1.4c0.3-0.4,0.7-0.7,1.1-0.9c0.5-0.2,1-0.3,1.6-0.3c0.3,0,0.6,0,0.9,0.1
			c0.3,0.1,0.6,0.2,0.8,0.3c0.3,0.2,0.5,0.3,0.7,0.6c0.2,0.2,0.3,0.5,0.5,0.8h0v-4.7h1v11.3H205.2z M199.8,496
			c0.1,0.4,0.3,0.8,0.5,1.1c0.2,0.3,0.5,0.6,0.8,0.8c0.3,0.2,0.7,0.3,1.2,0.3c0.5,0,1-0.1,1.3-0.3c0.4-0.2,0.7-0.5,0.9-0.8
			c0.2-0.3,0.4-0.7,0.5-1.1c0.1-0.4,0.1-0.8,0.1-1.3c0-0.4,0-0.8-0.1-1.3c-0.1-0.4-0.3-0.8-0.5-1.1c-0.2-0.3-0.5-0.6-0.9-0.8
			c-0.4-0.2-0.8-0.3-1.3-0.3c-0.5,0-0.9,0.1-1.2,0.3c-0.3,0.2-0.6,0.5-0.8,0.8c-0.2,0.3-0.4,0.7-0.5,1.1c-0.1,0.4-0.1,0.8-0.1,1.3
			C199.6,495.2,199.7,495.6,199.8,496z"/>
		<path d="M208.8,496.2c0.1,0.4,0.3,0.7,0.5,1c0.2,0.3,0.5,0.6,0.8,0.8c0.3,0.2,0.7,0.3,1.2,0.3c0.7,0,1.3-0.2,1.7-0.6
			c0.4-0.4,0.7-0.9,0.9-1.5h1c-0.2,0.9-0.6,1.6-1.2,2.1c-0.6,0.5-1.4,0.8-2.4,0.8c-0.6,0-1.2-0.1-1.7-0.3c-0.5-0.2-0.9-0.5-1.1-0.9
			c-0.3-0.4-0.5-0.9-0.7-1.4s-0.2-1.1-0.2-1.7c0-0.5,0.1-1.1,0.2-1.6s0.4-1,0.7-1.4c0.3-0.4,0.7-0.7,1.1-1c0.5-0.2,1-0.4,1.7-0.4
			c0.7,0,1.2,0.1,1.7,0.4c0.5,0.3,0.8,0.6,1.1,1c0.3,0.4,0.5,0.9,0.6,1.5c0.1,0.6,0.2,1.1,0.2,1.7h-6.3
			C208.6,495.4,208.7,495.8,208.8,496.2z M213.7,493.1c-0.1-0.3-0.3-0.7-0.5-0.9c-0.2-0.3-0.5-0.5-0.8-0.6c-0.3-0.2-0.7-0.2-1.1-0.2
			c-0.4,0-0.8,0.1-1.1,0.2c-0.3,0.2-0.6,0.4-0.8,0.6c-0.2,0.3-0.4,0.6-0.5,0.9c-0.1,0.4-0.2,0.7-0.3,1.1h5.3
			C213.9,493.8,213.8,493.5,213.7,493.1z"/>
		<path d="M226,487.6c0.5,0,0.9,0.1,1.3,0.2c0.4,0.1,0.8,0.3,1.1,0.5c0.3,0.2,0.6,0.5,0.7,0.9c0.2,0.4,0.3,0.8,0.3,1.3
			c0,0.7-0.2,1.3-0.6,1.9c-0.4,0.5-0.9,0.9-1.6,1v0c0.4,0.1,0.7,0.2,0.9,0.3c0.2,0.1,0.4,0.3,0.6,0.5c0.2,0.2,0.3,0.5,0.3,0.8
			c0.1,0.3,0.1,0.6,0.1,0.9c0,0.2,0,0.4,0,0.7c0,0.3,0,0.6,0.1,0.8c0,0.3,0.1,0.5,0.1,0.8c0.1,0.2,0.2,0.4,0.3,0.6h-1.2
			c-0.1-0.1-0.1-0.2-0.1-0.4c0-0.2-0.1-0.3-0.1-0.5c0-0.2,0-0.3,0-0.5c0-0.2,0-0.3,0-0.4c0-0.4-0.1-0.8-0.1-1.2
			c0-0.4-0.1-0.7-0.3-1.1c-0.2-0.3-0.4-0.6-0.7-0.8c-0.3-0.2-0.7-0.3-1.2-0.3h-4.1v5h-1.1v-11.3H226z M225.9,492.9
			c0.3,0,0.6-0.1,0.9-0.2c0.3-0.1,0.6-0.2,0.8-0.4c0.2-0.2,0.4-0.4,0.5-0.7c0.1-0.3,0.2-0.6,0.2-0.9c0-0.7-0.2-1.2-0.6-1.6
			c-0.4-0.4-1-0.6-1.8-0.6h-4v4.4H225.9z"/>
		<path d="M236.8,498.9v-1.5h0c-0.3,0.5-0.6,1-1.1,1.3c-0.5,0.3-1.1,0.4-1.7,0.4c-0.5,0-1-0.1-1.3-0.2c-0.4-0.1-0.7-0.3-0.9-0.6
			s-0.4-0.6-0.5-1c-0.1-0.4-0.2-0.8-0.2-1.3v-5.3h1v5.3c0,0.7,0.2,1.3,0.5,1.7s0.9,0.6,1.7,0.6c0.4,0,0.8-0.1,1.1-0.3
			c0.3-0.2,0.6-0.4,0.8-0.7c0.2-0.3,0.3-0.7,0.4-1.1c0.1-0.4,0.1-0.8,0.1-1.2v-4.3h1v8.1H236.8z"/>
		<path d="M242.9,490.7v0.8h-1.7v5.5c0,0.3,0,0.6,0.1,0.8c0.1,0.2,0.3,0.3,0.7,0.3c0.3,0,0.6,0,0.9,0v0.8c-0.1,0-0.3,0-0.4,0
			c-0.1,0-0.3,0-0.4,0c-0.7,0-1.1-0.1-1.4-0.4c-0.3-0.3-0.4-0.7-0.4-1.4v-5.6h-1.4v-0.8h1.4v-2.4h1v2.4H242.9z"/>
		<path d="M245,496.2c0.1,0.4,0.3,0.7,0.5,1c0.2,0.3,0.5,0.6,0.8,0.8c0.3,0.2,0.7,0.3,1.2,0.3c0.7,0,1.3-0.2,1.7-0.6
			c0.4-0.4,0.7-0.9,0.9-1.5h1c-0.2,0.9-0.6,1.6-1.2,2.1c-0.6,0.5-1.4,0.8-2.4,0.8c-0.6,0-1.2-0.1-1.7-0.3c-0.5-0.2-0.9-0.5-1.1-0.9
			c-0.3-0.4-0.5-0.9-0.7-1.4c-0.1-0.5-0.2-1.1-0.2-1.7c0-0.5,0.1-1.1,0.2-1.6c0.1-0.5,0.4-1,0.7-1.4c0.3-0.4,0.7-0.7,1.1-1
			c0.5-0.2,1-0.4,1.7-0.4c0.7,0,1.2,0.1,1.7,0.4c0.5,0.3,0.8,0.6,1.1,1c0.3,0.4,0.5,0.9,0.6,1.5c0.1,0.6,0.2,1.1,0.2,1.7h-6.3
			C244.9,495.4,244.9,495.8,245,496.2z M250,493.1c-0.1-0.3-0.3-0.7-0.5-0.9c-0.2-0.3-0.5-0.5-0.8-0.6c-0.3-0.2-0.7-0.2-1.1-0.2
			c-0.4,0-0.8,0.1-1.1,0.2c-0.3,0.2-0.6,0.4-0.8,0.6c-0.2,0.3-0.4,0.6-0.5,0.9c-0.1,0.4-0.2,0.7-0.3,1.1h5.3
			C250.1,493.8,250.1,493.5,250,493.1z"/>
		<path d="M257.6,490.8c0.5,0.2,0.9,0.5,1.2,0.9c0.3,0.4,0.6,0.8,0.7,1.4c0.2,0.5,0.3,1.1,0.3,1.7c0,0.6-0.1,1.1-0.3,1.7
			c-0.2,0.5-0.4,1-0.7,1.4c-0.3,0.4-0.7,0.7-1.2,0.9c-0.5,0.2-1,0.3-1.7,0.3s-1.2-0.1-1.6-0.3c-0.5-0.2-0.9-0.5-1.2-0.9
			c-0.3-0.4-0.6-0.8-0.7-1.4c-0.2-0.5-0.3-1.1-0.3-1.7c0-0.6,0.1-1.1,0.3-1.7c0.2-0.5,0.4-1,0.7-1.4c0.3-0.4,0.7-0.7,1.2-0.9
			c0.5-0.2,1-0.3,1.6-0.3S257.1,490.6,257.6,490.8z M254.7,491.6c-0.4,0.2-0.7,0.5-0.9,0.8c-0.2,0.3-0.4,0.7-0.5,1.1
			c-0.1,0.4-0.2,0.8-0.2,1.3c0,0.4,0.1,0.9,0.2,1.3c0.1,0.4,0.3,0.8,0.5,1.1c0.2,0.3,0.5,0.6,0.9,0.8c0.4,0.2,0.8,0.3,1.2,0.3
			c0.5,0,0.9-0.1,1.2-0.3c0.4-0.2,0.7-0.5,0.9-0.8c0.2-0.3,0.4-0.7,0.5-1.1c0.1-0.4,0.2-0.8,0.2-1.3c0-0.4-0.1-0.9-0.2-1.3
			c-0.1-0.4-0.3-0.8-0.5-1.1c-0.2-0.3-0.5-0.6-0.9-0.8c-0.4-0.2-0.8-0.3-1.2-0.3C255.5,491.3,255,491.4,254.7,491.6z"/>
		<path d="M266.6,490.7v1.5h0c0.2-0.6,0.6-1,1.1-1.3c0.5-0.3,1.1-0.5,1.8-0.5c0.6,0,1.2,0.1,1.6,0.3c0.5,0.2,0.8,0.5,1.1,0.9
			c0.3,0.4,0.5,0.9,0.7,1.4c0.1,0.5,0.2,1.1,0.2,1.7c0,0.6-0.1,1.1-0.2,1.7c-0.1,0.5-0.4,1-0.7,1.4c-0.3,0.4-0.7,0.7-1.1,0.9
			c-0.5,0.2-1,0.3-1.6,0.3c-0.3,0-0.6,0-0.9-0.1c-0.3-0.1-0.6-0.2-0.8-0.3c-0.3-0.1-0.5-0.3-0.7-0.6c-0.2-0.2-0.3-0.5-0.5-0.8h0v4.5
			h-1v-11.1H266.6z M272,493.5c-0.1-0.4-0.3-0.8-0.5-1.1c-0.2-0.3-0.5-0.6-0.8-0.8c-0.3-0.2-0.7-0.3-1.2-0.3c-0.5,0-1,0.1-1.4,0.3
			c-0.4,0.2-0.7,0.4-0.9,0.8c-0.2,0.3-0.4,0.7-0.5,1.1c-0.1,0.4-0.1,0.9-0.1,1.3c0,0.4,0,0.8,0.1,1.3c0.1,0.4,0.3,0.8,0.5,1.1
			c0.2,0.3,0.5,0.6,0.9,0.8c0.4,0.2,0.8,0.3,1.3,0.3c0.5,0,0.9-0.1,1.2-0.3c0.3-0.2,0.6-0.5,0.8-0.8c0.2-0.3,0.4-0.7,0.5-1.1
			c0.1-0.4,0.2-0.8,0.2-1.3C272.2,494.4,272.1,493.9,272,493.5z"/>
		<path d="M274.9,492c0.2-0.3,0.4-0.6,0.7-0.9c0.3-0.2,0.6-0.4,1-0.5c0.4-0.1,0.8-0.2,1.3-0.2c0.4,0,0.7,0,1.1,0.1
			c0.4,0.1,0.7,0.2,1,0.4c0.3,0.2,0.5,0.5,0.7,0.8c0.2,0.3,0.3,0.8,0.3,1.3v4.3c0,0.4,0.2,0.6,0.6,0.6c0.1,0,0.2,0,0.3-0.1v0.8
			c-0.1,0-0.2,0-0.3,0c-0.1,0-0.2,0-0.3,0c-0.3,0-0.5,0-0.6-0.1c-0.2-0.1-0.3-0.2-0.4-0.3c-0.1-0.1-0.1-0.3-0.2-0.4s0-0.4,0-0.6h0
			c-0.2,0.3-0.4,0.5-0.5,0.7c-0.2,0.2-0.4,0.4-0.6,0.5c-0.2,0.1-0.5,0.2-0.8,0.3c-0.3,0.1-0.6,0.1-1,0.1c-0.4,0-0.7,0-1.1-0.1
			c-0.3-0.1-0.6-0.2-0.9-0.4c-0.2-0.2-0.4-0.4-0.6-0.7c-0.1-0.3-0.2-0.7-0.2-1.1c0-0.6,0.1-1,0.4-1.3s0.6-0.6,1-0.7
			c0.4-0.2,0.9-0.3,1.4-0.4c0.5-0.1,1.1-0.1,1.6-0.2c0.2,0,0.4,0,0.6-0.1c0.2,0,0.3-0.1,0.4-0.2c0.1-0.1,0.2-0.2,0.2-0.3
			c0.1-0.1,0.1-0.3,0.1-0.5c0-0.3-0.1-0.6-0.2-0.8c-0.1-0.2-0.3-0.4-0.5-0.5c-0.2-0.1-0.4-0.2-0.7-0.3c-0.3,0-0.5-0.1-0.8-0.1
			c-0.6,0-1.1,0.2-1.5,0.4c-0.4,0.3-0.6,0.8-0.6,1.4h-1C274.7,492.7,274.8,492.3,274.9,492z M279.9,494.4c-0.1,0.1-0.2,0.2-0.4,0.3
			c-0.2,0.1-0.3,0.1-0.5,0.1c-0.4,0.1-0.9,0.1-1.3,0.2c-0.4,0.1-0.9,0.1-1.2,0.3c-0.4,0.1-0.7,0.3-0.9,0.5c-0.2,0.2-0.4,0.5-0.4,0.9
			c0,0.3,0.1,0.5,0.1,0.7c0.1,0.2,0.2,0.4,0.4,0.5c0.2,0.1,0.4,0.3,0.6,0.3c0.2,0.1,0.4,0.1,0.7,0.1c0.4,0,0.7-0.1,1.1-0.2
			s0.6-0.3,0.9-0.5c0.3-0.2,0.5-0.5,0.6-0.8c0.2-0.3,0.2-0.7,0.2-1.1L279.9,494.4L279.9,494.4z"/>
		<path d="M283.8,490.7v1.9h0c0.3-0.7,0.6-1.2,1.2-1.5c0.5-0.4,1.2-0.5,1.9-0.5v1c-0.5,0-0.9,0-1.2,0.2c-0.4,0.1-0.7,0.3-1,0.6
			c-0.3,0.3-0.5,0.6-0.6,0.9s-0.2,0.8-0.2,1.2v4.3h-1v-8.1H283.8z"/>
		<path d="M288.1,492c0.2-0.3,0.4-0.6,0.7-0.9c0.3-0.2,0.6-0.4,1-0.5c0.4-0.1,0.8-0.2,1.3-0.2c0.4,0,0.7,0,1.1,0.1
			c0.4,0.1,0.7,0.2,1,0.4c0.3,0.2,0.5,0.5,0.7,0.8c0.2,0.3,0.3,0.8,0.3,1.3v4.3c0,0.4,0.2,0.6,0.6,0.6c0.1,0,0.2,0,0.3-0.1v0.8
			c-0.1,0-0.2,0-0.3,0c-0.1,0-0.2,0-0.3,0c-0.3,0-0.5,0-0.6-0.1c-0.2-0.1-0.3-0.2-0.4-0.3c-0.1-0.1-0.1-0.3-0.2-0.4s0-0.4,0-0.6h0
			c-0.2,0.3-0.4,0.5-0.5,0.7c-0.2,0.2-0.4,0.4-0.6,0.5c-0.2,0.1-0.5,0.2-0.8,0.3c-0.3,0.1-0.6,0.1-1,0.1c-0.4,0-0.7,0-1.1-0.1
			c-0.3-0.1-0.6-0.2-0.9-0.4c-0.2-0.2-0.4-0.4-0.6-0.7c-0.1-0.3-0.2-0.7-0.2-1.1c0-0.6,0.1-1,0.4-1.3c0.3-0.3,0.6-0.6,1-0.7
			c0.4-0.2,0.9-0.3,1.4-0.4c0.5-0.1,1.1-0.1,1.6-0.2c0.2,0,0.4,0,0.6-0.1c0.2,0,0.3-0.1,0.4-0.2c0.1-0.1,0.2-0.2,0.2-0.3
			c0.1-0.1,0.1-0.3,0.1-0.5c0-0.3-0.1-0.6-0.2-0.8c-0.1-0.2-0.3-0.4-0.5-0.5c-0.2-0.1-0.4-0.2-0.7-0.3c-0.3,0-0.5-0.1-0.8-0.1
			c-0.6,0-1.1,0.2-1.5,0.4c-0.4,0.3-0.6,0.8-0.6,1.4h-1C287.8,492.7,287.9,492.3,288.1,492z M293.1,494.4c-0.1,0.1-0.2,0.2-0.4,0.3
			c-0.2,0.1-0.3,0.1-0.5,0.1c-0.4,0.1-0.9,0.1-1.3,0.2c-0.4,0.1-0.9,0.1-1.2,0.3c-0.4,0.1-0.7,0.3-0.9,0.5c-0.2,0.2-0.4,0.5-0.4,0.9
			c0,0.3,0.1,0.5,0.1,0.7c0.1,0.2,0.2,0.4,0.4,0.5c0.2,0.1,0.4,0.3,0.6,0.3c0.2,0.1,0.4,0.1,0.7,0.1c0.4,0,0.7-0.1,1.1-0.2
			s0.6-0.3,0.9-0.5c0.3-0.2,0.5-0.5,0.6-0.8c0.2-0.3,0.2-0.7,0.2-1.1L293.1,494.4L293.1,494.4z"/>
		<path d="M306.2,498.9v-1.5h0c-0.3,0.5-0.6,1-1.1,1.3c-0.5,0.3-1.1,0.4-1.7,0.4c-0.5,0-1-0.1-1.3-0.2c-0.4-0.1-0.7-0.3-0.9-0.6
			s-0.4-0.6-0.5-1c-0.1-0.4-0.2-0.8-0.2-1.3v-5.3h1v5.3c0,0.7,0.2,1.3,0.5,1.7s0.9,0.6,1.7,0.6c0.4,0,0.8-0.1,1.1-0.3
			c0.3-0.2,0.6-0.4,0.8-0.7c0.2-0.3,0.3-0.7,0.4-1.1c0.1-0.4,0.1-0.8,0.1-1.2v-4.3h1v8.1H306.2z"/>
		<path d="M309.9,490.7v1.4h0c0.2-0.5,0.5-0.9,1-1.2c0.5-0.3,1-0.5,1.6-0.5c0.6,0,1,0.1,1.4,0.2c0.4,0.1,0.7,0.4,0.9,0.6
			c0.2,0.3,0.4,0.6,0.5,1c0.1,0.4,0.1,0.8,0.1,1.3v5.2h-1v-5.1c0-0.3,0-0.7-0.1-1c-0.1-0.3-0.2-0.6-0.3-0.8
			c-0.2-0.2-0.4-0.4-0.6-0.5c-0.3-0.1-0.6-0.2-1-0.2c-0.4,0-0.8,0.1-1.1,0.2c-0.3,0.1-0.6,0.3-0.8,0.6c-0.2,0.2-0.4,0.5-0.5,0.9
			c-0.1,0.3-0.2,0.7-0.2,1.1v4.8h-1v-8.1H309.9z"/>
		<path d="M317.6,492c0.2-0.3,0.4-0.6,0.7-0.9c0.3-0.2,0.6-0.4,1-0.5c0.4-0.1,0.8-0.2,1.3-0.2c0.4,0,0.7,0,1.1,0.1
			c0.4,0.1,0.7,0.2,1,0.4c0.3,0.2,0.5,0.5,0.7,0.8c0.2,0.3,0.3,0.8,0.3,1.3v4.3c0,0.4,0.2,0.6,0.6,0.6c0.1,0,0.2,0,0.3-0.1v0.8
			c-0.1,0-0.2,0-0.3,0c-0.1,0-0.2,0-0.3,0c-0.3,0-0.5,0-0.6-0.1c-0.2-0.1-0.3-0.2-0.4-0.3c-0.1-0.1-0.1-0.3-0.2-0.4s0-0.4,0-0.6h0
			c-0.2,0.3-0.4,0.5-0.5,0.7c-0.2,0.2-0.4,0.4-0.6,0.5c-0.2,0.1-0.5,0.2-0.8,0.3c-0.3,0.1-0.6,0.1-1,0.1c-0.4,0-0.7,0-1.1-0.1
			c-0.3-0.1-0.6-0.2-0.9-0.4c-0.2-0.2-0.4-0.4-0.6-0.7c-0.1-0.3-0.2-0.7-0.2-1.1c0-0.6,0.1-1,0.4-1.3s0.6-0.6,1-0.7
			c0.4-0.2,0.9-0.3,1.4-0.4c0.5-0.1,1.1-0.1,1.6-0.2c0.2,0,0.4,0,0.6-0.1c0.2,0,0.3-0.1,0.4-0.2c0.1-0.1,0.2-0.2,0.2-0.3
			c0.1-0.1,0.1-0.3,0.1-0.5c0-0.3-0.1-0.6-0.2-0.8c-0.1-0.2-0.3-0.4-0.5-0.5c-0.2-0.1-0.4-0.2-0.7-0.3c-0.3,0-0.5-0.1-0.8-0.1
			c-0.6,0-1.1,0.2-1.5,0.4c-0.4,0.3-0.6,0.8-0.6,1.4h-1C317.4,492.7,317.5,492.3,317.6,492z M322.6,494.4c-0.1,0.1-0.2,0.2-0.4,0.3
			c-0.2,0.1-0.3,0.1-0.5,0.1c-0.4,0.1-0.9,0.1-1.3,0.2c-0.4,0.1-0.9,0.1-1.2,0.3c-0.4,0.1-0.7,0.3-0.9,0.5c-0.2,0.2-0.4,0.5-0.4,0.9
			c0,0.3,0.1,0.5,0.1,0.7c0.1,0.2,0.2,0.4,0.4,0.5c0.2,0.1,0.4,0.3,0.6,0.3c0.2,0.1,0.4,0.1,0.7,0.1c0.4,0,0.7-0.1,1.1-0.2
			s0.6-0.3,0.9-0.5c0.3-0.2,0.5-0.5,0.6-0.8c0.2-0.3,0.2-0.7,0.2-1.1L322.6,494.4L322.6,494.4z"/>
		<path d="M331.4,487.6v11.3h-1.1v-11.3H331.4z"/>
		<path d="M334.5,490.7v1.4h0c0.2-0.5,0.5-0.9,1-1.2c0.5-0.3,1-0.5,1.6-0.5c0.6,0,1,0.1,1.4,0.2c0.4,0.1,0.7,0.4,0.9,0.6
			c0.2,0.3,0.4,0.6,0.5,1c0.1,0.4,0.1,0.8,0.1,1.3v5.2h-1v-5.1c0-0.3,0-0.7-0.1-1c-0.1-0.3-0.2-0.6-0.3-0.8
			c-0.2-0.2-0.4-0.4-0.6-0.5c-0.3-0.1-0.6-0.2-1-0.2c-0.4,0-0.8,0.1-1.1,0.2c-0.3,0.1-0.6,0.3-0.8,0.6c-0.2,0.2-0.4,0.5-0.5,0.9
			c-0.1,0.3-0.2,0.7-0.2,1.1v4.8h-1v-8.1H334.5z"/>
		<path d="M345.2,490.7v0.8h-1.7v5.5c0,0.3,0,0.6,0.1,0.8c0.1,0.2,0.3,0.3,0.7,0.3c0.3,0,0.6,0,0.9,0v0.8c-0.1,0-0.3,0-0.4,0
			c-0.1,0-0.3,0-0.4,0c-0.7,0-1.1-0.1-1.4-0.4c-0.3-0.3-0.4-0.7-0.4-1.4v-5.6h-1.4v-0.8h1.4v-2.4h1v2.4H345.2z"/>
		<path d="M347.4,496.2c0.1,0.4,0.3,0.7,0.5,1c0.2,0.3,0.5,0.6,0.8,0.8c0.3,0.2,0.7,0.3,1.2,0.3c0.7,0,1.3-0.2,1.7-0.6
			c0.4-0.4,0.7-0.9,0.9-1.5h1c-0.2,0.9-0.6,1.6-1.2,2.1c-0.6,0.5-1.4,0.8-2.4,0.8c-0.6,0-1.2-0.1-1.7-0.3c-0.5-0.2-0.9-0.5-1.1-0.9
			c-0.3-0.4-0.5-0.9-0.7-1.4s-0.2-1.1-0.2-1.7c0-0.5,0.1-1.1,0.2-1.6s0.4-1,0.7-1.4c0.3-0.4,0.7-0.7,1.1-1c0.5-0.2,1-0.4,1.7-0.4
			c0.7,0,1.2,0.1,1.7,0.4c0.5,0.3,0.8,0.6,1.1,1c0.3,0.4,0.5,0.9,0.6,1.5c0.1,0.6,0.2,1.1,0.2,1.7h-6.3
			C347.3,495.4,347.3,495.8,347.4,496.2z M352.3,493.1c-0.1-0.3-0.3-0.7-0.5-0.9c-0.2-0.3-0.5-0.5-0.8-0.6c-0.3-0.2-0.7-0.2-1.1-0.2
			c-0.4,0-0.8,0.1-1.1,0.2c-0.3,0.2-0.6,0.4-0.8,0.6c-0.2,0.3-0.4,0.6-0.5,0.9c-0.1,0.4-0.2,0.7-0.3,1.1h5.3
			C352.5,493.8,352.5,493.5,352.3,493.1z"/>
		<path d="M355.8,490.7v1.9h0c0.3-0.7,0.6-1.2,1.2-1.5c0.5-0.4,1.2-0.5,1.9-0.5v1c-0.5,0-0.9,0-1.2,0.2c-0.4,0.1-0.7,0.3-1,0.6
			c-0.3,0.3-0.5,0.6-0.6,0.9c-0.1,0.4-0.2,0.8-0.2,1.2v4.3h-1v-8.1H355.8z"/>
		<path d="M361.1,490.7v1.4h0c0.2-0.5,0.5-0.9,1-1.2c0.5-0.3,1-0.5,1.6-0.5c0.6,0,1,0.1,1.4,0.2c0.4,0.1,0.7,0.4,0.9,0.6
			c0.2,0.3,0.4,0.6,0.5,1c0.1,0.4,0.1,0.8,0.1,1.3v5.2h-1v-5.1c0-0.3,0-0.7-0.1-1c-0.1-0.3-0.2-0.6-0.3-0.8
			c-0.2-0.2-0.4-0.4-0.6-0.5c-0.3-0.1-0.6-0.2-1-0.2c-0.4,0-0.8,0.1-1.1,0.2c-0.3,0.1-0.6,0.3-0.8,0.6c-0.2,0.2-0.4,0.5-0.5,0.9
			c-0.1,0.3-0.2,0.7-0.2,1.1v4.8h-1v-8.1H361.1z"/>
		<path d="M369.3,496.2c0.1,0.4,0.3,0.7,0.5,1c0.2,0.3,0.5,0.6,0.8,0.8c0.3,0.2,0.7,0.3,1.2,0.3c0.7,0,1.3-0.2,1.7-0.6
			c0.4-0.4,0.7-0.9,0.9-1.5h1c-0.2,0.9-0.6,1.6-1.2,2.1c-0.6,0.5-1.4,0.8-2.4,0.8c-0.6,0-1.2-0.1-1.7-0.3c-0.5-0.2-0.9-0.5-1.1-0.9
			c-0.3-0.4-0.5-0.9-0.7-1.4s-0.2-1.1-0.2-1.7c0-0.5,0.1-1.1,0.2-1.6s0.4-1,0.7-1.4c0.3-0.4,0.7-0.7,1.1-1c0.5-0.2,1-0.4,1.7-0.4
			c0.7,0,1.2,0.1,1.7,0.4s0.8,0.6,1.1,1c0.3,0.4,0.5,0.9,0.6,1.5c0.1,0.6,0.2,1.1,0.2,1.7h-6.3C369.2,495.4,369.2,495.8,369.3,496.2
			z M374.3,493.1c-0.1-0.3-0.3-0.7-0.5-0.9c-0.2-0.3-0.5-0.5-0.8-0.6c-0.3-0.2-0.7-0.2-1.1-0.2c-0.4,0-0.8,0.1-1.1,0.2
			c-0.3,0.2-0.6,0.4-0.8,0.6c-0.2,0.3-0.4,0.6-0.5,0.9c-0.1,0.4-0.2,0.7-0.3,1.1h5.3C374.5,493.8,374.4,493.5,374.3,493.1z"/>
		<path d="M380,490.7v0.8h-1.7v5.5c0,0.3,0,0.6,0.1,0.8c0.1,0.2,0.3,0.3,0.7,0.3c0.3,0,0.6,0,0.9,0v0.8c-0.1,0-0.3,0-0.4,0
			c-0.1,0-0.3,0-0.4,0c-0.7,0-1.1-0.1-1.4-0.4c-0.3-0.3-0.4-0.7-0.4-1.4v-5.6H376v-0.8h1.4v-2.4h1v2.4H380z"/>
		<path d="M387.1,487.6v10.4h6.3v0.9h-7.4v-11.3H387.1z"/>
		<path d="M395.4,487.6v1.6h-1v-1.6H395.4z M395.4,490.7v8.1h-1v-8.1H395.4z"/>
		<path d="M398.3,487.6v4.7h0c0.1-0.3,0.3-0.6,0.5-0.8c0.2-0.2,0.4-0.4,0.7-0.6c0.3-0.2,0.5-0.3,0.8-0.3c0.3-0.1,0.6-0.1,0.9-0.1
			c0.6,0,1.2,0.1,1.6,0.3c0.5,0.2,0.8,0.5,1.1,0.9c0.3,0.4,0.5,0.9,0.7,1.4c0.1,0.5,0.2,1.1,0.2,1.7c0,0.6-0.1,1.1-0.2,1.7
			c-0.1,0.5-0.4,1-0.7,1.4c-0.3,0.4-0.7,0.7-1.1,0.9c-0.5,0.2-1,0.3-1.6,0.3c-0.7,0-1.3-0.2-1.8-0.5c-0.5-0.3-0.9-0.7-1.1-1.3h0v1.5
			h-0.9v-11.3H398.3z M403.6,493.5c-0.1-0.4-0.3-0.8-0.5-1.1c-0.2-0.3-0.5-0.6-0.8-0.8c-0.3-0.2-0.7-0.3-1.2-0.3
			c-0.5,0-1,0.1-1.3,0.3c-0.4,0.2-0.7,0.5-0.9,0.8c-0.2,0.3-0.4,0.7-0.5,1.1c-0.1,0.4-0.1,0.8-0.1,1.3c0,0.4,0,0.8,0.1,1.3
			c0.1,0.4,0.3,0.8,0.5,1.1c0.2,0.3,0.5,0.6,0.9,0.8c0.4,0.2,0.8,0.3,1.3,0.3c0.5,0,0.9-0.1,1.2-0.3c0.3-0.2,0.6-0.5,0.8-0.8
			c0.2-0.3,0.4-0.7,0.5-1.1c0.1-0.4,0.2-0.8,0.2-1.3C403.8,494.4,403.7,493.9,403.6,493.5z"/>
		<path d="M407.2,490.7v1.9h0c0.3-0.7,0.6-1.2,1.2-1.5c0.5-0.4,1.2-0.5,1.9-0.5v1c-0.5,0-0.9,0-1.2,0.2c-0.4,0.1-0.7,0.3-1,0.6
			c-0.3,0.3-0.5,0.6-0.6,0.9c-0.1,0.4-0.2,0.8-0.2,1.2v4.3h-1v-8.1H407.2z"/>
		<path d="M411.8,496.2c0.1,0.4,0.3,0.7,0.5,1c0.2,0.3,0.5,0.6,0.8,0.8c0.3,0.2,0.7,0.3,1.2,0.3c0.7,0,1.3-0.2,1.7-0.6
			c0.4-0.4,0.7-0.9,0.9-1.5h1c-0.2,0.9-0.6,1.6-1.2,2.1c-0.6,0.5-1.4,0.8-2.4,0.8c-0.6,0-1.2-0.1-1.7-0.3c-0.5-0.2-0.9-0.5-1.1-0.9
			c-0.3-0.4-0.5-0.9-0.7-1.4s-0.2-1.1-0.2-1.7c0-0.5,0.1-1.1,0.2-1.6s0.4-1,0.7-1.4c0.3-0.4,0.7-0.7,1.1-1c0.5-0.2,1-0.4,1.7-0.4
			c0.7,0,1.2,0.1,1.7,0.4s0.8,0.6,1.1,1c0.3,0.4,0.5,0.9,0.6,1.5c0.1,0.6,0.2,1.1,0.2,1.7h-6.3C411.6,495.4,411.7,495.8,411.8,496.2
			z M416.7,493.1c-0.1-0.3-0.3-0.7-0.5-0.9c-0.2-0.3-0.5-0.5-0.8-0.6c-0.3-0.2-0.7-0.2-1.1-0.2c-0.4,0-0.8,0.1-1.1,0.2
			c-0.3,0.2-0.6,0.4-0.8,0.6c-0.2,0.3-0.4,0.6-0.5,0.9c-0.1,0.4-0.2,0.7-0.3,1.1h5.3C416.9,493.8,416.8,493.5,416.7,493.1z"/>
		<path d="M423.7,490.7l2.7,6.9l2.5-6.9h1l-3.5,9.4c-0.1,0.3-0.3,0.6-0.4,0.9c-0.1,0.2-0.3,0.4-0.4,0.5s-0.3,0.2-0.5,0.3
			c-0.2,0.1-0.5,0.1-0.8,0.1c-0.2,0-0.4,0-0.5,0c-0.1,0-0.2,0-0.3-0.1v-0.8c0.1,0,0.2,0,0.3,0.1c0.1,0,0.2,0,0.3,0
			c0.2,0,0.4,0,0.5-0.1c0.1-0.1,0.3-0.2,0.4-0.3c0.1-0.1,0.2-0.2,0.3-0.4c0.1-0.2,0.2-0.3,0.2-0.5l0.3-0.9l-3.3-8.1H423.7z"/>
		<path d="M440,487.6l4.4,11.3h-1.2l-1.4-3.5h-5.1l-1.4,3.5h-1.1l4.5-11.3H440z M441.5,494.4l-2.2-5.8l-2.3,5.8H441.5z"/>
		<path d="M446.3,487.6v4.7h0c0.1-0.3,0.3-0.6,0.5-0.8c0.2-0.2,0.4-0.4,0.7-0.6c0.3-0.2,0.5-0.3,0.8-0.3c0.3-0.1,0.6-0.1,0.9-0.1
			c0.6,0,1.2,0.1,1.6,0.3c0.5,0.2,0.8,0.5,1.1,0.9c0.3,0.4,0.5,0.9,0.7,1.4c0.1,0.5,0.2,1.1,0.2,1.7c0,0.6-0.1,1.1-0.2,1.7
			c-0.1,0.5-0.4,1-0.7,1.4c-0.3,0.4-0.7,0.7-1.1,0.9c-0.5,0.2-1,0.3-1.6,0.3c-0.7,0-1.3-0.2-1.8-0.5c-0.5-0.3-0.9-0.7-1.1-1.3h0v1.5
			h-0.9v-11.3H446.3z M451.6,493.5c-0.1-0.4-0.3-0.8-0.5-1.1c-0.2-0.3-0.5-0.6-0.8-0.8c-0.3-0.2-0.7-0.3-1.2-0.3
			c-0.5,0-1,0.1-1.3,0.3c-0.4,0.2-0.7,0.5-0.9,0.8c-0.2,0.3-0.4,0.7-0.5,1.1c-0.1,0.4-0.1,0.8-0.1,1.3c0,0.4,0,0.8,0.1,1.3
			c0.1,0.4,0.3,0.8,0.5,1.1c0.2,0.3,0.5,0.6,0.9,0.8c0.4,0.2,0.8,0.3,1.3,0.3c0.5,0,0.9-0.1,1.2-0.3c0.3-0.2,0.6-0.5,0.8-0.8
			c0.2-0.3,0.4-0.7,0.5-1.1c0.1-0.4,0.2-0.8,0.2-1.3C451.8,494.4,451.7,493.9,451.6,493.5z"/>
		<path d="M455.3,487.6v1.6h-1v-1.6H455.3z M455.3,490.7v8.1h-1v-8.1H455.3z"/>
		<path d="M458,496.2c0.1,0.4,0.3,0.7,0.5,1c0.2,0.3,0.5,0.6,0.8,0.8c0.3,0.2,0.7,0.3,1.2,0.3c0.7,0,1.3-0.2,1.7-0.6
			c0.4-0.4,0.7-0.9,0.9-1.5h1c-0.2,0.9-0.6,1.6-1.2,2.1c-0.6,0.5-1.4,0.8-2.4,0.8c-0.6,0-1.2-0.1-1.7-0.3c-0.5-0.2-0.9-0.5-1.1-0.9
			c-0.3-0.4-0.5-0.9-0.7-1.4s-0.2-1.1-0.2-1.7c0-0.5,0.1-1.1,0.2-1.6s0.4-1,0.7-1.4c0.3-0.4,0.7-0.7,1.1-1c0.5-0.2,1-0.4,1.7-0.4
			c0.7,0,1.2,0.1,1.7,0.4s0.8,0.6,1.1,1c0.3,0.4,0.5,0.9,0.6,1.5c0.1,0.6,0.2,1.1,0.2,1.7h-6.3C457.8,495.4,457.9,495.8,458,496.2z
			 M462.9,493.1c-0.1-0.3-0.3-0.7-0.5-0.9c-0.2-0.3-0.5-0.5-0.8-0.6c-0.3-0.2-0.7-0.2-1.1-0.2c-0.4,0-0.8,0.1-1.1,0.2
			c-0.3,0.2-0.6,0.4-0.8,0.6c-0.2,0.3-0.4,0.6-0.5,0.9c-0.1,0.4-0.2,0.7-0.3,1.1h5.3C463.1,493.8,463,493.5,462.9,493.1z"/>
		<path d="M466.4,490.7v1.9h0c0.3-0.7,0.6-1.2,1.2-1.5c0.5-0.4,1.2-0.5,1.9-0.5v1c-0.5,0-0.9,0-1.2,0.2c-0.4,0.1-0.7,0.3-1,0.6
			c-0.3,0.3-0.5,0.6-0.6,0.9c-0.1,0.4-0.2,0.8-0.2,1.2v4.3h-1v-8.1H466.4z"/>
		<path d="M473.6,490.7v0.8H472v5.5c0,0.3,0,0.6,0.1,0.8c0.1,0.2,0.3,0.3,0.7,0.3c0.3,0,0.6,0,0.9,0v0.8c-0.1,0-0.3,0-0.4,0
			c-0.1,0-0.3,0-0.4,0c-0.7,0-1.1-0.1-1.4-0.4c-0.3-0.3-0.4-0.7-0.4-1.4v-5.6h-1.4v-0.8h1.4v-2.4h1v2.4H473.6z"/>
		<path d="M475.3,492c0.2-0.3,0.4-0.6,0.7-0.9c0.3-0.2,0.6-0.4,1-0.5c0.4-0.1,0.8-0.2,1.3-0.2c0.4,0,0.7,0,1.1,0.1
			c0.4,0.1,0.7,0.2,1,0.4c0.3,0.2,0.5,0.5,0.7,0.8c0.2,0.3,0.3,0.8,0.3,1.3v4.3c0,0.4,0.2,0.6,0.6,0.6c0.1,0,0.2,0,0.3-0.1v0.8
			c-0.1,0-0.2,0-0.3,0c-0.1,0-0.2,0-0.3,0c-0.3,0-0.5,0-0.6-0.1c-0.2-0.1-0.3-0.2-0.4-0.3c-0.1-0.1-0.1-0.3-0.2-0.4s0-0.4,0-0.6h0
			c-0.2,0.3-0.4,0.5-0.5,0.7c-0.2,0.2-0.4,0.4-0.6,0.5c-0.2,0.1-0.5,0.2-0.8,0.3c-0.3,0.1-0.6,0.1-1,0.1c-0.4,0-0.7,0-1.1-0.1
			c-0.3-0.1-0.6-0.2-0.9-0.4c-0.2-0.2-0.4-0.4-0.6-0.7c-0.1-0.3-0.2-0.7-0.2-1.1c0-0.6,0.1-1,0.4-1.3s0.6-0.6,1-0.7
			c0.4-0.2,0.9-0.3,1.4-0.4c0.5-0.1,1.1-0.1,1.6-0.2c0.2,0,0.4,0,0.6-0.1c0.2,0,0.3-0.1,0.4-0.2c0.1-0.1,0.2-0.2,0.2-0.3
			c0.1-0.1,0.1-0.3,0.1-0.5c0-0.3-0.1-0.6-0.2-0.8c-0.1-0.2-0.3-0.4-0.5-0.5c-0.2-0.1-0.4-0.2-0.7-0.3c-0.3,0-0.5-0.1-0.8-0.1
			c-0.6,0-1.1,0.2-1.5,0.4c-0.4,0.3-0.6,0.8-0.6,1.4h-1C475,492.7,475.1,492.3,475.3,492z M480.3,494.4c-0.1,0.1-0.2,0.2-0.4,0.3
			c-0.2,0.1-0.3,0.1-0.5,0.1c-0.4,0.1-0.9,0.1-1.3,0.2c-0.4,0.1-0.9,0.1-1.2,0.3c-0.4,0.1-0.7,0.3-0.9,0.5c-0.2,0.2-0.4,0.5-0.4,0.9
			c0,0.3,0.1,0.5,0.1,0.7c0.1,0.2,0.2,0.4,0.4,0.5c0.2,0.1,0.4,0.3,0.6,0.3c0.2,0.1,0.4,0.1,0.7,0.1c0.4,0,0.7-0.1,1.1-0.2
			s0.6-0.3,0.9-0.5c0.3-0.2,0.5-0.5,0.6-0.8c0.2-0.3,0.2-0.7,0.2-1.1L480.3,494.4L480.3,494.4z"/>
	</g>
</g>
</svg>
