<?xml version="1.0" encoding="utf-8"?>
<!-- Generator: Adobe Illustrator 21.1.0, SVG Export Plug-In . SVG Version: 6.00 Build 0)  -->
<svg version="1.1" id="Layer_1" xmlns="http://www.w3.org/2000/svg" x="0px" y="0px"
     viewBox="105 345 385 163" style="enable-background:new 105 345 385 163;" xml:space="preserve">
<style type="text/css">
	.st0{fill:#C53526;}
	*{fill:#ffffff;}
</style>
<g>
	<g>
		<g>
			<g>
				<g>
					<path d="M268.8,433.1c0.2,2,0.3,4.1,0.3,6.4c0,11.6-2.8,20-8.3,25.2c-5.5,5.2-11.8,7.7-18.8,7.7c-8.9,0-15.3-2.8-19.3-8.4
						c-2.8-3.9-4.6-9.1-5.4-15.5l-19.1-16.1c-3.9-3.3-5.2-6.6-4.1-9.8c0.7-1.8,2.7-4.8,8.8-4.8c3.9,0,9.4,1.3,12.7,4.1l3.2,2.7
						c1.3-3.7,3.1-6.8,5.5-9.3c5-5.2,11.2-7.8,18.5-7.8c3.4,0,6.5,0.4,9.3,1.2c5.4-7.9,11.2-15.7,17.3-23.2
						c-7.1-2.4-15.1-3.6-24-3.6c-17.7,0-32.6,5.5-44.7,16.6c-12.1,11-18.1,25.4-18.1,43.2c0,18.1,4.9,32.1,14.6,41.9
						c9.8,9.8,24.2,14.7,43.2,14.7c18.1,0,33-5.5,45-16.6c11.9-11.1,17.9-25.6,17.9-43.5c0-16.1-3.7-28.6-11.2-37.7
						C283.7,410.8,275.9,421.7,268.8,433.1z"/>
					<path d="M149.6,408.3v18.1h18.2v25.4h-18.2v46.4h-35.1V381.8h68v26.5H149.6z"/>
					<path d="M369,498.2l-23-44.6h-1.2v44.6h-33.9V382.4c4.4,0,14.3-0.1,23.6-0.3c9.3-0.2,15.2-0.3,17.7-0.3
						c14.6,0,25.6,2.8,33.2,8.4c7.5,5.6,11.3,14.4,11.3,26.6c0,6.8-1.8,13.1-5.4,18.7c-3.6,5.6-8.6,9.6-15,11.9l8.1,12.9l22.3,37.9
						H369z M350.6,407.1h-5.8v24l5.1,0.7c4.4,0,7.9-1.1,10.4-3.3c2.5-2.2,3.8-5.4,3.8-9.5c0-3.6-1.1-6.5-3.2-8.7
						C358.8,408.2,355.4,407.1,350.6,407.1z"/>
					<path d="M458.8,408.3v89.9H428v-89.9h-24.2v-26.5H483v26.5H458.8z"/>
				</g>
				<path class="st0" d="M288,371.5c-20.5,22.4-38,47-52.3,73.8c-7.8-6.6-15.5-13.1-23.3-19.7c-4.6-3.9-19.6-4.5-11,2.8
					c11.2,9.4,22.3,18.8,33.5,28.3c2.3,2,11.2,6.6,13.5,2.2c14.5-28.6,32.4-54.7,54.1-78.4C306.9,375.7,291.6,367.6,288,371.5z"/>
			</g>
		</g>
	</g>
	<g>
		<path class="st0" d="M325.3,350.8v2.6h0.1c1-2,3-3.1,4.8-3.2c2-0.1,4,1.1,4.7,3h0.1c1.2-2,2.8-3,4.6-3c3,0,5.7,1.6,5.7,4.7v18.4
			H339v-16c-0.1-1-0.5-1.9-1.7-1.8c-1.1,0-1.7,0.7-1.7,1.8v16h-6.4v-16c-0.2-1-0.4-1.8-1.5-1.8c-1.3,0-1.8,0.6-1.9,1.8v16h-6.4
			v-22.4H325.3z"/>
		<path class="st0" d="M348.5,357.8c0-5.8,3.4-7.7,8.3-7.7c5.6,0,8.3,2.6,8.3,7.7v9.1c-0.3,5.1-3.5,7-8.3,7c-4.6,0-8.3-1.8-8.3-7
			V357.8z M354.9,367.4c0.1,1.3,0.6,2,2,2s1.8-0.7,2-2v-10c0-1.4-0.5-2.6-2-2.6s-2,1.2-2,2.6V367.4z"/>
		<path class="st0" d="M374.7,350.8v2.8h0.1c0.6-1.7,2.4-3.4,4.4-3.4c3,0,5.7,1.6,5.7,4.7v18.4h-6.4v-16c-0.1-1-0.5-1.9-1.7-1.8
			c-1.1,0-1.7,0.7-1.7,1.8v16h-6.4v-22.4H374.7z"/>
		<path class="st0" d="M389.3,348.6v-5.4h6.4v5.4H389.3z M389.3,373.2v-22.4h6.4v22.4H389.3z"/>
		<path class="st0" d="M398.5,355.4v-4.6h2.5v-6.4h6.4v6.4h3v4.6h-3v11.8c0,1.3,0.6,1.6,1.4,1.6c0.7-0.1,1-0.1,1.6-0.1v4.5
			c-1.4,0.2-2.7,0.4-4.1,0.4c-3.4,0-5.3-1.8-5.3-5.2v-13H398.5z"/>
		<path class="st0" d="M413,357.8c0-5.8,3.4-7.7,8.3-7.7c5.6,0,8.3,2.6,8.3,7.7v9.1c-0.3,5.1-3.5,7-8.3,7c-4.6,0-8.3-1.8-8.3-7
			V357.8z M419.4,367.4c0.1,1.3,0.6,2,2,2s1.8-0.7,2-2v-10c0-1.4-0.5-2.6-2-2.6s-2,1.2-2,2.6V367.4z"/>
		<path class="st0" d="M439,350.8v3.4h0.1c0.7-2.4,2.3-4,4.9-4v7.2c-0.6-0.1-1.3-0.2-1.9-0.2c-1.8,0-2.5,0.4-2.6,2.2v13.8H433v-22.4
			H439z"/>
		<path class="st0" d="M452.6,363v3.9c0,1.2,0.6,2.3,2,2.4c2.4,0.1,2.1-2,2.2-3.9h6.3c0.3,5.8-2.8,8.4-8.3,8.5c-4.6,0-8.6-1.8-8.6-7
			v-9.1c0-5.8,3.6-7.6,8.6-7.7c4.4,0,8.6,1.6,8.6,6.5v6.4H452.6z M457,358.8v-2.2c0-0.8-0.5-2.3-2.2-2.3c-1.8,0-2.2,1.4-2.2,3v1.5
			H457z"/>
		<path class="st0" d="M466.4,357.8c0-5.8,3.4-7.7,8.3-7.7c5.6,0,8.3,2.6,8.3,7.7v9.1c-0.3,5.1-3.5,7-8.3,7c-4.6,0-8.3-1.8-8.3-7
			V357.8z M472.8,367.4c0.1,1.3,0.6,2,2,2s1.8-0.7,2-2v-10c0-1.4-0.5-2.6-2-2.6s-2,1.2-2,2.6V367.4z"/>
	</g>
</g>
</svg>
